<svg width="66" height="80" viewBox="0 0 66 80" fill="none" xmlns="http://www.w3.org/2000/svg">
<g filter="url(#filter0_i_245_1675)">
<path d="M63.8332 78.2732C62.0357 79.5584 59.5366 79.1427 58.252 77.3448L41.1592 53.4217C39.9738 51.7627 37.7383 51.2994 35.816 51.9795C34.5036 52.4438 33.1187 52.7935 31.6611 53.0285C28.9352 53.4682 26.113 53.445 23.1943 52.9592C15.7699 51.7233 9.95218 48.1526 5.74129 42.2471C1.53038 36.3416 0.029513 29.7569 1.23869 22.4929C2.44785 15.229 6.00395 9.48995 11.907 5.27565C17.8101 1.06142 24.3915 -0.441461 31.6512 0.767007C38.9109 1.97548 44.6464 5.53138 48.8576 11.4347C53.0689 17.338 54.5694 23.925 53.3591 31.1955C52.8754 34.1011 51.9983 36.7361 50.7277 39.1007C49.9846 40.4837 49.1041 41.7992 48.0864 43.0472C46.8226 44.5969 46.5829 46.8119 47.7511 48.4348L65.0514 72.4692C66.3449 74.2662 65.9326 76.7721 64.1315 78.0598L63.8332 78.2732ZM24.345 44.8682C29.4123 45.7117 33.9623 44.6825 37.995 41.7806C42.0276 38.8787 44.4637 34.9061 45.3032 29.8627C46.1427 24.8193 45.1264 20.2642 42.2541 16.1974C39.3819 12.1307 35.4146 9.67593 30.3522 8.83324C25.2361 7.98159 20.6562 9.01353 16.6124 11.9291C12.5687 14.8446 10.1271 18.824 9.28757 23.8674C8.44804 28.9108 9.46743 33.4587 12.3458 37.511C15.2241 41.5633 19.2238 44.0157 24.345 44.8682Z" fill="#FBBC05"/>
</g>
<defs>
<filter id="filter0_i_245_1675" x="0.834045" y="0.363037" width="64.9713" height="82.6566" filterUnits="userSpaceOnUse" color-interpolation-filters="sRGB">
<feFlood flood-opacity="0" result="BackgroundImageFix"/>
<feBlend mode="normal" in="SourceGraphic" in2="BackgroundImageFix" result="shape"/>
<feColorMatrix in="SourceAlpha" type="matrix" values="0 0 0 0 0 0 0 0 0 0 0 0 0 0 0 0 0 0 127 0" result="hardAlpha"/>
<feOffset dy="4"/>
<feGaussianBlur stdDeviation="2"/>
<feComposite in2="hardAlpha" operator="arithmetic" k2="-1" k3="1"/>
<feColorMatrix type="matrix" values="0 0 0 0 0 0 0 0 0 0 0 0 0 0 0 0 0 0 0.1 0"/>
<feBlend mode="normal" in2="shape" result="effect1_innerShadow_245_1675"/>
</filter>
</defs>
</svg>
