<svg width="92" height="93" viewBox="0 0 92 93" fill="none" xmlns="http://www.w3.org/2000/svg">
<g filter="url(#filter0_i_127_461)">
<path d="M19.7038 56.9201C33.1552 55.5955 40.6968 55.7888 54.1481 56.9201V50.2587C40.6968 49.3448 33.1552 48.8002 19.7038 50.2587V56.9201ZM19.7038 42.4871C40.3321 41.3618 51.8975 41.5475 72.5258 42.4871C73.4218 39.8889 73.3866 38.426 72.5258 35.8258C51.8975 35.8258 40.3321 35.8258 19.7038 35.8258C17.9274 38.4243 17.9695 39.8886 19.7038 42.4871ZM19.7038 28.0542C40.3321 26.5352 51.8975 26.6747 72.5258 28.0542C73.612 25.2036 73.7231 23.7189 72.5258 21.3928C52.0277 19.9183 40.4605 19.9475 19.7038 21.3928C18.3412 24.2811 18.5552 25.6953 19.7038 28.0542ZM1.43864 93C-0.211574 60.7501 -0.730082 42.6684 1.43864 10.4184C1.43864 8.44245 2.182 6.68337 3.66872 5.1412C5.15551 3.59894 6.91129 2.82781 8.93606 2.82781C8.93606 2.82781 39.4609 0 45.5 0C51.5391 0 83.2935 2.82781 83.2935 2.82781C85.2521 2.82781 86.9957 3.59894 88.5243 5.1412C90.053 6.68337 90.8174 8.44245 90.8174 10.4184C92.4224 32.7785 92.3657 45.3124 90.8174 67.6724C90.8174 69.6411 90.053 71.394 88.5243 72.931C86.9957 74.4679 85.2521 75.2364 83.2935 75.2364C58.2033 77.6301 44.1362 77.9795 19.046 75.2364C9.77404 80.8591 6.1536 84.878 1.43864 93ZM8.93606 75.2822C8.93606 75.2822 13.2543 69.1527 16.479 67.6724C19.7038 66.192 78.7392 70.4569 83.2935 67.6724C87.8479 64.8878 91.1979 21.0492 83.674 10.9709C76.1502 0.892689 14.5839 4.54832 9.31655 10.9709C4.04922 17.3936 8.93606 75.2822 8.93606 75.2822Z" fill="#FBBC05"/>
</g>
<defs>
<filter id="filter0_i_127_461" x="0" y="0" width="92" height="97" filterUnits="userSpaceOnUse" color-interpolation-filters="sRGB">
<feFlood flood-opacity="0" result="BackgroundImageFix"/>
<feBlend mode="normal" in="SourceGraphic" in2="BackgroundImageFix" result="shape"/>
<feColorMatrix in="SourceAlpha" type="matrix" values="0 0 0 0 0 0 0 0 0 0 0 0 0 0 0 0 0 0 127 0" result="hardAlpha"/>
<feOffset dy="4"/>
<feGaussianBlur stdDeviation="2"/>
<feComposite in2="hardAlpha" operator="arithmetic" k2="-1" k3="1"/>
<feColorMatrix type="matrix" values="0 0 0 0 0 0 0 0 0 0 0 0 0 0 0 0 0 0 0.1 0"/>
<feBlend mode="normal" in2="shape" result="effect1_innerShadow_127_461"/>
</filter>
</defs>
</svg>
