<svg width="35" height="34" viewBox="0 0 35 34" fill="none" xmlns="http://www.w3.org/2000/svg">
<path d="M15.2004 28.4C15.2004 29.3548 14.8211 30.2705 14.146 30.9456C13.4709 31.6207 12.5552 32 11.6004 32C10.6456 32 9.72997 31.6207 9.05484 30.9456C8.37971 30.2705 8.00043 29.3548 8.00043 28.4M12.4656 11.6036L10.7064 11.6C6.69363 11.5904 3.21003 14.8508 3.18243 18.8V23.348C3.18243 24.296 3.06243 25.2212 2.54523 26.0096L2.20083 26.5352C1.67643 27.332 2.24043 28.4 3.18243 28.4H20.0184C20.9604 28.4 21.5232 27.332 21 26.5352L20.6556 26.0096C20.1396 25.2212 20.0184 24.2948 20.0184 23.3468V18.8012C19.9704 14.8508 16.4784 11.6132 12.4656 11.6036V11.6036Z" stroke="#001E3B" stroke-width="2.4" stroke-linecap="round" stroke-linejoin="round"/>
<path d="M11.6004 8C12.237 8 12.8474 8.25286 13.2975 8.70294C13.7476 9.15303 14.0004 9.76348 14.0004 10.4V11.6H9.20044V10.4C9.20044 9.76348 9.4533 9.15303 9.90338 8.70294C10.3535 8.25286 10.9639 8 11.6004 8Z" stroke="#001E3B" stroke-width="2.4" stroke-linecap="round" stroke-linejoin="round"/>
<circle cx="24.1005" cy="10.5" r="10.5" fill="#FBBC05"/>
</svg>
