<svg width="35" height="34" viewBox="0 0 35 34" fill="none" xmlns="http://www.w3.org/2000/svg">
<path d="M15.2004 28.4C15.2004 29.3548 14.8211 30.2705 14.146 30.9456C13.4709 31.6207 12.5552 32 11.6004 32C10.6456 32 9.72997 31.6207 9.05484 30.9456C8.37971 30.2705 8.00043 29.3548 8.00043 28.4M12.4656 11.6036L10.7064 11.6C6.69363 11.5904 3.21003 14.8508 3.18243 18.8V23.348C3.18243 24.296 3.06243 25.2212 2.54523 26.0096L2.20083 26.5352C1.67643 27.332 2.24043 28.4 3.18243 28.4H20.0184C20.9604 28.4 21.5232 27.332 21 26.5352L20.6556 26.0096C20.1396 25.2212 20.0184 24.2948 20.0184 23.3468V18.8012C19.9704 14.8508 16.4784 11.6132 12.4656 11.6036V11.6036Z" stroke="#001E3B" stroke-width="2.4" stroke-linecap="round" stroke-linejoin="round"/>
<path d="M11.6004 8C12.237 8 12.8474 8.25286 13.2975 8.70294C13.7476 9.15303 14.0004 9.76348 14.0004 10.4V11.6H9.20044V10.4C9.20044 9.76348 9.4533 9.15303 9.90338 8.70294C10.3535 8.25286 10.9639 8 11.6004 8Z" stroke="#001E3B" stroke-width="2.4" stroke-linecap="round" stroke-linejoin="round"/>
<circle cx="24.1005" cy="10.5" r="10.5" fill="#FBBC05"/>
<path d="M25.7293 10.338C26.0813 10.35 26.3693 10.45 26.5933 10.638C26.8213 10.822 26.9893 11.068 27.0973 11.376C27.2093 11.68 27.2653 12.018 27.2653 12.39C27.2653 12.898 27.1693 13.36 26.9773 13.776C26.7853 14.188 26.4893 14.516 26.0893 14.76C25.6933 15.004 25.1853 15.126 24.5653 15.126C24.0493 15.126 23.6133 15.058 23.2573 14.922C22.9013 14.782 22.6153 14.586 22.3993 14.334C22.1873 14.078 22.0313 13.774 21.9313 13.422C21.8353 13.07 21.7873 12.682 21.7873 12.258C21.7873 12.254 21.7873 12.25 21.7873 12.246C21.7873 12.242 21.7873 12.238 21.7873 12.234H23.0953C23.0953 12.238 23.0953 12.242 23.0953 12.246C23.0953 12.25 23.0953 12.254 23.0953 12.258C23.0953 12.726 23.1533 13.09 23.2693 13.35C23.3893 13.61 23.5593 13.792 23.7793 13.896C24.0033 13.996 24.2713 14.046 24.5833 14.046C25.0033 14.046 25.3353 13.91 25.5793 13.638C25.8273 13.362 25.9513 12.936 25.9513 12.36C25.9513 12.152 25.9293 11.958 25.8853 11.778C25.8453 11.598 25.7713 11.442 25.6633 11.31C25.5553 11.174 25.4053 11.068 25.2133 10.992C25.0253 10.912 24.7833 10.872 24.4873 10.872H24.1633V9.882H24.4873C24.7753 9.882 25.0133 9.844 25.2013 9.768C25.3933 9.688 25.5433 9.582 25.6513 9.45C25.7593 9.314 25.8353 9.164 25.8793 9C25.9273 8.832 25.9513 8.66 25.9513 8.484C25.9513 8.004 25.8293 7.658 25.5853 7.446C25.3413 7.234 25.0133 7.128 24.6013 7.128C24.1493 7.128 23.7853 7.248 23.5093 7.488C23.2333 7.728 23.0953 8.164 23.0953 8.796H21.7873C21.7873 8.4 21.8413 8.034 21.9493 7.698C22.0613 7.362 22.2293 7.07 22.4533 6.822C22.6813 6.57 22.9713 6.376 23.3233 6.24C23.6753 6.104 24.0933 6.036 24.5773 6.036C25.1933 6.036 25.6993 6.144 26.0953 6.36C26.4913 6.576 26.7853 6.864 26.9773 7.224C27.1693 7.584 27.2653 7.982 27.2653 8.418C27.2653 8.75 27.2093 9.06 27.0973 9.348C26.9893 9.632 26.8213 9.864 26.5933 10.044C26.3693 10.224 26.0813 10.322 25.7293 10.338Z" fill="#FBFBFB"/>
</svg>
