<svg width="298" height="55" viewBox="0 0 298 55" fill="none" xmlns="http://www.w3.org/2000/svg">
<path d="M130.486 44.2059C130.486 43.3045 130.413 42.6468 130.255 41.9647H119.962V46.0329H126.004C125.882 47.0439 125.224 48.5664 123.762 49.5895L123.742 49.7257L126.996 52.2467L127.222 52.2692C129.292 50.3569 130.486 47.5432 130.486 44.2059Z" fill="#4285F4"/>
<path d="M119.962 54.9244C122.922 54.9244 125.407 53.9499 127.222 52.2691L123.762 49.5894C122.837 50.2349 121.594 50.6856 119.962 50.6856C117.063 50.6856 114.603 48.7734 113.726 46.1302L113.597 46.1412L110.214 48.7599L110.169 48.8829C111.972 52.4639 115.675 54.9244 119.962 54.9244Z" fill="#34A853"/>
<path d="M113.726 46.1303C113.494 45.4482 113.361 44.7174 113.361 43.9622C113.361 43.207 113.494 42.4762 113.714 41.7941L113.708 41.6489L110.281 38.988L110.169 39.0414C109.426 40.5274 109 42.1961 109 43.9622C109 45.7283 109.426 47.397 110.169 48.883L113.726 46.1303Z" fill="#FBBC05"/>
<path d="M119.962 37.2387C122.021 37.2387 123.409 38.1278 124.201 38.8709L127.295 35.8502C125.395 34.084 122.922 33 119.962 33C115.675 33 111.972 35.4604 110.169 39.0414L113.714 41.7941C114.603 39.151 117.063 37.2387 119.962 37.2387Z" fill="#EB4335"/>
<path d="M144.092 42.07C143.84 41.5847 143.49 41.2207 143.042 40.978C142.594 40.726 142.076 40.6 141.488 40.6C140.844 40.6 140.27 40.7447 139.766 41.034C139.262 41.3233 138.865 41.734 138.576 42.266C138.296 42.798 138.156 43.414 138.156 44.114C138.156 44.814 138.296 45.4347 138.576 45.976C138.865 46.508 139.262 46.9187 139.766 47.208C140.27 47.4973 140.844 47.642 141.488 47.642C142.356 47.642 143.061 47.3993 143.602 46.914C144.143 46.4287 144.475 45.7707 144.596 44.94H140.942V43.666H146.304V44.912C146.201 45.668 145.931 46.3633 145.492 46.998C145.063 47.6327 144.498 48.1413 143.798 48.524C143.107 48.8973 142.337 49.084 141.488 49.084C140.573 49.084 139.738 48.874 138.982 48.454C138.226 48.0247 137.624 47.432 137.176 46.676C136.737 45.92 136.518 45.066 136.518 44.114C136.518 43.162 136.737 42.308 137.176 41.552C137.624 40.796 138.226 40.208 138.982 39.788C139.747 39.3587 140.583 39.144 141.488 39.144C142.524 39.144 143.443 39.4007 144.246 39.914C145.058 40.418 145.646 41.1367 146.01 42.07H144.092ZM151.224 49.126C150.496 49.126 149.838 48.9627 149.25 48.636C148.662 48.3 148.2 47.8333 147.864 47.236C147.528 46.6293 147.36 45.9293 147.36 45.136C147.36 44.352 147.533 43.6567 147.878 43.05C148.223 42.4433 148.695 41.9767 149.292 41.65C149.889 41.3233 150.557 41.16 151.294 41.16C152.031 41.16 152.699 41.3233 153.296 41.65C153.893 41.9767 154.365 42.4433 154.71 43.05C155.055 43.6567 155.228 44.352 155.228 45.136C155.228 45.92 155.051 46.6153 154.696 47.222C154.341 47.8287 153.856 48.3 153.24 48.636C152.633 48.9627 151.961 49.126 151.224 49.126ZM151.224 47.74C151.635 47.74 152.017 47.642 152.372 47.446C152.736 47.25 153.03 46.956 153.254 46.564C153.478 46.172 153.59 45.696 153.59 45.136C153.59 44.576 153.483 44.1047 153.268 43.722C153.053 43.33 152.769 43.036 152.414 42.84C152.059 42.644 151.677 42.546 151.266 42.546C150.855 42.546 150.473 42.644 150.118 42.84C149.773 43.036 149.497 43.33 149.292 43.722C149.087 44.1047 148.984 44.576 148.984 45.136C148.984 45.9667 149.194 46.6107 149.614 47.068C150.043 47.516 150.58 47.74 151.224 47.74ZM160.152 49.126C159.424 49.126 158.766 48.9627 158.178 48.636C157.59 48.3 157.128 47.8333 156.792 47.236C156.456 46.6293 156.288 45.9293 156.288 45.136C156.288 44.352 156.461 43.6567 156.806 43.05C157.151 42.4433 157.623 41.9767 158.22 41.65C158.817 41.3233 159.485 41.16 160.222 41.16C160.959 41.16 161.627 41.3233 162.224 41.65C162.821 41.9767 163.293 42.4433 163.638 43.05C163.983 43.6567 164.156 44.352 164.156 45.136C164.156 45.92 163.979 46.6153 163.624 47.222C163.269 47.8287 162.784 48.3 162.168 48.636C161.561 48.9627 160.889 49.126 160.152 49.126ZM160.152 47.74C160.563 47.74 160.945 47.642 161.3 47.446C161.664 47.25 161.958 46.956 162.182 46.564C162.406 46.172 162.518 45.696 162.518 45.136C162.518 44.576 162.411 44.1047 162.196 43.722C161.981 43.33 161.697 43.036 161.342 42.84C160.987 42.644 160.605 42.546 160.194 42.546C159.783 42.546 159.401 42.644 159.046 42.84C158.701 43.036 158.425 43.33 158.22 43.722C158.015 44.1047 157.912 44.576 157.912 45.136C157.912 45.9667 158.122 46.6107 158.542 47.068C158.971 47.516 159.508 47.74 160.152 47.74ZM168.842 41.16C169.439 41.16 169.966 41.2813 170.424 41.524C170.89 41.7573 171.254 42.0513 171.516 42.406V41.286H173.126V49.126C173.126 49.8353 172.976 50.4653 172.678 51.016C172.379 51.576 171.945 52.0147 171.376 52.332C170.816 52.6493 170.144 52.808 169.36 52.808C168.314 52.808 167.446 52.5607 166.756 52.066C166.065 51.5807 165.673 50.918 165.58 50.078H167.162C167.283 50.4793 167.54 50.8013 167.932 51.044C168.333 51.296 168.809 51.422 169.36 51.422C170.004 51.422 170.522 51.226 170.914 50.834C171.315 50.442 171.516 49.8727 171.516 49.126V47.838C171.245 48.202 170.876 48.51 170.41 48.762C169.952 49.0047 169.43 49.126 168.842 49.126C168.17 49.126 167.554 48.958 166.994 48.622C166.443 48.2767 166.004 47.8007 165.678 47.194C165.36 46.578 165.202 45.8827 165.202 45.108C165.202 44.3333 165.36 43.6473 165.678 43.05C166.004 42.4527 166.443 41.9907 166.994 41.664C167.554 41.328 168.17 41.16 168.842 41.16ZM171.516 45.136C171.516 44.604 171.404 44.142 171.18 43.75C170.965 43.358 170.68 43.0593 170.326 42.854C169.971 42.6487 169.588 42.546 169.178 42.546C168.767 42.546 168.384 42.6487 168.03 42.854C167.675 43.05 167.386 43.344 167.162 43.736C166.947 44.1187 166.84 44.576 166.84 45.108C166.84 45.64 166.947 46.1067 167.162 46.508C167.386 46.9093 167.675 47.2173 168.03 47.432C168.394 47.6373 168.776 47.74 169.178 47.74C169.588 47.74 169.971 47.6373 170.326 47.432C170.68 47.2267 170.965 46.928 171.18 46.536C171.404 46.1347 171.516 45.668 171.516 45.136ZM176.818 38.64V49H175.222V38.64H176.818ZM185.983 44.954C185.983 45.2433 185.965 45.5047 185.927 45.738H180.033C180.08 46.354 180.309 46.8487 180.719 47.222C181.13 47.5953 181.634 47.782 182.231 47.782C183.09 47.782 183.697 47.4227 184.051 46.704H185.773C185.54 47.4133 185.115 47.9967 184.499 48.454C183.893 48.902 183.137 49.126 182.231 49.126C181.494 49.126 180.831 48.9627 180.243 48.636C179.665 48.3 179.207 47.8333 178.871 47.236C178.545 46.6293 178.381 45.9293 178.381 45.136C178.381 44.3427 178.54 43.6473 178.857 43.05C179.184 42.4433 179.637 41.9767 180.215 41.65C180.803 41.3233 181.475 41.16 182.231 41.16C182.959 41.16 183.608 41.3187 184.177 41.636C184.747 41.9533 185.19 42.4013 185.507 42.98C185.825 43.5493 185.983 44.2073 185.983 44.954ZM184.317 44.45C184.308 43.862 184.098 43.3907 183.687 43.036C183.277 42.6813 182.768 42.504 182.161 42.504C181.611 42.504 181.139 42.6813 180.747 43.036C180.355 43.3813 180.122 43.8527 180.047 44.45H184.317Z" fill="black"/>
<path d="M0 8H105" stroke="#001E3B" stroke-width="0.6"/>
<path d="M193 8H298" stroke="#001E3B" stroke-width="0.6"/>
<path d="M113.776 12.12C113.184 12.12 112.632 12.012 112.12 11.796C111.608 11.572 111.16 11.264 110.776 10.872C110.392 10.472 110.092 10.012 109.876 9.492C109.668 8.972 109.564 8.416 109.564 7.824C109.564 7.224 109.668 6.668 109.876 6.156C110.092 5.636 110.388 5.18 110.764 4.788C111.148 4.396 111.592 4.092 112.096 3.876C112.608 3.66 113.16 3.552 113.752 3.552C114.344 3.552 114.892 3.66 115.396 3.876C115.908 4.092 116.356 4.396 116.74 4.788C117.124 5.18 117.424 5.636 117.64 6.156C117.856 6.676 117.964 7.236 117.964 7.836C117.964 8.428 117.856 8.984 117.64 9.504C117.424 10.024 117.124 10.48 116.74 10.872C116.364 11.264 115.92 11.572 115.408 11.796C114.904 12.012 114.36 12.12 113.776 12.12ZM113.752 11.04C114.352 11.04 114.876 10.904 115.324 10.632C115.78 10.352 116.14 9.972 116.404 9.492C116.668 9.004 116.8 8.448 116.8 7.824C116.8 7.36 116.724 6.936 116.572 6.552C116.42 6.16 116.208 5.82 115.936 5.532C115.664 5.244 115.344 5.024 114.976 4.872C114.608 4.712 114.2 4.632 113.752 4.632C113.16 4.632 112.636 4.768 112.18 5.04C111.732 5.312 111.376 5.688 111.112 6.168C110.856 6.648 110.728 7.2 110.728 7.824C110.728 8.288 110.8 8.72 110.944 9.12C111.096 9.512 111.304 9.852 111.568 10.14C111.84 10.42 112.16 10.64 112.528 10.8C112.904 10.96 113.312 11.04 113.752 11.04ZM119.319 12V6.3H120.399V12H119.319ZM120.399 8.748L119.991 8.568C119.991 7.84 120.159 7.26 120.495 6.828C120.831 6.396 121.315 6.18 121.947 6.18C122.235 6.18 122.495 6.232 122.727 6.336C122.959 6.432 123.175 6.596 123.375 6.828L122.667 7.56C122.547 7.432 122.415 7.34 122.271 7.284C122.127 7.228 121.959 7.2 121.767 7.2C121.367 7.2 121.039 7.328 120.783 7.584C120.527 7.84 120.399 8.228 120.399 8.748ZM128.655 12.12C128.335 12.12 128.031 12.08 127.743 12C127.463 11.912 127.203 11.792 126.963 11.64C126.723 11.48 126.515 11.292 126.339 11.076L127.035 10.38C127.243 10.636 127.483 10.828 127.755 10.956C128.027 11.076 128.331 11.136 128.667 11.136C129.003 11.136 129.263 11.08 129.447 10.968C129.631 10.848 129.723 10.684 129.723 10.476C129.723 10.268 129.647 10.108 129.495 9.996C129.351 9.876 129.163 9.78 128.931 9.708C128.699 9.628 128.451 9.552 128.187 9.48C127.931 9.4 127.687 9.3 127.455 9.18C127.223 9.06 127.031 8.896 126.879 8.688C126.735 8.48 126.663 8.204 126.663 7.86C126.663 7.516 126.747 7.22 126.915 6.972C127.083 6.716 127.315 6.52 127.611 6.384C127.915 6.248 128.279 6.18 128.703 6.18C129.151 6.18 129.547 6.26 129.891 6.42C130.243 6.572 130.531 6.804 130.755 7.116L130.059 7.812C129.899 7.604 129.699 7.444 129.459 7.332C129.227 7.22 128.963 7.164 128.667 7.164C128.355 7.164 128.115 7.22 127.947 7.332C127.787 7.436 127.707 7.584 127.707 7.776C127.707 7.968 127.779 8.116 127.923 8.22C128.067 8.324 128.255 8.412 128.487 8.484C128.727 8.556 128.975 8.632 129.231 8.712C129.487 8.784 129.731 8.884 129.963 9.012C130.195 9.14 130.383 9.312 130.527 9.528C130.679 9.744 130.755 10.028 130.755 10.38C130.755 10.916 130.563 11.34 130.179 11.652C129.803 11.964 129.295 12.12 128.655 12.12ZM131.976 12V6.3H133.056V12H131.976ZM132.516 5.16C132.316 5.16 132.152 5.096 132.024 4.968C131.896 4.832 131.832 4.664 131.832 4.464C131.832 4.272 131.896 4.112 132.024 3.984C132.152 3.848 132.316 3.78 132.516 3.78C132.716 3.78 132.88 3.848 133.008 3.984C133.136 4.112 133.2 4.272 133.2 4.464C133.2 4.664 133.136 4.832 133.008 4.968C132.88 5.096 132.716 5.16 132.516 5.16ZM137.011 14.508C136.427 14.508 135.907 14.4 135.451 14.184C135.003 13.968 134.643 13.664 134.371 13.272L135.067 12.564C135.299 12.86 135.575 13.084 135.895 13.236C136.215 13.396 136.595 13.476 137.035 13.476C137.619 13.476 138.079 13.32 138.415 13.008C138.759 12.704 138.931 12.292 138.931 11.772V10.356L139.123 9.072L138.931 7.8V6.3H140.011V11.772C140.011 12.316 139.883 12.792 139.627 13.2C139.379 13.608 139.027 13.928 138.571 14.16C138.123 14.392 137.603 14.508 137.011 14.508ZM137.011 11.904C136.491 11.904 136.023 11.78 135.607 11.532C135.199 11.284 134.875 10.944 134.635 10.512C134.395 10.072 134.275 9.58 134.275 9.036C134.275 8.492 134.395 8.008 134.635 7.584C134.875 7.152 135.199 6.812 135.607 6.564C136.023 6.308 136.491 6.18 137.011 6.18C137.459 6.18 137.855 6.268 138.199 6.444C138.543 6.62 138.815 6.868 139.015 7.188C139.223 7.5 139.335 7.868 139.351 8.292V9.804C139.327 10.22 139.211 10.588 139.003 10.908C138.803 11.22 138.531 11.464 138.187 11.64C137.843 11.816 137.451 11.904 137.011 11.904ZM137.227 10.884C137.579 10.884 137.887 10.808 138.151 10.656C138.423 10.504 138.631 10.292 138.775 10.02C138.919 9.74 138.991 9.416 138.991 9.048C138.991 8.68 138.915 8.36 138.763 8.088C138.619 7.808 138.415 7.592 138.151 7.44C137.887 7.28 137.575 7.2 137.215 7.2C136.855 7.2 136.539 7.28 136.267 7.44C135.995 7.592 135.779 7.808 135.619 8.088C135.467 8.36 135.391 8.676 135.391 9.036C135.391 9.396 135.467 9.716 135.619 9.996C135.779 10.276 135.995 10.496 136.267 10.656C136.547 10.808 136.867 10.884 137.227 10.884ZM145.629 12V8.676C145.629 8.244 145.493 7.888 145.221 7.608C144.949 7.328 144.597 7.188 144.165 7.188C143.877 7.188 143.621 7.252 143.397 7.38C143.173 7.508 142.997 7.684 142.869 7.908C142.741 8.132 142.677 8.388 142.677 8.676L142.233 8.424C142.233 7.992 142.329 7.608 142.521 7.272C142.713 6.936 142.981 6.672 143.325 6.48C143.669 6.28 144.057 6.18 144.489 6.18C144.921 6.18 145.301 6.288 145.629 6.504C145.965 6.72 146.229 7.004 146.421 7.356C146.613 7.7 146.709 8.068 146.709 8.46V12H145.629ZM141.597 12V6.3H142.677V12H141.597ZM152.959 12.12C152.495 12.12 152.075 12.016 151.699 11.808C151.331 11.592 151.043 11.296 150.835 10.92C150.627 10.544 150.523 10.108 150.523 9.612V6.3H151.603V9.564C151.603 9.876 151.655 10.148 151.759 10.38C151.871 10.604 152.031 10.776 152.239 10.896C152.447 11.016 152.691 11.076 152.971 11.076C153.395 11.076 153.727 10.944 153.967 10.68C154.207 10.408 154.327 10.036 154.327 9.564V6.3H155.407V9.612C155.407 10.108 155.303 10.544 155.095 10.92C154.887 11.296 154.599 11.592 154.231 11.808C153.871 12.016 153.447 12.12 152.959 12.12ZM159.855 12.12C159.423 12.12 159.031 12.032 158.679 11.856C158.335 11.672 158.059 11.42 157.851 11.1C157.643 10.78 157.527 10.416 157.503 10.008V8.292C157.527 7.876 157.643 7.512 157.851 7.2C158.067 6.88 158.347 6.632 158.691 6.456C159.043 6.272 159.431 6.18 159.855 6.18C160.375 6.18 160.843 6.312 161.259 6.576C161.683 6.84 162.015 7.196 162.255 7.644C162.495 8.092 162.615 8.596 162.615 9.156C162.615 9.716 162.495 10.22 162.255 10.668C162.015 11.116 161.683 11.472 161.259 11.736C160.843 11.992 160.375 12.12 159.855 12.12ZM159.675 11.1C160.035 11.1 160.351 11.016 160.623 10.848C160.895 10.68 161.111 10.452 161.271 10.164C161.431 9.868 161.511 9.528 161.511 9.144C161.511 8.768 161.431 8.432 161.271 8.136C161.111 7.84 160.895 7.612 160.623 7.452C160.351 7.284 160.039 7.2 159.687 7.2C159.327 7.2 159.011 7.284 158.739 7.452C158.467 7.612 158.255 7.84 158.103 8.136C157.951 8.432 157.875 8.772 157.875 9.156C157.875 9.532 157.947 9.868 158.091 10.164C158.243 10.452 158.455 10.68 158.727 10.848C159.007 11.016 159.323 11.1 159.675 11.1ZM156.854 14.388V6.3H157.935V7.8L157.731 9.18L157.935 10.572V14.388H156.854ZM167.967 12L165.711 6.3H166.839L168.471 10.74H168.111L169.731 6.3H170.355L171.975 10.74H171.615L173.247 6.3H174.375L172.131 12H171.495L169.851 7.692H170.247L168.591 12H167.967ZM175.253 12V6.3H176.333V12H175.253ZM175.793 5.16C175.593 5.16 175.429 5.096 175.301 4.968C175.173 4.832 175.109 4.664 175.109 4.464C175.109 4.272 175.173 4.112 175.301 3.984C175.429 3.848 175.593 3.78 175.793 3.78C175.993 3.78 176.157 3.848 176.285 3.984C176.413 4.112 176.477 4.272 176.477 4.464C176.477 4.664 176.413 4.832 176.285 4.968C176.157 5.096 175.993 5.16 175.793 5.16ZM178.801 12V3.912H179.881V12H178.801ZM177.397 7.284V6.3H181.285V7.284H177.397ZM186.375 12V8.676C186.375 8.244 186.239 7.888 185.967 7.608C185.695 7.328 185.343 7.188 184.911 7.188C184.623 7.188 184.367 7.252 184.143 7.38C183.919 7.508 183.743 7.684 183.615 7.908C183.487 8.132 183.423 8.388 183.423 8.676L182.979 8.424C182.979 7.992 183.075 7.608 183.267 7.272C183.459 6.936 183.727 6.672 184.071 6.48C184.415 6.28 184.803 6.18 185.235 6.18C185.667 6.18 186.047 6.276 186.375 6.468C186.711 6.66 186.975 6.928 187.167 7.272C187.359 7.616 187.455 8.012 187.455 8.46V12H186.375ZM182.343 12V3.432H183.423V12H182.343Z" fill="#001E3B"/>
</svg>
