<svg width="26" height="26" viewBox="0 0 26 26" fill="none" xmlns="http://www.w3.org/2000/svg">
<path d="M13 26C20.1797 26 26 20.1797 26 13C26 5.8203 20.1797 0 13 0C5.8203 0 0 5.8203 0 13C0 20.1797 5.8203 26 13 26Z" fill="#BFC3FF"/>
<path d="M11.4265 19.588C11.2278 19.8083 10.8822 19.8081 10.6837 19.5877L6.30323 14.7229C6.13116 14.5318 6.1321 14.2413 6.30541 14.0514L7.42942 12.8193C7.62835 12.6012 7.97191 12.602 8.1698 12.821L10.6843 15.6041C10.8827 15.8236 11.2273 15.8238 11.426 15.6045L18.8456 7.40979C19.0443 7.19043 19.3889 7.19061 19.5873 7.41018L20.6974 8.63885C20.8693 8.8291 20.8694 9.11854 20.6977 9.30893L11.4265 19.588Z" fill="black"/>
</svg>
