<svg width="68" height="16" viewBox="0 0 68 16" fill="none" xmlns="http://www.w3.org/2000/svg">
<rect opacity="0.35" x="43.5" y="2.83331" width="21" height="10.3333" rx="2.16667" stroke="black"/>
<path opacity="0.4" d="M66 6V10C66.8079 9.66122 67.3333 8.87313 67.3333 8C67.3333 7.12687 66.8079 6.33878 66 6Z" fill="black"/>
<rect x="45" y="4.33331" width="18" height="7.33333" rx="1.33333" fill="black"/>
<path fill-rule="evenodd" clip-rule="evenodd" d="M30.3338 4.57388C32.5585 4.57397 34.6982 5.41166 36.3105 6.91382C36.4319 7.02979 36.626 7.02833 36.7456 6.91054L37.9062 5.7627C37.9667 5.70296 38.0005 5.62204 38 5.53784C37.9995 5.45364 37.9648 5.37311 37.9035 5.31407C33.6716 1.33973 26.9952 1.33973 22.7633 5.31407C22.702 5.37307 22.6672 5.45357 22.6667 5.53777C22.6661 5.62197 22.6998 5.70292 22.7603 5.7627L23.9213 6.91054C24.0408 7.0285 24.235 7.02997 24.3563 6.91382C25.9689 5.41157 28.1088 4.57387 30.3338 4.57388ZM30.3321 8.29943C31.5559 8.29936 32.7359 8.75596 33.643 9.58052C33.7657 9.69754 33.959 9.695 34.0786 9.5748L35.2392 8.39764C35.3003 8.33589 35.3342 8.25213 35.3333 8.16509C35.3324 8.07805 35.2968 7.995 35.2345 7.93451C32.4722 5.35514 28.1944 5.35514 25.4322 7.93451C25.3698 7.995 25.3342 8.07809 25.3333 8.16516C25.3325 8.25223 25.3666 8.33598 25.4278 8.39764L26.5881 9.5748C26.7077 9.695 26.9009 9.69754 27.0236 9.58052C27.9301 8.7565 29.1092 8.29994 30.3321 8.29943ZM32.6666 11.023C32.6684 11.1085 32.6341 11.1909 32.5718 11.2507L30.557 13.2419C30.498 13.3004 30.4174 13.3333 30.3334 13.3333C30.2494 13.3333 30.1689 13.3004 30.1098 13.2419L28.0947 11.2507C28.0325 11.1908 27.9982 11.1084 28.0001 11.023C28.0019 10.9375 28.0397 10.8566 28.1045 10.7993C29.3912 9.73354 31.2757 9.73354 32.5624 10.7993C32.6271 10.8566 32.6648 10.9376 32.6666 11.023Z" fill="black"/>
<path fill-rule="evenodd" clip-rule="evenodd" d="M17.6667 3.66669C17.6667 3.1144 17.2189 2.66669 16.6667 2.66669H15.6667C15.1144 2.66669 14.6667 3.1144 14.6667 3.66669V12.3334C14.6667 12.8856 15.1144 13.3334 15.6667 13.3334H16.6667C17.2189 13.3334 17.6667 12.8856 17.6667 12.3334V3.66669ZM11 5.00002H12C12.5523 5.00002 13 5.44774 13 6.00002V12.3334C13 12.8856 12.5523 13.3334 12 13.3334H11C10.4477 13.3334 10 12.8856 10 12.3334V6.00002C10 5.44774 10.4477 5.00002 11 5.00002ZM7.33333 7.33335H6.33333C5.78105 7.33335 5.33333 7.78107 5.33333 8.33335V12.3334C5.33333 12.8856 5.78105 13.3334 6.33333 13.3334H7.33333C7.88562 13.3334 8.33333 12.8856 8.33333 12.3334V8.33335C8.33333 7.78107 7.88562 7.33335 7.33333 7.33335ZM3.66666 10.3334C3.66666 9.78107 3.21895 9.33335 2.66666 9.33335H1.66666C1.11438 9.33335 0.666664 9.78107 0.666664 10.3334V12.3334C0.666664 12.8856 1.11438 13.3334 1.66666 13.3334H2.66666C3.21895 13.3334 3.66666 12.8856 3.66666 12.3334V10.3334Z" fill="black"/>
</svg>
