<svg width="68" height="16" viewBox="0 0 68 16" fill="none" xmlns="http://www.w3.org/2000/svg">
<rect opacity="0.35" x="43.5" y="2.83331" width="21" height="10.3333" rx="2.16667" stroke="black"/>
<path opacity="0.4" d="M66 6V10C66.8079 9.66122 67.3333 8.87313 67.3333 8C67.3333 7.12687 66.8079 6.33878 66 6Z" fill="black"/>
<rect x="45" y="4.33331" width="18" height="7.33333" rx="1.33333" fill="black"/>
<path fill-rule="evenodd" clip-rule="evenodd" d="M30.3337 4.57388C32.5584 4.57397 34.6981 5.41166 36.3105 6.91382C36.4319 7.02979 36.626 7.02833 36.7455 6.91054L37.9061 5.7627C37.9667 5.70296 38.0005 5.62204 38 5.53784C37.9995 5.45364 37.9647 5.37311 37.9035 5.31407C33.6716 1.33973 26.9952 1.33973 22.7633 5.31407C22.702 5.37307 22.6672 5.45357 22.6666 5.53777C22.6661 5.62197 22.6998 5.70292 22.7603 5.7627L23.9212 6.91054C24.0407 7.0285 24.2349 7.02997 24.3563 6.91382C25.9688 5.41157 28.1088 4.57387 30.3337 4.57388ZM30.3321 8.29943C31.5558 8.29936 32.7359 8.75596 33.643 9.58052C33.7657 9.69754 33.9589 9.695 34.0785 9.5748L35.2391 8.39764C35.3002 8.33589 35.3342 8.25213 35.3333 8.16509C35.3324 8.07805 35.2968 7.995 35.2344 7.93451C32.4722 5.35514 28.1944 5.35514 25.4321 7.93451C25.3697 7.995 25.3341 8.07809 25.3333 8.16516C25.3325 8.25223 25.3665 8.33598 25.4278 8.39764L26.588 9.5748C26.7076 9.695 26.9009 9.69754 27.0236 9.58052C27.9301 8.7565 29.1092 8.29994 30.3321 8.29943ZM32.6666 11.023C32.6683 11.1085 32.634 11.1909 32.5717 11.2507L30.557 13.2419C30.4979 13.3004 30.4174 13.3333 30.3334 13.3333C30.2494 13.3333 30.1688 13.3004 30.1098 13.2419L28.0947 11.2507C28.0324 11.1908 27.9982 11.1084 28 11.023C28.0019 10.9375 28.0396 10.8566 28.1044 10.7993C29.3911 9.73354 31.2756 9.73354 32.5623 10.7993C32.6271 10.8566 32.6648 10.9376 32.6666 11.023Z" fill="black"/>
<path fill-rule="evenodd" clip-rule="evenodd" d="M17.6666 3.66669C17.6666 3.1144 17.2189 2.66669 16.6666 2.66669H15.6666C15.1143 2.66669 14.6666 3.1144 14.6666 3.66669V12.3334C14.6666 12.8856 15.1143 13.3334 15.6666 13.3334H16.6666C17.2189 13.3334 17.6666 12.8856 17.6666 12.3334V3.66669ZM11 5.00002H12C12.5522 5.00002 13 5.44774 13 6.00002V12.3334C13 12.8856 12.5522 13.3334 12 13.3334H11C10.4477 13.3334 9.99996 12.8856 9.99996 12.3334V6.00002C9.99996 5.44774 10.4477 5.00002 11 5.00002ZM7.33329 7.33335H6.33329C5.78101 7.33335 5.33329 7.78107 5.33329 8.33335V12.3334C5.33329 12.8856 5.78101 13.3334 6.33329 13.3334H7.33329C7.88558 13.3334 8.33329 12.8856 8.33329 12.3334V8.33335C8.33329 7.78107 7.88558 7.33335 7.33329 7.33335ZM3.66663 10.3334C3.66663 9.78107 3.21891 9.33335 2.66663 9.33335H1.66663C1.11434 9.33335 0.666626 9.78107 0.666626 10.3334V12.3334C0.666626 12.8856 1.11434 13.3334 1.66663 13.3334H2.66663C3.21891 13.3334 3.66663 12.8856 3.66663 12.3334V10.3334Z" fill="black"/>
</svg>
