<svg width="95" height="72" viewBox="0 0 95 72" fill="none" xmlns="http://www.w3.org/2000/svg">
<g filter="url(#filter0_i_301_7184)">
<path d="M1.5882 47.5661C-0.123708 46.3337 -0.512441 43.9469 0.719944 42.235L0.968616 41.8895C2.06366 40.3684 4.1845 40.023 5.70563 41.118L12.2117 45.8017C12.4909 46.0027 12.8702 45.7507 12.7931 45.4154C11.3164 39.4228 10.9753 34.0047 11.7697 29.1611C12.5642 24.3174 14.5845 19.6409 17.8307 15.1315C22.6807 8.39446 29.0522 3.85974 36.9453 1.52737C42.9129 -0.236022 48.8646 -0.472488 54.8004 0.817974C57.7639 1.46225 58.8074 4.95202 57.0355 7.41332C55.8766 9.02325 53.8259 9.6739 51.8744 9.31806C47.3925 8.50086 42.9464 8.86323 38.5359 10.4052C33.0706 12.3158 28.6208 15.6564 25.1866 20.4269C22.6427 23.9607 21.0643 27.4809 20.4514 30.9876C19.8385 34.4944 19.9867 38.0058 20.896 41.5217C21.408 42.8395 23.1771 43.0648 24.0031 41.9175L26.9476 37.8273C28.173 36.1251 30.5463 35.7386 32.2484 36.964C33.9506 38.1894 34.3372 40.5626 33.1118 42.2648L24.5237 54.1946C21.9357 57.7895 16.9235 58.6058 13.3286 56.0179L1.5882 47.5661ZM39.7708 71.2233C36.7865 70.5972 35.7208 67.0896 37.5024 64.6149C38.6771 62.983 40.7649 62.3399 42.739 62.7218C47.2183 63.5883 51.6541 63.2322 56.0466 61.6536C61.5039 59.6924 65.9708 56.2971 69.4475 51.4677C71.313 48.8763 72.5782 45.7119 73.2432 41.9744C73.9082 38.2369 73.9918 34.5794 73.494 31.002C73.1896 29.6656 71.451 29.3132 70.6502 30.4256L67.8315 34.341C66.6153 36.0304 64.2361 36.3969 62.5467 35.1808C60.8308 33.9455 60.417 31.5357 61.6522 29.8198L70.2224 17.9149C72.8104 14.32 77.8226 13.5037 81.4175 16.0916L93.2076 24.5791C94.9195 25.8115 95.3082 28.1983 94.0758 29.9102C92.8434 31.6222 90.4566 32.0109 88.7447 30.7785L82.6056 26.3591C82.2385 26.0948 81.7326 26.3942 81.7877 26.8432C83.0348 32.8378 83.1579 38.4314 82.1568 43.6238C81.1557 48.8164 79.3712 53.1961 76.8033 56.7631C71.911 63.5591 65.5182 68.1233 57.6251 70.4556C51.6699 72.2154 45.7184 72.4713 39.7708 71.2233Z" fill="#FBBC05"/>
</g>
<defs>
<filter id="filter0_i_301_7184" x="0" y="0" width="94.7958" height="76.0102" filterUnits="userSpaceOnUse" color-interpolation-filters="sRGB">
<feFlood flood-opacity="0" result="BackgroundImageFix"/>
<feBlend mode="normal" in="SourceGraphic" in2="BackgroundImageFix" result="shape"/>
<feColorMatrix in="SourceAlpha" type="matrix" values="0 0 0 0 0 0 0 0 0 0 0 0 0 0 0 0 0 0 127 0" result="hardAlpha"/>
<feOffset dy="4"/>
<feGaussianBlur stdDeviation="2"/>
<feComposite in2="hardAlpha" operator="arithmetic" k2="-1" k3="1"/>
<feColorMatrix type="matrix" values="0 0 0 0 0 0 0 0 0 0 0 0 0 0 0 0 0 0 0.1 0"/>
<feBlend mode="normal" in2="shape" result="effect1_innerShadow_301_7184"/>
</filter>
</defs>
</svg>
