<svg width="22" height="27" viewBox="0 0 22 27" fill="none" xmlns="http://www.w3.org/2000/svg">
<path d="M14.6673 22.0012C14.6673 22.9737 14.281 23.9063 13.5933 24.594C12.9056 25.2817 11.973 25.668 11.0005 25.668C10.0279 25.668 9.09527 25.2817 8.4076 24.594C7.71993 23.9063 7.3336 22.9737 7.3336 22.0012M11.8817 4.89282L10.0899 4.88915C6.00253 4.87937 2.45424 8.20032 2.42612 12.2229V16.8553C2.42612 17.8209 2.30389 18.7633 1.77709 19.5664L1.42629 20.1017C0.892154 20.9133 1.46663 22.0012 2.42612 22.0012H19.5748C20.5343 22.0012 21.1075 20.9133 20.5746 20.1017L20.2238 19.5664C19.6982 18.7633 19.5748 17.8197 19.5748 16.8541V12.2241C19.5259 8.20032 15.9691 4.9026 11.8817 4.89282V4.89282Z" stroke="#001E3B" stroke-width="2.4" stroke-linecap="round" stroke-linejoin="round"/>
<path d="M11.0005 1.2223C11.6488 1.2223 12.2706 1.47985 12.729 1.9383C13.1875 2.39674 13.445 3.01853 13.445 3.66687V4.88916H8.5559V3.66687C8.5559 3.01853 8.81345 2.39674 9.2719 1.9383C9.73035 1.47985 10.3521 1.2223 11.0005 1.2223Z" stroke="#001E3B" stroke-width="2.4" stroke-linecap="round" stroke-linejoin="round"/>
</svg>
