<svg width="68" height="16" viewBox="0 0 68 16" fill="none" xmlns="http://www.w3.org/2000/svg">
<rect opacity="0.35" x="43.5" y="2.83331" width="21" height="10.3333" rx="2.16667" stroke="black"/>
<path opacity="0.4" d="M66 6V10C66.8079 9.66122 67.3333 8.87313 67.3333 8C67.3333 7.12687 66.8079 6.33878 66 6Z" fill="black"/>
<rect x="45" y="4.33331" width="18" height="7.33333" rx="1.33333" fill="black"/>
<path fill-rule="evenodd" clip-rule="evenodd" d="M30.3338 4.57388C32.5586 4.57397 34.6982 5.41166 36.3106 6.91382C36.432 7.02979 36.6261 7.02833 36.7457 6.91054L37.9063 5.7627C37.9668 5.70296 38.0006 5.62204 38.0001 5.53784C37.9996 5.45364 37.9649 5.37311 37.9036 5.31407C33.6717 1.33973 26.9953 1.33973 22.7634 5.31407C22.7021 5.37307 22.6673 5.45357 22.6668 5.53777C22.6662 5.62197 22.6999 5.70292 22.7604 5.7627L23.9213 6.91054C24.0408 7.0285 24.2351 7.02997 24.3564 6.91382C25.969 5.41157 28.1089 4.57387 30.3338 4.57388ZM30.3322 8.29943C31.556 8.29936 32.736 8.75596 33.6431 9.58052C33.7658 9.69754 33.9591 9.695 34.0787 9.5748L35.2392 8.39764C35.3004 8.33589 35.3343 8.25213 35.3334 8.16509C35.3325 8.07805 35.2969 7.995 35.2346 7.93451C32.4723 5.35514 28.1945 5.35514 25.4322 7.93451C25.3698 7.995 25.3342 8.07809 25.3334 8.16516C25.3326 8.25223 25.3666 8.33598 25.4279 8.39764L26.5881 9.5748C26.7077 9.695 26.901 9.69754 27.0237 9.58052C27.9302 8.7565 29.1093 8.29994 30.3322 8.29943ZM32.6667 11.023C32.6685 11.1085 32.6342 11.1909 32.5719 11.2507L30.5571 13.2419C30.498 13.3004 30.4175 13.3333 30.3335 13.3333C30.2495 13.3333 30.169 13.3004 30.1099 13.2419L28.0948 11.2507C28.0326 11.1908 27.9983 11.1084 28.0002 11.023C28.002 10.9375 28.0398 10.8566 28.1046 10.7993C29.3913 9.73354 31.2757 9.73354 32.5625 10.7993C32.6272 10.8566 32.6649 10.9376 32.6667 11.023Z" fill="black"/>
<path fill-rule="evenodd" clip-rule="evenodd" d="M17.6667 3.66669C17.6667 3.1144 17.219 2.66669 16.6667 2.66669H15.6667C15.1145 2.66669 14.6667 3.1144 14.6667 3.66669V12.3334C14.6667 12.8856 15.1145 13.3334 15.6667 13.3334H16.6667C17.219 13.3334 17.6667 12.8856 17.6667 12.3334V3.66669ZM11.0001 5.00002H12.0001C12.5524 5.00002 13.0001 5.44774 13.0001 6.00002V12.3334C13.0001 12.8856 12.5524 13.3334 12.0001 13.3334H11.0001C10.4478 13.3334 10.0001 12.8856 10.0001 12.3334V6.00002C10.0001 5.44774 10.4478 5.00002 11.0001 5.00002ZM7.33341 7.33335H6.33341C5.78113 7.33335 5.33341 7.78107 5.33341 8.33335V12.3334C5.33341 12.8856 5.78113 13.3334 6.33341 13.3334H7.33341C7.8857 13.3334 8.33341 12.8856 8.33341 12.3334V8.33335C8.33341 7.78107 7.8857 7.33335 7.33341 7.33335ZM3.66675 10.3334C3.66675 9.78107 3.21903 9.33335 2.66675 9.33335H1.66675C1.11446 9.33335 0.666748 9.78107 0.666748 10.3334V12.3334C0.666748 12.8856 1.11446 13.3334 1.66675 13.3334H2.66675C3.21903 13.3334 3.66675 12.8856 3.66675 12.3334V10.3334Z" fill="black"/>
</svg>
