<svg width="53" height="80" viewBox="0 0 53 80" fill="none" xmlns="http://www.w3.org/2000/svg">
<g filter="url(#filter0_i_301_7214)">
<path d="M47.1497 79.467C46.2161 79.9023 45.2631 80.0718 44.296 79.9725C42.7096 79.81 41.1632 78.8878 39.8245 77.3062C38.8838 76.195 38.3504 75.1183 38.3282 75.0729C38.1216 74.6523 38.1399 74.1552 38.3769 73.7469C38.6142 73.3385 39.0394 73.072 39.5111 73.0358C39.5343 73.0342 41.8744 72.8512 44.3702 72.4402C45.8155 72.2025 46.8759 71.9616 47.651 71.7426C46.6527 71.8335 45.4831 72.0003 44.2535 72.1755C41.967 72.5014 39.6029 72.8387 37.5861 72.8153C36.3905 72.8015 35.435 72.66 34.665 72.3832C33.3049 71.8941 32.7269 71.0371 32.4818 70.4042C32.478 70.3945 32.4743 70.3848 32.4707 70.3747C32.2889 69.8727 32.3482 69.3218 32.6332 68.8635C33.3779 67.6653 35.2428 67.339 40.8181 66.6416C42.8277 66.3902 44.9058 66.1305 46.616 65.794C46.9941 65.7195 47.3252 65.6467 47.6154 65.5767C47.4226 65.5835 47.2124 65.5937 46.9841 65.6083C45.4266 65.7079 43.5577 65.9609 41.5793 66.2288C39.1817 66.5533 36.7026 66.889 34.7217 66.9425C32.7879 66.9947 30.4762 66.836 29.7588 65.1308C29.4974 64.5094 29.5387 63.8503 29.8752 63.2743C30.4258 62.3312 31.6601 61.7365 34.1358 61.2206C35.9045 60.852 38.1435 60.5611 40.3089 60.2795C42.2794 60.0235 44.317 59.7586 45.9314 59.4432C46.7035 59.2924 47.2683 59.1501 47.68 59.026C47.3765 59.0122 46.9838 59.0145 46.4787 59.0481C45.1324 59.1379 43.436 59.4108 41.6398 59.6996C38.0126 60.2827 33.901 60.9437 30.712 60.4259C28.7888 60.1134 27.3606 59.4439 26.2172 58.3188C25.2135 57.331 24.5483 56.0988 23.8435 54.7938C22.6097 52.5087 21.0765 49.6694 16.9286 46.6245C12.1 44.2675 8.20158 41.3292 5.34015 37.89C2.59376 34.5887 0.884901 30.9413 0.261232 27.0484C-0.310699 23.4786 0.0574892 19.8838 1.3558 16.3641C2.64631 12.8661 4.78774 9.62966 7.72136 6.74415C7.72261 6.74283 7.7237 6.74195 7.72495 6.74063C9.01973 5.47568 10.7067 4.26255 12.6032 3.23217C14.778 2.05025 17.0922 1.17453 19.4815 0.629494C25.4599 -0.73478 31.3814 0.127782 36.6059 3.12493C36.6099 3.12712 36.6136 3.12945 36.6173 3.13178C39.7641 4.97668 42.2919 7.15518 44.13 9.60691C45.8552 11.9076 47.019 14.5085 47.5894 17.3369C48.563 22.1652 47.8746 27.6846 45.4841 34.2109C45.4495 34.3178 45.0689 35.5388 44.9389 37.8001C44.8134 39.9822 44.9024 43.6033 46.0372 48.4682C46.1087 48.7618 46.5678 50.8695 45.5376 52.738C44.5367 54.715 42.2239 56.0099 39.4839 56.1285C39.2307 56.1532 38.5499 56.1883 37.7374 55.9716C36.4185 55.6198 35.397 54.785 34.7832 53.5576C34.7811 53.553 34.779 53.5485 34.777 53.5442C34.7314 53.4504 30.1832 44.1033 28.4503 40.3867C27.9788 39.3756 25.9664 38.8884 24.1908 38.4584C23.162 38.2093 22.0984 37.9518 21.2059 37.5724C20.2321 37.1585 19.4582 36.3873 19.0266 35.4007C18.6369 34.5098 18.5719 33.525 18.853 32.7662C18.8626 32.7403 18.8732 32.7143 18.8842 32.689C19.502 31.2817 20.5119 30.906 21.2502 30.8389C22.0165 30.7691 22.7099 31.0067 23.3214 31.216C23.4622 31.264 23.6404 31.3252 23.7987 31.3717C23.7732 31.1097 23.715 30.776 23.6745 30.5418C23.5413 29.7773 23.3905 28.9111 23.5486 28.0503C23.77 26.8449 24.5357 25.975 25.7627 25.5342C26.8586 25.141 27.9153 25.2693 28.8183 25.9058C29.4742 26.3679 29.9327 27.0183 30.3011 27.541C30.334 27.5876 30.3703 27.6389 30.4082 27.6921C30.5141 27.4214 30.617 27.1081 30.6871 26.8935C30.8871 26.2825 31.0943 25.6509 31.4239 25.1001C32.096 23.9775 32.991 23.7133 33.6234 23.6894C33.6274 23.6893 33.6315 23.6893 33.6355 23.6889C34.8675 23.6528 35.9199 24.1639 36.5981 25.1285C38.2207 27.4357 37.3102 31.727 36.7826 33.0763C35.7043 36.1 32.8171 38.1894 32.6945 38.2772C32.0541 38.7352 31.1652 38.5939 30.7093 37.9619C30.2542 37.3309 30.4032 36.4489 31.0416 35.9904C31.0644 35.9738 33.338 34.3137 34.1053 32.1376C34.1118 32.1194 34.1186 32.1011 34.1259 32.0833C34.6064 30.8796 34.9934 27.8036 34.2591 26.7597C34.1658 26.6268 34.0677 26.5437 33.8699 26.5197C33.7084 26.7858 33.5082 27.3961 33.3938 27.7458C33.0384 28.8303 32.6023 30.1613 31.4265 30.7095C31.3367 30.7514 31.2424 30.7887 31.1434 30.8212C30.6964 30.9673 29.8136 31.0977 28.9269 30.3303C28.5456 30 28.2497 29.5808 27.9634 29.1748C27.1567 28.0307 27.0259 28.0777 26.7097 28.1912C26.3906 28.3056 26.3742 28.3963 26.349 28.5335C26.2817 28.8999 26.3868 29.504 26.4797 30.0371C26.5702 30.5561 26.6636 31.0927 26.6559 31.6198C26.6438 32.4616 26.3677 33.1335 25.8346 33.6175C25.4548 33.9621 24.7916 34.3522 23.7889 34.2511C23.2786 34.1997 22.7967 34.0347 22.3716 33.8891C22.1352 33.8081 21.7621 33.6803 21.5649 33.6567C21.5537 33.6752 21.5404 33.6987 21.5259 33.7276C21.4982 33.9653 21.6715 34.6874 22.3449 34.9734C23.0222 35.2613 23.9285 35.4808 24.8878 35.7128C27.2816 36.2926 29.9946 36.9494 31.0354 39.1817C32.7372 42.8317 37.1853 51.9745 37.3386 52.2897C37.5901 52.7898 37.9698 53.1013 38.4988 53.2425C38.8808 53.3444 39.2108 53.319 39.2138 53.3183C39.2584 53.3123 39.3031 53.3088 39.3482 53.307C41.0461 53.2429 42.4806 52.5235 43.0026 51.4735C43.0129 51.4525 43.0242 51.4317 43.0357 51.4108C43.475 50.6278 43.3542 49.5218 43.2689 49.1538C43.2667 49.1452 43.2675 49.1486 43.2647 49.137C40.8842 38.9408 42.7167 33.5271 42.7959 33.3016C42.7979 33.2955 42.8002 33.2893 42.8027 33.2833C47.5846 20.2406 45.1556 11.435 35.1585 5.57169C24.9685 -0.269158 14.1435 4.41911 9.71234 8.74714C4.49898 13.8768 2.07863 20.3768 3.07269 26.5811C4.21229 33.6931 9.62378 39.9284 18.3106 44.1392C18.3858 44.1757 18.4574 44.2187 18.525 44.2676C23.2621 47.7142 25.0498 51.0248 26.355 53.4421C27.6981 55.9297 28.3725 57.1784 31.195 57.6369C33.9276 58.0804 37.7956 57.4589 41.2081 56.9101C45.6363 56.1982 48.8357 55.6839 50.4698 57.016C51.0616 57.4984 51.3887 58.1717 51.4153 58.963C51.4368 59.6023 51.1822 60.5092 49.8471 61.2C49.2514 61.5077 48.4363 61.7785 47.3547 62.0267C45.5002 62.4523 43.0363 62.7724 40.6538 63.0822C38.6921 63.337 36.6639 63.6008 35.0582 63.9137C34.688 63.9859 34.3654 64.0563 34.0847 64.1233C34.4185 64.126 34.8114 64.1177 35.2731 64.0928C37.0047 63.9994 39.147 63.7091 41.2185 63.4288C43.6399 63.1008 45.927 62.7913 47.7573 62.7453C48.8379 62.7182 49.6753 62.789 50.317 62.9613C51.7923 63.3579 52.1798 64.2938 52.2798 64.8166C52.393 65.4092 52.2509 66.0138 51.8794 66.5187C50.6578 68.1798 47.0063 68.7134 41.1495 69.4457C39.7243 69.6239 38.3716 69.793 37.2408 69.9782C37.3685 69.9839 37.5033 69.9879 37.6444 69.9896C39.4408 70.0103 41.6941 69.6892 43.8728 69.3785C45.6567 69.1242 47.3416 68.884 48.6773 68.8501C49.5019 68.8294 50.1265 68.8866 50.6429 69.0303C51.8256 69.3597 52.2177 70.1237 52.3462 70.5498C52.5437 71.2048 52.4287 71.8876 52.0231 72.4723C51.7486 72.8674 51.2984 73.3172 50.3176 73.7745C49.2706 74.2627 47.6195 74.7595 44.9312 75.2085C43.9252 75.3764 42.9501 75.5082 42.1198 75.6079C42.7942 76.3698 43.6681 77.0672 44.6178 77.162C45.757 77.2758 47.0044 76.4975 48.3255 74.8487C48.8169 74.2351 49.7129 74.1291 50.3265 74.6117C50.94 75.0942 51.0392 75.9826 50.5477 76.5959C49.4515 77.9642 48.3153 78.9232 47.1487 79.4671L47.1497 79.467Z" fill="#FBBC05"/>
</g>
<defs>
<filter id="filter0_i_301_7214" x="0" y="0" width="52.4404" height="84.0179" filterUnits="userSpaceOnUse" color-interpolation-filters="sRGB">
<feFlood flood-opacity="0" result="BackgroundImageFix"/>
<feBlend mode="normal" in="SourceGraphic" in2="BackgroundImageFix" result="shape"/>
<feColorMatrix in="SourceAlpha" type="matrix" values="0 0 0 0 0 0 0 0 0 0 0 0 0 0 0 0 0 0 127 0" result="hardAlpha"/>
<feOffset dy="4"/>
<feGaussianBlur stdDeviation="2"/>
<feComposite in2="hardAlpha" operator="arithmetic" k2="-1" k3="1"/>
<feColorMatrix type="matrix" values="0 0 0 0 0 0 0 0 0 0 0 0 0 0 0 0 0 0 0.1 0"/>
<feBlend mode="normal" in2="shape" result="effect1_innerShadow_301_7214"/>
</filter>
</defs>
</svg>
