<svg width="22" height="27" viewBox="0 0 22 27" fill="none" xmlns="http://www.w3.org/2000/svg">
<path d="M14.6673 22.0013C14.6673 22.9738 14.2809 23.9065 13.5933 24.5942C12.9056 25.2818 11.9729 25.6682 11.0004 25.6682C10.0279 25.6682 9.09519 25.2818 8.40752 24.5942C7.71985 23.9065 7.33352 22.9738 7.33352 22.0013M11.8817 4.89285L10.0898 4.88918C6.00244 4.8794 2.45413 8.20037 2.42601 12.2229V16.8554C2.42601 17.821 2.30378 18.7634 1.77698 19.5665L1.42618 20.1018C0.892035 20.9134 1.46651 22.0013 2.42601 22.0013H19.5748C20.5343 22.0013 21.1075 20.9134 20.5746 20.1018L20.2238 19.5665C19.6982 18.7634 19.5748 17.8198 19.5748 16.8542V12.2242C19.5259 8.20037 15.969 4.90262 11.8817 4.89285V4.89285Z" stroke="#001E3B" stroke-width="2.4" stroke-linecap="round" stroke-linejoin="round"/>
<path d="M11.0004 1.22231C11.6488 1.22231 12.2705 1.47986 12.729 1.93831C13.1874 2.39676 13.445 3.01855 13.445 3.66689V4.88918H8.55582V3.66689C8.55582 3.01855 8.81338 2.39676 9.27183 1.93831C9.73028 1.47986 10.3521 1.22231 11.0004 1.22231Z" stroke="#001E3B" stroke-width="2.4" stroke-linecap="round" stroke-linejoin="round"/>
</svg>
