<svg width="35" height="33" viewBox="0 0 35 33" fill="none" xmlns="http://www.w3.org/2000/svg">
<path d="M17.2388 0C13.8293 0 10.4964 0.967708 7.66144 2.78075C4.82654 4.59379 2.617 7.17074 1.31223 10.1857C0.00746933 13.2007 -0.333916 16.5183 0.331247 19.719C0.99641 22.9197 2.63825 25.8597 5.04914 28.1673C7.46003 30.4748 10.5317 32.0463 13.8757 32.6829C17.2197 33.3196 20.6858 32.9929 23.8358 31.744C26.9858 30.4952 29.6781 28.3803 31.5723 25.6669C33.4666 22.9535 34.4776 19.7634 34.4776 16.5C34.4732 12.1252 32.6556 7.93082 29.4236 4.83738C26.1917 1.74394 21.8095 0.00420047 17.2388 0Z" fill="#001E3B"/>
<path d="M17.2388 0C13.8293 0 10.4964 0.967708 7.66144 2.78075C4.82654 4.59379 2.617 7.17074 1.31223 10.1857C0.00746921 13.2007 -0.333916 16.5183 0.331247 19.719C0.99641 22.9197 2.63825 25.8597 5.04914 28.1673C7.46003 30.4748 10.5317 32.0463 13.8757 32.6829C17.2197 33.3196 20.6858 32.9929 23.8358 31.744C26.9858 30.4952 29.6781 28.3803 31.5723 25.6669C33.4666 22.9535 34.4776 19.7634 34.4776 16.5C34.4732 12.1252 32.6556 7.93082 29.4236 4.83738C26.1917 1.74394 21.8095 0.00420047 17.2388 0ZM23.8691 17.7692H18.5649V22.8461C18.5649 23.1828 18.4252 23.5056 18.1765 23.7436C17.9278 23.9817 17.5905 24.1154 17.2388 24.1154C16.8871 24.1154 16.5498 23.9817 16.3011 23.7436C16.0525 23.5056 15.9127 23.1828 15.9127 22.8461V17.7692H10.6085C10.2568 17.7692 9.91952 17.6355 9.67083 17.3975C9.42215 17.1595 9.28244 16.8366 9.28244 16.5C9.28244 16.1634 9.42215 15.8405 9.67083 15.6025C9.91952 15.3645 10.2568 15.2308 10.6085 15.2308H15.9127V10.1538C15.9127 9.81722 16.0525 9.49439 16.3011 9.25636C16.5498 9.01834 16.8871 8.88461 17.2388 8.88461C17.5905 8.88461 17.9278 9.01834 18.1765 9.25636C18.4252 9.49439 18.5649 9.81722 18.5649 10.1538V15.2308H23.8691C24.2208 15.2308 24.5581 15.3645 24.8068 15.6025C25.0555 15.8405 25.1952 16.1634 25.1952 16.5C25.1952 16.8366 25.0555 17.1595 24.8068 17.3975C24.5581 17.6355 24.2208 17.7692 23.8691 17.7692Z" fill="#FBBC05"/>
</svg>
