<svg width="42" height="42" viewBox="0 0 42 42" fill="none" xmlns="http://www.w3.org/2000/svg">
<circle cx="21" cy="21" r="21" fill="#FBBC05"/>
<path d="M20.507 23.9449C19.6425 23.9449 18.9236 23.6121 18.3503 22.9465C17.7771 22.281 17.4904 21.4814 17.4904 20.5478V14.2169C17.4904 13.3376 17.7806 12.5816 18.3609 11.949C18.9411 11.3163 19.6537 11 20.4986 11C21.3435 11 22.0605 11.3163 22.6497 11.949C23.2389 12.5816 23.5334 13.3376 23.5334 14.2169V20.5478C23.5334 21.4814 23.2452 22.281 22.6686 22.9465C22.0921 23.6121 21.3716 23.9449 20.507 23.9449ZM19.5685 32V28.3971C17.6736 28.1912 16.1051 27.3461 14.8631 25.8619C13.621 24.3777 13 22.6063 13 20.5478H14.9108C14.9108 22.1949 15.4566 23.5931 16.5483 24.7426C17.6399 25.8922 18.9601 26.4669 20.509 26.4669C22.0578 26.4669 23.375 25.8909 24.4607 24.739C25.5463 23.587 26.0892 22.19 26.0892 20.5478H28C28 22.6064 27.379 24.3778 26.1369 25.862C24.8949 27.3461 23.3344 28.1903 21.4554 28.3944V32H19.5685Z" fill="#001E3B"/>
</svg>
