<svg width="74" height="112" viewBox="0 0 74 112" fill="none" xmlns="http://www.w3.org/2000/svg">
<g filter="url(#filter0_i_127_237)">
<path d="M66.2683 111.171C64.9631 111.779 63.6308 112.016 62.2789 111.877C60.0612 111.65 57.8994 110.361 56.0279 108.15C54.7129 106.597 53.9672 105.091 53.9361 105.028C53.6473 104.44 53.6729 103.745 54.0043 103.174C54.336 102.603 54.9304 102.231 55.5898 102.18C55.6222 102.178 58.8936 101.922 62.3826 101.348C64.4031 101.015 65.8855 100.679 66.969 100.372C65.5735 100.5 63.9384 100.733 62.2195 100.978C59.023 101.433 55.7181 101.905 52.8987 101.872C51.2273 101.853 49.8916 101.655 48.8152 101.268C46.9139 100.584 46.1058 99.3862 45.7632 98.5013C45.7579 98.4878 45.7526 98.4743 45.7476 98.4601C45.4935 97.7584 45.5764 96.9883 45.9747 96.3476C47.0159 94.6726 49.6229 94.2163 57.417 93.2415C60.2263 92.89 63.1314 92.5269 65.5221 92.0565C66.0507 91.9524 66.5136 91.8506 66.9193 91.7527C66.6498 91.7623 66.3559 91.7766 66.0367 91.797C63.8595 91.9362 61.2468 92.2899 58.4811 92.6643C55.1293 93.1181 51.6636 93.5873 48.8944 93.6621C46.1911 93.7351 42.9595 93.5133 41.9565 91.1294C41.5911 90.2608 41.6489 89.3394 42.1192 88.5341C42.8889 87.2158 44.6145 86.3844 48.0753 85.6631C50.5479 85.1478 53.678 84.7412 56.7051 84.3476C59.4597 83.9896 62.3083 83.6194 64.5651 83.1784C65.6445 82.9676 66.4341 82.7686 67.0096 82.5952C66.5853 82.5759 66.0363 82.5791 65.3303 82.6261C63.4482 82.7515 61.0766 83.1331 58.5656 83.5368C53.495 84.352 47.7472 85.276 43.289 84.5521C40.6005 84.1153 38.604 83.1793 37.0055 81.6065C35.6024 80.2257 34.6725 78.5031 33.6872 76.6788C31.9624 73.4842 29.819 69.515 24.0205 65.2584C17.2703 61.9634 11.8205 57.8558 7.8203 53.048C3.98097 48.4329 1.59205 43.334 0.720191 37.8919C-0.0793449 32.9015 0.435367 27.876 2.25034 22.9556C4.05443 18.0656 7.04806 13.5412 11.1491 9.50739C11.1509 9.50554 11.1524 9.50432 11.1541 9.50247C12.9642 7.73413 15.3225 6.03822 17.9737 4.5978C21.014 2.94552 24.2492 1.7213 27.5893 0.959367C35.9468 -0.947828 44.2249 0.257996 51.5284 4.44787C51.5341 4.45093 51.5392 4.45419 51.5444 4.45746C55.9435 7.03654 59.4772 10.082 62.0469 13.5094C64.4586 16.7257 66.0856 20.3616 66.883 24.3156C68.244 31.0653 67.2816 38.7812 63.9398 47.9047C63.8915 48.0541 63.3594 49.761 63.1777 52.9223C63.0022 55.9727 63.1266 61.0349 64.713 67.8359C64.813 68.2463 65.4547 71.1927 64.0146 73.8048C62.6154 76.5685 59.3822 78.3789 55.5517 78.5446C55.1979 78.5791 54.2461 78.6283 53.1103 78.3253C51.2665 77.8334 49.8385 76.6665 48.9805 74.9506C48.9775 74.9442 48.9745 74.9378 48.9718 74.9319C48.908 74.8007 42.5499 61.7339 40.1273 56.5382C39.4682 55.1247 36.6549 54.4437 34.1727 53.8426C32.7345 53.4944 31.2475 53.1343 29.9999 52.6039C28.6386 52.0254 27.5567 50.9472 26.9533 49.5681C26.4086 48.3225 26.3177 46.9458 26.7107 45.8851C26.7241 45.849 26.739 45.8126 26.7543 45.7771C27.6179 43.8099 29.0297 43.2847 30.0619 43.1908C31.1331 43.0932 32.1024 43.4253 32.9574 43.7179C33.1541 43.7851 33.4032 43.8706 33.6245 43.9356C33.5889 43.5694 33.5076 43.1029 33.4509 42.7754C33.2647 41.7068 33.0538 40.4959 33.2749 39.2925C33.5845 37.6074 34.6548 36.3913 36.3702 35.7751C37.9021 35.2254 39.3794 35.4047 40.6417 36.2946C41.5586 36.9405 42.1997 37.8497 42.7146 38.5804C42.7607 38.6456 42.8114 38.7174 42.8643 38.7918C43.0124 38.4132 43.1562 37.9753 43.2542 37.6753C43.5338 36.8212 43.8234 35.9382 44.2842 35.1683C45.2238 33.5989 46.4751 33.2296 47.359 33.1961C47.3647 33.196 47.3704 33.1959 47.3759 33.1954C49.0983 33.1449 50.5695 33.8595 51.5176 35.2079C53.7859 38.4333 52.513 44.4323 51.7754 46.3186C50.268 50.5457 46.2319 53.4665 46.0606 53.5892C45.1652 54.2295 43.9226 54.032 43.2852 53.1484C42.649 52.2664 42.8574 51.0334 43.7498 50.3924C43.7817 50.3692 46.9601 48.0485 48.0328 45.0063C48.0418 44.9809 48.0513 44.9553 48.0616 44.9304C48.7333 43.2477 49.2742 38.9476 48.2478 37.4882C48.1173 37.3025 47.9802 37.1864 47.7037 37.1528C47.478 37.5248 47.198 38.378 47.0382 38.8667C46.5413 40.3829 45.9316 42.2435 44.2879 43.0099C44.1623 43.0685 44.0306 43.1206 43.8921 43.1661C43.2672 43.3703 42.0331 43.5526 40.7936 42.4799C40.2605 42.0181 39.8469 41.4321 39.4466 40.8645C38.3189 39.2651 38.1361 39.3307 37.694 39.4894C37.2479 39.6494 37.225 39.7761 37.1898 39.968C37.0957 40.4802 37.2426 41.3247 37.3725 42.0699C37.499 42.7955 37.6295 43.5456 37.6189 44.2825C37.6019 45.4593 37.216 46.3986 36.4706 47.0752C35.9397 47.557 35.0126 48.1022 33.6109 47.9609C32.8975 47.8891 32.2238 47.6585 31.6295 47.4548C31.2991 47.3416 30.7775 47.1629 30.5018 47.13C30.4861 47.1558 30.4676 47.1888 30.4473 47.2292C30.4086 47.5614 30.6508 48.5709 31.5922 48.9707C32.5391 49.3731 33.8061 49.68 35.147 50.0044C38.4934 50.8149 42.2861 51.733 43.7412 54.8537C46.1203 59.9562 52.3385 72.7375 52.5528 73.1781C52.9043 73.8772 53.4351 74.3127 54.1746 74.5101C54.7086 74.6526 55.17 74.617 55.1743 74.6161C55.2366 74.6076 55.299 74.6028 55.362 74.6002C57.7357 74.5107 59.7411 73.505 60.4708 72.0371C60.4852 72.0077 60.5009 71.9787 60.5171 71.9495C61.1312 70.8549 60.9623 69.3087 60.843 68.7943C60.84 68.7823 60.8411 68.7869 60.8372 68.7707C57.5094 54.517 60.071 46.9488 60.1818 46.6336C60.1846 46.625 60.1879 46.6163 60.1913 46.608C66.8763 28.3748 63.4806 16.065 49.5051 7.86834C35.2599 -0.296909 20.127 6.25709 13.9324 12.3075C6.64438 19.4785 3.26083 28.5652 4.65048 37.2385C6.2436 47.1809 13.8086 55.8976 25.9524 61.7841C26.0576 61.8351 26.1576 61.8952 26.2521 61.9636C32.8744 66.7817 35.3736 71.4098 37.1981 74.789C39.0758 78.2667 40.0186 80.0123 43.9643 80.6532C47.7844 81.2733 53.1916 80.4044 57.9621 79.6373C64.1526 78.642 68.6252 77.9231 70.9096 79.7853C71.737 80.4596 72.1941 81.4009 72.2314 82.507C72.2615 83.4009 71.9056 84.6687 70.039 85.6344C69.2064 86.0644 68.0669 86.443 66.5548 86.79C63.9623 87.385 60.5178 87.8324 57.1872 88.2655C54.4448 88.6218 51.6096 88.9905 49.3648 89.428C48.8473 89.529 48.3964 89.6273 48.0039 89.721C48.4705 89.7247 49.0198 89.7131 49.6652 89.6784C52.086 89.5478 55.0808 89.1419 57.9767 88.7501C61.3618 88.2916 64.559 87.8589 67.1176 87.7945C68.6283 87.7566 69.7989 87.8556 70.6961 88.0966C72.7584 88.651 73.3001 89.9594 73.4399 90.6901C73.5982 91.5186 73.3995 92.3638 72.8802 93.0697C71.1724 95.3918 66.0679 96.1377 57.8802 97.1615C55.8878 97.4106 53.9969 97.6469 52.416 97.9058C52.5946 97.9139 52.7829 97.9194 52.9803 97.9218C55.4916 97.9508 58.6416 97.5018 61.6873 97.0675C64.1811 96.712 66.5365 96.3762 68.4038 96.3288C69.5566 96.3 70.4297 96.3798 71.1517 96.5807C72.8049 97.0412 73.353 98.1093 73.5327 98.7049C73.8089 99.6207 73.6481 100.575 73.0811 101.393C72.6974 101.945 72.068 102.574 70.6968 103.213C69.2331 103.895 66.925 104.59 63.1669 105.218C61.7606 105.452 60.3974 105.637 59.2367 105.776C60.1795 106.841 61.4011 107.816 62.7287 107.949C64.3214 108.108 66.0651 107.02 67.9119 104.715C68.5989 103.857 69.8515 103.709 70.7092 104.383C71.567 105.058 71.7056 106.3 71.0185 107.157C69.4861 109.07 67.8977 110.411 66.2668 111.171L66.2683 111.171Z" fill="#FBBC05"/>
</g>
<defs>
<filter id="filter0_i_127_237" x="0.35498" y="0.0793457" width="73.3096" height="115.837" filterUnits="userSpaceOnUse" color-interpolation-filters="sRGB">
<feFlood flood-opacity="0" result="BackgroundImageFix"/>
<feBlend mode="normal" in="SourceGraphic" in2="BackgroundImageFix" result="shape"/>
<feColorMatrix in="SourceAlpha" type="matrix" values="0 0 0 0 0 0 0 0 0 0 0 0 0 0 0 0 0 0 127 0" result="hardAlpha"/>
<feOffset dy="4"/>
<feGaussianBlur stdDeviation="2"/>
<feComposite in2="hardAlpha" operator="arithmetic" k2="-1" k3="1"/>
<feColorMatrix type="matrix" values="0 0 0 0 0 0 0 0 0 0 0 0 0 0 0 0 0 0 0.1 0"/>
<feBlend mode="normal" in2="shape" result="effect1_innerShadow_127_237"/>
</filter>
</defs>
</svg>
