<svg width="22" height="27" viewBox="0 0 22 27" fill="none" xmlns="http://www.w3.org/2000/svg">
<path d="M14.6672 22.0012C14.6672 22.9737 14.2809 23.9064 13.5932 24.594C12.9056 25.2817 11.9729 25.668 11.0004 25.668C10.0279 25.668 9.09519 25.2817 8.40752 24.594C7.71985 23.9064 7.33352 22.9737 7.33352 22.0012M11.8817 4.89283L10.0898 4.88916C6.00245 4.87938 2.45415 8.20034 2.42603 12.2229V16.8554C2.42603 17.821 2.3038 18.7633 1.777 19.5664L1.4262 20.1017C0.892062 20.9133 1.46654 22.0012 2.42603 22.0012H19.5747C20.5342 22.0012 21.1075 20.9133 20.5746 20.1017L20.2238 19.5664C19.6982 18.7633 19.5747 17.8197 19.5747 16.8541V12.2241C19.5258 8.20034 15.969 4.9026 11.8817 4.89283V4.89283Z" stroke="#001E3B" stroke-width="2.4" stroke-linecap="round" stroke-linejoin="round"/>
<path d="M11.0004 1.2223C11.6487 1.2223 12.2705 1.47985 12.729 1.9383C13.1874 2.39675 13.445 3.01853 13.445 3.66687V4.88916H8.55582V3.66687C8.55582 3.01853 8.81337 2.39675 9.27182 1.9383C9.73027 1.47985 10.3521 1.2223 11.0004 1.2223Z" stroke="#001E3B" stroke-width="2.4" stroke-linecap="round" stroke-linejoin="round"/>
</svg>
