<svg width="298" height="77" viewBox="0 0 298 77" fill="none" xmlns="http://www.w3.org/2000/svg">
<path d="M130.486 66.2059C130.486 65.3045 130.413 64.6468 130.255 63.9647H119.962V68.0329H126.004C125.882 69.0439 125.224 70.5664 123.762 71.5895L123.742 71.7257L126.996 74.2467L127.222 74.2692C129.292 72.3569 130.486 69.5432 130.486 66.2059Z" fill="#4285F4"/>
<path d="M119.962 76.9244C122.922 76.9244 125.407 75.9499 127.222 74.2691L123.762 71.5894C122.837 72.2349 121.594 72.6856 119.962 72.6856C117.063 72.6856 114.603 70.7734 113.726 68.1302L113.597 68.1412L110.214 70.7599L110.169 70.8829C111.972 74.4639 115.675 76.9244 119.962 76.9244Z" fill="#34A853"/>
<path d="M113.726 68.1303C113.494 67.4482 113.361 66.7174 113.361 65.9622C113.361 65.207 113.494 64.4762 113.714 63.7941L113.708 63.6489L110.281 60.988L110.169 61.0414C109.426 62.5274 109 64.1961 109 65.9622C109 67.7283 109.426 69.397 110.169 70.883L113.726 68.1303Z" fill="#FBBC05"/>
<path d="M119.962 59.2387C122.021 59.2387 123.409 60.1278 124.201 60.8709L127.295 57.8502C125.395 56.084 122.922 55 119.962 55C115.675 55 111.972 57.4604 110.169 61.0414L113.714 63.7941C114.603 61.151 117.063 59.2387 119.962 59.2387Z" fill="#EB4335"/>
<path d="M144.092 64.07C143.84 63.5847 143.49 63.2207 143.042 62.978C142.594 62.726 142.076 62.6 141.488 62.6C140.844 62.6 140.27 62.7447 139.766 63.034C139.262 63.3233 138.865 63.734 138.576 64.266C138.296 64.798 138.156 65.414 138.156 66.114C138.156 66.814 138.296 67.4347 138.576 67.976C138.865 68.508 139.262 68.9187 139.766 69.208C140.27 69.4973 140.844 69.642 141.488 69.642C142.356 69.642 143.061 69.3993 143.602 68.914C144.143 68.4287 144.475 67.7707 144.596 66.94H140.942V65.666H146.304V66.912C146.201 67.668 145.931 68.3633 145.492 68.998C145.063 69.6327 144.498 70.1413 143.798 70.524C143.107 70.8973 142.337 71.084 141.488 71.084C140.573 71.084 139.738 70.874 138.982 70.454C138.226 70.0247 137.624 69.432 137.176 68.676C136.737 67.92 136.518 67.066 136.518 66.114C136.518 65.162 136.737 64.308 137.176 63.552C137.624 62.796 138.226 62.208 138.982 61.788C139.747 61.3587 140.583 61.144 141.488 61.144C142.524 61.144 143.443 61.4007 144.246 61.914C145.058 62.418 145.646 63.1367 146.01 64.07H144.092ZM151.224 71.126C150.496 71.126 149.838 70.9627 149.25 70.636C148.662 70.3 148.2 69.8333 147.864 69.236C147.528 68.6293 147.36 67.9293 147.36 67.136C147.36 66.352 147.533 65.6567 147.878 65.05C148.223 64.4433 148.695 63.9767 149.292 63.65C149.889 63.3233 150.557 63.16 151.294 63.16C152.031 63.16 152.699 63.3233 153.296 63.65C153.893 63.9767 154.365 64.4433 154.71 65.05C155.055 65.6567 155.228 66.352 155.228 67.136C155.228 67.92 155.051 68.6153 154.696 69.222C154.341 69.8287 153.856 70.3 153.24 70.636C152.633 70.9627 151.961 71.126 151.224 71.126ZM151.224 69.74C151.635 69.74 152.017 69.642 152.372 69.446C152.736 69.25 153.03 68.956 153.254 68.564C153.478 68.172 153.59 67.696 153.59 67.136C153.59 66.576 153.483 66.1047 153.268 65.722C153.053 65.33 152.769 65.036 152.414 64.84C152.059 64.644 151.677 64.546 151.266 64.546C150.855 64.546 150.473 64.644 150.118 64.84C149.773 65.036 149.497 65.33 149.292 65.722C149.087 66.1047 148.984 66.576 148.984 67.136C148.984 67.9667 149.194 68.6107 149.614 69.068C150.043 69.516 150.58 69.74 151.224 69.74ZM160.152 71.126C159.424 71.126 158.766 70.9627 158.178 70.636C157.59 70.3 157.128 69.8333 156.792 69.236C156.456 68.6293 156.288 67.9293 156.288 67.136C156.288 66.352 156.461 65.6567 156.806 65.05C157.151 64.4433 157.623 63.9767 158.22 63.65C158.817 63.3233 159.485 63.16 160.222 63.16C160.959 63.16 161.627 63.3233 162.224 63.65C162.821 63.9767 163.293 64.4433 163.638 65.05C163.983 65.6567 164.156 66.352 164.156 67.136C164.156 67.92 163.979 68.6153 163.624 69.222C163.269 69.8287 162.784 70.3 162.168 70.636C161.561 70.9627 160.889 71.126 160.152 71.126ZM160.152 69.74C160.563 69.74 160.945 69.642 161.3 69.446C161.664 69.25 161.958 68.956 162.182 68.564C162.406 68.172 162.518 67.696 162.518 67.136C162.518 66.576 162.411 66.1047 162.196 65.722C161.981 65.33 161.697 65.036 161.342 64.84C160.987 64.644 160.605 64.546 160.194 64.546C159.783 64.546 159.401 64.644 159.046 64.84C158.701 65.036 158.425 65.33 158.22 65.722C158.015 66.1047 157.912 66.576 157.912 67.136C157.912 67.9667 158.122 68.6107 158.542 69.068C158.971 69.516 159.508 69.74 160.152 69.74ZM168.842 63.16C169.439 63.16 169.966 63.2813 170.424 63.524C170.89 63.7573 171.254 64.0513 171.516 64.406V63.286H173.126V71.126C173.126 71.8353 172.976 72.4653 172.678 73.016C172.379 73.576 171.945 74.0147 171.376 74.332C170.816 74.6493 170.144 74.808 169.36 74.808C168.314 74.808 167.446 74.5607 166.756 74.066C166.065 73.5807 165.673 72.918 165.58 72.078H167.162C167.283 72.4793 167.54 72.8013 167.932 73.044C168.333 73.296 168.809 73.422 169.36 73.422C170.004 73.422 170.522 73.226 170.914 72.834C171.315 72.442 171.516 71.8727 171.516 71.126V69.838C171.245 70.202 170.876 70.51 170.41 70.762C169.952 71.0047 169.43 71.126 168.842 71.126C168.17 71.126 167.554 70.958 166.994 70.622C166.443 70.2767 166.004 69.8007 165.678 69.194C165.36 68.578 165.202 67.8827 165.202 67.108C165.202 66.3333 165.36 65.6473 165.678 65.05C166.004 64.4527 166.443 63.9907 166.994 63.664C167.554 63.328 168.17 63.16 168.842 63.16ZM171.516 67.136C171.516 66.604 171.404 66.142 171.18 65.75C170.965 65.358 170.68 65.0593 170.326 64.854C169.971 64.6487 169.588 64.546 169.178 64.546C168.767 64.546 168.384 64.6487 168.03 64.854C167.675 65.05 167.386 65.344 167.162 65.736C166.947 66.1187 166.84 66.576 166.84 67.108C166.84 67.64 166.947 68.1067 167.162 68.508C167.386 68.9093 167.675 69.2173 168.03 69.432C168.394 69.6373 168.776 69.74 169.178 69.74C169.588 69.74 169.971 69.6373 170.326 69.432C170.68 69.2267 170.965 68.928 171.18 68.536C171.404 68.1347 171.516 67.668 171.516 67.136ZM176.818 60.64V71H175.222V60.64H176.818ZM185.983 66.954C185.983 67.2433 185.965 67.5047 185.927 67.738H180.033C180.08 68.354 180.309 68.8487 180.719 69.222C181.13 69.5953 181.634 69.782 182.231 69.782C183.09 69.782 183.697 69.4227 184.051 68.704H185.773C185.54 69.4133 185.115 69.9967 184.499 70.454C183.893 70.902 183.137 71.126 182.231 71.126C181.494 71.126 180.831 70.9627 180.243 70.636C179.665 70.3 179.207 69.8333 178.871 69.236C178.545 68.6293 178.381 67.9293 178.381 67.136C178.381 66.3427 178.54 65.6473 178.857 65.05C179.184 64.4433 179.637 63.9767 180.215 63.65C180.803 63.3233 181.475 63.16 182.231 63.16C182.959 63.16 183.608 63.3187 184.177 63.636C184.747 63.9533 185.19 64.4013 185.507 64.98C185.825 65.5493 185.983 66.2073 185.983 66.954ZM184.317 66.45C184.308 65.862 184.098 65.3907 183.687 65.036C183.277 64.6813 182.768 64.504 182.161 64.504C181.611 64.504 181.139 64.6813 180.747 65.036C180.355 65.3813 180.122 65.8527 180.047 66.45H184.317Z" fill="black"/>
<path d="M0 10H105" stroke="#001E3B" stroke-width="0.6"/>
<path d="M193 10H298" stroke="#001E3B" stroke-width="0.6"/>
<path d="M117.776 12.12C117.184 12.12 116.632 12.012 116.12 11.796C115.608 11.572 115.16 11.264 114.776 10.872C114.392 10.472 114.092 10.012 113.876 9.492C113.668 8.972 113.564 8.416 113.564 7.824C113.564 7.224 113.668 6.668 113.876 6.156C114.092 5.636 114.388 5.18 114.764 4.788C115.148 4.396 115.592 4.092 116.096 3.876C116.608 3.66 117.16 3.552 117.752 3.552C118.344 3.552 118.892 3.66 119.396 3.876C119.908 4.092 120.356 4.396 120.74 4.788C121.124 5.18 121.424 5.636 121.64 6.156C121.856 6.676 121.964 7.236 121.964 7.836C121.964 8.428 121.856 8.984 121.64 9.504C121.424 10.024 121.124 10.48 120.74 10.872C120.364 11.264 119.92 11.572 119.408 11.796C118.904 12.012 118.36 12.12 117.776 12.12ZM117.752 11.04C118.352 11.04 118.876 10.904 119.324 10.632C119.78 10.352 120.14 9.972 120.404 9.492C120.668 9.004 120.8 8.448 120.8 7.824C120.8 7.36 120.724 6.936 120.572 6.552C120.42 6.16 120.208 5.82 119.936 5.532C119.664 5.244 119.344 5.024 118.976 4.872C118.608 4.712 118.2 4.632 117.752 4.632C117.16 4.632 116.636 4.768 116.18 5.04C115.732 5.312 115.376 5.688 115.112 6.168C114.856 6.648 114.728 7.2 114.728 7.824C114.728 8.288 114.8 8.72 114.944 9.12C115.096 9.512 115.304 9.852 115.568 10.14C115.84 10.42 116.16 10.64 116.528 10.8C116.904 10.96 117.312 11.04 117.752 11.04ZM123.319 12V6.3H124.399V12H123.319ZM124.399 8.748L123.991 8.568C123.991 7.84 124.159 7.26 124.495 6.828C124.831 6.396 125.315 6.18 125.947 6.18C126.235 6.18 126.495 6.232 126.727 6.336C126.959 6.432 127.175 6.596 127.375 6.828L126.667 7.56C126.547 7.432 126.415 7.34 126.271 7.284C126.127 7.228 125.959 7.2 125.767 7.2C125.367 7.2 125.039 7.328 124.783 7.584C124.527 7.84 124.399 8.228 124.399 8.748ZM131.035 12V3.672H132.163V12H131.035ZM131.803 12V10.968H136.267V12H131.803ZM139.822 12.12C139.262 12.12 138.758 11.988 138.31 11.724C137.862 11.46 137.506 11.104 137.242 10.656C136.978 10.2 136.846 9.692 136.846 9.132C136.846 8.58 136.978 8.084 137.242 7.644C137.506 7.196 137.862 6.84 138.31 6.576C138.758 6.312 139.262 6.18 139.822 6.18C140.374 6.18 140.874 6.312 141.322 6.576C141.778 6.832 142.138 7.184 142.402 7.632C142.666 8.08 142.798 8.58 142.798 9.132C142.798 9.692 142.666 10.2 142.402 10.656C142.138 11.104 141.778 11.46 141.322 11.724C140.874 11.988 140.374 12.12 139.822 12.12ZM139.822 11.076C140.182 11.076 140.502 10.992 140.782 10.824C141.062 10.656 141.282 10.428 141.442 10.14C141.602 9.844 141.682 9.508 141.682 9.132C141.682 8.764 141.598 8.436 141.43 8.148C141.27 7.86 141.05 7.636 140.77 7.476C140.498 7.308 140.182 7.224 139.822 7.224C139.462 7.224 139.142 7.308 138.862 7.476C138.582 7.636 138.362 7.86 138.202 8.148C138.042 8.436 137.962 8.764 137.962 9.132C137.962 9.508 138.042 9.844 138.202 10.14C138.362 10.428 138.582 10.656 138.862 10.824C139.142 10.992 139.462 11.076 139.822 11.076ZM146.379 14.508C145.795 14.508 145.275 14.4 144.819 14.184C144.371 13.968 144.011 13.664 143.739 13.272L144.435 12.564C144.667 12.86 144.943 13.084 145.263 13.236C145.583 13.396 145.963 13.476 146.403 13.476C146.987 13.476 147.447 13.32 147.783 13.008C148.127 12.704 148.299 12.292 148.299 11.772V10.356L148.491 9.072L148.299 7.8V6.3H149.379V11.772C149.379 12.316 149.251 12.792 148.995 13.2C148.747 13.608 148.395 13.928 147.939 14.16C147.491 14.392 146.971 14.508 146.379 14.508ZM146.379 11.904C145.859 11.904 145.391 11.78 144.975 11.532C144.567 11.284 144.243 10.944 144.003 10.512C143.763 10.072 143.643 9.58 143.643 9.036C143.643 8.492 143.763 8.008 144.003 7.584C144.243 7.152 144.567 6.812 144.975 6.564C145.391 6.308 145.859 6.18 146.379 6.18C146.827 6.18 147.223 6.268 147.567 6.444C147.911 6.62 148.183 6.868 148.383 7.188C148.591 7.5 148.703 7.868 148.719 8.292V9.804C148.695 10.22 148.579 10.588 148.371 10.908C148.171 11.22 147.899 11.464 147.555 11.64C147.211 11.816 146.819 11.904 146.379 11.904ZM146.595 10.884C146.947 10.884 147.255 10.808 147.519 10.656C147.791 10.504 147.999 10.292 148.143 10.02C148.287 9.74 148.359 9.416 148.359 9.048C148.359 8.68 148.283 8.36 148.131 8.088C147.987 7.808 147.783 7.592 147.519 7.44C147.255 7.28 146.943 7.2 146.583 7.2C146.223 7.2 145.907 7.28 145.635 7.44C145.363 7.592 145.147 7.808 144.987 8.088C144.835 8.36 144.759 8.676 144.759 9.036C144.759 9.396 144.835 9.716 144.987 9.996C145.147 10.276 145.363 10.496 145.635 10.656C145.915 10.808 146.235 10.884 146.595 10.884ZM150.976 12V6.3H152.056V12H150.976ZM151.516 5.16C151.316 5.16 151.152 5.096 151.024 4.968C150.896 4.832 150.832 4.664 150.832 4.464C150.832 4.272 150.896 4.112 151.024 3.984C151.152 3.848 151.316 3.78 151.516 3.78C151.716 3.78 151.88 3.848 152.008 3.984C152.136 4.112 152.2 4.272 152.2 4.464C152.2 4.664 152.136 4.832 152.008 4.968C151.88 5.096 151.716 5.16 151.516 5.16ZM157.679 12V8.676C157.679 8.244 157.543 7.888 157.271 7.608C156.999 7.328 156.647 7.188 156.215 7.188C155.927 7.188 155.671 7.252 155.447 7.38C155.223 7.508 155.047 7.684 154.919 7.908C154.791 8.132 154.727 8.388 154.727 8.676L154.283 8.424C154.283 7.992 154.379 7.608 154.571 7.272C154.763 6.936 155.031 6.672 155.375 6.48C155.719 6.28 156.107 6.18 156.539 6.18C156.971 6.18 157.351 6.288 157.679 6.504C158.015 6.72 158.279 7.004 158.471 7.356C158.663 7.7 158.759 8.068 158.759 8.46V12H157.679ZM153.647 12V6.3H154.727V12H153.647ZM164.35 12L162.094 6.3H163.222L164.854 10.74H164.494L166.114 6.3H166.738L168.358 10.74H167.998L169.63 6.3H170.758L168.514 12H167.878L166.234 7.692H166.63L164.974 12H164.35ZM171.636 12V6.3H172.716V12H171.636ZM172.176 5.16C171.976 5.16 171.812 5.096 171.684 4.968C171.556 4.832 171.492 4.664 171.492 4.464C171.492 4.272 171.556 4.112 171.684 3.984C171.812 3.848 171.976 3.78 172.176 3.78C172.376 3.78 172.54 3.848 172.668 3.984C172.796 4.112 172.86 4.272 172.86 4.464C172.86 4.664 172.796 4.832 172.668 4.968C172.54 5.096 172.376 5.16 172.176 5.16ZM175.184 12V3.912H176.264V12H175.184ZM173.78 7.284V6.3H177.668V7.284H173.78ZM182.758 12V8.676C182.758 8.244 182.622 7.888 182.35 7.608C182.078 7.328 181.726 7.188 181.294 7.188C181.006 7.188 180.75 7.252 180.526 7.38C180.302 7.508 180.126 7.684 179.998 7.908C179.87 8.132 179.806 8.388 179.806 8.676L179.362 8.424C179.362 7.992 179.458 7.608 179.65 7.272C179.842 6.936 180.11 6.672 180.454 6.48C180.798 6.28 181.186 6.18 181.618 6.18C182.05 6.18 182.43 6.276 182.758 6.468C183.094 6.66 183.358 6.928 183.55 7.272C183.742 7.616 183.838 8.012 183.838 8.46V12H182.758ZM178.726 12V3.432H179.806V12H178.726Z" fill="#001E3B"/>
</svg>
