<svg width="41" height="42" viewBox="0 0 41 42" fill="none" xmlns="http://www.w3.org/2000/svg">
<rect width="41" height="42" rx="15" fill="#FBBC05"/>
<path d="M20.508 23.1777C19.5281 23.1777 18.7134 22.8132 18.0637 22.0843C17.414 21.3554 17.0892 20.4796 17.0892 19.4571V12.5233C17.0892 11.5603 17.418 10.7323 18.0756 10.0394C18.7333 9.34646 19.5409 9 20.4984 9C21.4559 9 22.2686 9.34646 22.9363 10.0394C23.604 10.7323 23.9379 11.5603 23.9379 12.5233V19.4571C23.9379 20.4796 23.6112 21.3554 22.9578 22.0843C22.3044 22.8132 21.4878 23.1777 20.508 23.1777ZM19.4443 32V28.0539C17.2967 27.8284 15.5191 26.9029 14.1115 25.2773C12.7038 23.6517 12 21.7117 12 19.4571H14.1656C14.1656 21.261 14.7842 22.7925 16.0214 24.0515C17.2586 25.3105 18.7548 25.94 20.5102 25.94C22.2655 25.94 23.7583 25.3091 24.9888 24.0474C26.2192 22.7858 26.8344 21.2557 26.8344 19.4571H29C29 21.7118 28.2962 23.6519 26.8885 25.2774C25.4809 26.9029 23.7123 27.8275 21.5828 28.051V32H19.4443Z" fill="#001E3B"/>
</svg>
