<?xml version="1.0" encoding="utf-8"?>
<!-- Generator: Adobe Illustrator 27.0.0, SVG Export Plug-In . SVG Version: 6.00 Build 0)  -->
<svg version="1.1" id="Livello_1" xmlns="http://www.w3.org/2000/svg" xmlns:xlink="http://www.w3.org/1999/xlink" x="0px" y="0px"
	 viewBox="0 0 393 727" style="enable-background:new 0 0 393 727;" xml:space="preserve">
<style type="text/css">
	.st0{fill:#BFC3FF;}
	.st1{clip-path:url(#SVGID_00000066503075711493708750000007747076349763482025_);}
	.st2{fill:#FFFFFF;fill-opacity:0.6;}
	.st3{fill:none;stroke:#001E3B;stroke-width:2;stroke-linecap:round;stroke-linejoin:round;}
	.st4{fill:#001E3B;}
	.st5{fill:#BFC3FF;fill-opacity:0.6;stroke:#BFC3FF;stroke-width:3;stroke-linejoin:round;}
	.st6{fill:#FBBC05;}
</style>
<rect x="0.1" y="-0.5" class="st0" width="392.9" height="726"/>
<g>
	<defs>
		<rect id="SVGID_1_" y="-125" width="393" height="852"/>
	</defs>
	<clipPath id="SVGID_00000158718740445198476340000014413161502467403966_">
		<use xlink:href="#SVGID_1_"  style="overflow:visible;"/>
	</clipPath>
	<g style="clip-path:url(#SVGID_00000158718740445198476340000014413161502467403966_);">
		<path class="st2" d="M54,477h284c11,0,20,9,20,20v181c0,11-9,20-20,20H54c-11,0-20-9-20-20V497C34,485.9,43,477,54,477z"/>
		<path class="st0" d="M327,528c7.2,0,13-5.8,13-13c0-7.2-5.8-13-13-13s-13,5.8-13,13C314,522.2,319.8,528,327,528z"/>
		<path class="st3" d="M330.9,511.1l-7.8,7.8"/>
		<path class="st3" d="M323.1,511.1l7.8,7.8"/>
		<path class="st4" d="M66.4,507.9v14H63v-5.8h-5.3v5.8h-3.4v-14h3.4v5.5H63v-5.5H66.4z M68.2,516.4c0-1.1,0.2-2.2,0.6-3
			c0.4-0.9,1-1.5,1.8-2c0.7-0.5,1.6-0.7,2.5-0.7c0.8,0,1.5,0.2,2.1,0.5c0.6,0.3,1.1,0.7,1.4,1.3v-1.6H80V522h-3.4v-1.6
			c-0.3,0.5-0.8,0.9-1.4,1.3c-0.6,0.3-1.3,0.5-2.1,0.5c-0.9,0-1.7-0.2-2.5-0.7c-0.7-0.5-1.3-1.2-1.8-2
			C68.4,518.5,68.2,517.5,68.2,516.4z M76.5,516.4c0-0.9-0.2-1.5-0.7-2c-0.5-0.5-1-0.7-1.7-0.7s-1.3,0.2-1.7,0.7
			c-0.5,0.5-0.7,1.1-0.7,2c0,0.9,0.2,1.5,0.7,2c0.5,0.5,1.1,0.7,1.7,0.7s1.3-0.2,1.7-0.7C76.3,517.9,76.5,517.2,76.5,516.4z
			 M84.2,509.7c-0.6,0-1.1-0.2-1.5-0.5c-0.4-0.4-0.6-0.8-0.6-1.3c0-0.5,0.2-1,0.6-1.3c0.4-0.4,0.9-0.5,1.5-0.5
			c0.6,0,1.1,0.2,1.4,0.5c0.4,0.3,0.6,0.8,0.6,1.3c0,0.5-0.2,1-0.6,1.3C85.2,509.5,84.7,509.7,84.2,509.7z M85.9,510.8V522h-3.4
			v-11.2H85.9z M91.9,516.4c0-1.1,0.2-2.1,0.7-3c0.5-0.9,1.1-1.5,1.9-2c0.8-0.5,1.6-0.7,2.6-0.7c0.7,0,1.3,0.1,1.9,0.4
			c0.6,0.2,1,0.6,1.4,1v-1.3h3.4v16.5h-3.4v-6.7c-0.4,0.5-0.9,0.8-1.4,1.1c-0.5,0.3-1.2,0.4-1.9,0.4c-0.9,0-1.7-0.2-2.5-0.7
			c-0.8-0.5-1.4-1.2-1.9-2C92.1,518.5,91.9,517.5,91.9,516.4z M100.3,516.4c0-0.6-0.1-1.1-0.4-1.5c-0.2-0.4-0.5-0.7-0.9-0.9
			c-0.4-0.2-0.8-0.3-1.2-0.3c-0.4,0-0.8,0.1-1.2,0.3c-0.4,0.2-0.7,0.5-0.9,0.9c-0.2,0.4-0.4,0.9-0.4,1.5s0.1,1.1,0.4,1.5
			c0.2,0.4,0.5,0.7,0.9,0.9c0.4,0.2,0.8,0.3,1.2,0.3s0.8-0.1,1.2-0.3c0.4-0.2,0.7-0.5,0.9-0.9C100.1,517.5,100.3,517,100.3,516.4z
			 M117.2,510.8V522h-3.4v-1.5c-0.3,0.5-0.8,0.9-1.4,1.2c-0.6,0.3-1.2,0.4-2,0.4c-0.9,0-1.6-0.2-2.3-0.6c-0.7-0.4-1.2-0.9-1.5-1.7
			c-0.4-0.7-0.5-1.6-0.5-2.5v-6.5h3.4v6.1c0,0.7,0.2,1.3,0.6,1.7c0.4,0.4,0.9,0.6,1.6,0.6c0.7,0,1.2-0.2,1.6-0.6
			c0.4-0.4,0.6-1,0.6-1.7v-6.1H117.2z M119,516.4c0-1.1,0.2-2.2,0.6-3c0.4-0.9,1-1.5,1.8-2c0.7-0.5,1.6-0.7,2.5-0.7
			c0.8,0,1.5,0.2,2.1,0.5c0.6,0.3,1.1,0.7,1.4,1.3v-1.6h3.4V522h-3.4v-1.6c-0.3,0.5-0.8,0.9-1.4,1.3c-0.6,0.3-1.3,0.5-2.1,0.5
			c-0.9,0-1.7-0.2-2.5-0.7c-0.7-0.5-1.3-1.2-1.8-2C119.2,518.5,119,517.5,119,516.4z M127.3,516.4c0-0.9-0.2-1.5-0.7-2
			c-0.5-0.5-1-0.7-1.7-0.7s-1.3,0.2-1.7,0.7c-0.5,0.5-0.7,1.1-0.7,2c0,0.9,0.2,1.5,0.7,2c0.5,0.5,1.1,0.7,1.7,0.7s1.3-0.2,1.7-0.7
			C127.1,517.9,127.3,517.2,127.3,516.4z M136.6,507.2V522h-3.4v-14.8H136.6z M138.4,516.4c0-1.2,0.2-2.2,0.7-3c0.5-0.9,1.1-1.5,2-2
			c0.9-0.5,1.8-0.7,2.9-0.7c1.4,0,2.6,0.4,3.5,1.1c0.9,0.7,1.6,1.8,1.9,3.1h-3.6c-0.3-0.9-0.9-1.3-1.8-1.3c-0.6,0-1.1,0.2-1.5,0.7
			c-0.4,0.5-0.6,1.2-0.6,2.1c0,0.9,0.2,1.6,0.6,2.1c0.4,0.5,0.9,0.7,1.5,0.7c0.9,0,1.5-0.4,1.8-1.3h3.6c-0.3,1.3-0.9,2.3-1.9,3.1
			c-0.9,0.7-2.1,1.1-3.5,1.1c-1.1,0-2.1-0.2-2.9-0.7c-0.8-0.5-1.5-1.1-2-2C138.7,518.6,138.4,517.6,138.4,516.4z M158.1,510.7
			c1.3,0,2.3,0.4,3.1,1.3c0.8,0.8,1.2,2,1.2,3.5v6.5h-3.4v-6.1c0-0.7-0.2-1.3-0.6-1.7c-0.4-0.4-0.9-0.6-1.6-0.6
			c-0.7,0-1.2,0.2-1.6,0.6c-0.4,0.4-0.6,1-0.6,1.7v6.1h-3.4v-14.8h3.4v5.1c0.3-0.5,0.8-0.9,1.4-1.2
			C156.7,510.8,157.3,510.7,158.1,510.7z M175.2,516.2c0,0.3,0,0.7-0.1,1h-7.7c0.1,0.7,0.3,1.2,0.7,1.6c0.4,0.4,0.9,0.5,1.5,0.5
			c0.9,0,1.4-0.4,1.8-1.1h3.6c-0.2,0.7-0.5,1.4-1,2c-0.5,0.6-1.1,1-1.8,1.4c-0.7,0.3-1.6,0.5-2.5,0.5c-1.1,0-2.1-0.2-2.9-0.7
			c-0.9-0.5-1.5-1.1-2-2c-0.5-0.9-0.7-1.9-0.7-3c0-1.2,0.2-2.2,0.7-3c0.5-0.9,1.1-1.5,2-2c0.9-0.5,1.8-0.7,2.9-0.7
			c1.1,0,2,0.2,2.9,0.7c0.8,0.5,1.5,1.1,2,1.9C175,514.1,175.2,515.1,175.2,516.2z M171.7,515.3c0-0.6-0.2-1.1-0.6-1.4
			c-0.4-0.3-0.9-0.5-1.5-0.5c-0.6,0-1.1,0.2-1.5,0.5c-0.4,0.3-0.6,0.8-0.7,1.4H171.7z M180.6,516.4c0-1.1,0.2-2.2,0.6-3
			c0.4-0.9,1-1.5,1.8-2c0.7-0.5,1.6-0.7,2.5-0.7c0.8,0,1.5,0.2,2.1,0.5c0.6,0.3,1.1,0.7,1.4,1.3v-1.6h3.4V522h-3.4v-1.6
			c-0.3,0.5-0.8,0.9-1.4,1.3c-0.6,0.3-1.3,0.5-2.1,0.5c-0.9,0-1.7-0.2-2.5-0.7c-0.7-0.5-1.3-1.2-1.8-2
			C180.8,518.5,180.6,517.5,180.6,516.4z M188.9,516.4c0-0.9-0.2-1.5-0.7-2c-0.5-0.5-1-0.7-1.7-0.7c-0.7,0-1.3,0.2-1.7,0.7
			c-0.5,0.5-0.7,1.1-0.7,2c0,0.9,0.2,1.5,0.7,2c0.5,0.5,1.1,0.7,1.7,0.7c0.7,0,1.3-0.2,1.7-0.7C188.7,517.9,188.9,517.2,188.9,516.4
			z M201.6,510.7c1.3,0,2.3,0.4,3.1,1.3c0.8,0.8,1.2,2,1.2,3.5v6.5h-3.4v-6.1c0-0.7-0.2-1.3-0.6-1.7c-0.4-0.4-0.9-0.6-1.6-0.6
			s-1.2,0.2-1.6,0.6c-0.4,0.4-0.6,1-0.6,1.7v6.1h-3.4v-11.2h3.4v1.5c0.3-0.5,0.8-0.9,1.4-1.2C200.2,510.8,200.9,510.7,201.6,510.7z
			 M210,509.7c-0.6,0-1.1-0.2-1.5-0.5c-0.4-0.4-0.6-0.8-0.6-1.3c0-0.5,0.2-1,0.6-1.3c0.4-0.4,0.9-0.5,1.5-0.5c0.6,0,1.1,0.2,1.4,0.5
			c0.4,0.3,0.6,0.8,0.6,1.3c0,0.5-0.2,1-0.6,1.3C211.1,509.5,210.6,509.7,210,509.7z M211.7,510.8V522h-3.4v-11.2H211.7z
			 M228.4,510.7c1.4,0,2.5,0.4,3.3,1.3c0.8,0.8,1.2,2,1.2,3.5v6.5h-3.4v-6.1c0-0.7-0.2-1.3-0.6-1.7c-0.4-0.4-0.9-0.6-1.6-0.6
			c-0.7,0-1.2,0.2-1.6,0.6c-0.4,0.4-0.6,0.9-0.6,1.7v6.1h-3.4v-6.1c0-0.7-0.2-1.3-0.6-1.7c-0.4-0.4-0.9-0.6-1.6-0.6
			c-0.7,0-1.2,0.2-1.6,0.6c-0.4,0.4-0.6,0.9-0.6,1.7v6.1h-3.4v-11.2h3.4v1.4c0.3-0.5,0.8-0.8,1.4-1.1c0.6-0.3,1.2-0.4,1.9-0.4
			c0.8,0,1.6,0.2,2.2,0.5c0.7,0.4,1.2,0.9,1.6,1.5c0.4-0.6,0.9-1.1,1.6-1.5C226.9,510.9,227.7,510.7,228.4,510.7z M234.7,516.4
			c0-1.1,0.2-2.2,0.6-3c0.4-0.9,1-1.5,1.8-2c0.7-0.5,1.6-0.7,2.5-0.7c0.8,0,1.5,0.2,2.1,0.5c0.6,0.3,1.1,0.7,1.4,1.3v-1.6h3.4V522
			h-3.4v-1.6c-0.3,0.5-0.8,0.9-1.4,1.3c-0.6,0.3-1.3,0.5-2.1,0.5c-0.9,0-1.7-0.2-2.5-0.7c-0.7-0.5-1.3-1.2-1.8-2
			C234.9,518.5,234.7,517.5,234.7,516.4z M243.1,516.4c0-0.9-0.2-1.5-0.7-2c-0.5-0.5-1-0.7-1.7-0.7c-0.7,0-1.3,0.2-1.7,0.7
			c-0.5,0.5-0.7,1.1-0.7,2c0,0.9,0.2,1.5,0.7,2c0.5,0.5,1.1,0.7,1.7,0.7c0.7,0,1.3-0.2,1.7-0.7C242.8,517.9,243.1,517.2,243.1,516.4
			z M252.4,507.2V522h-3.4v-14.8H252.4z M265.4,516.2c0,0.3,0,0.7-0.1,1h-7.7c0.1,0.7,0.3,1.2,0.7,1.6c0.4,0.4,0.9,0.5,1.5,0.5
			c0.9,0,1.4-0.4,1.8-1.1h3.6c-0.2,0.7-0.5,1.4-1,2c-0.5,0.6-1.1,1-1.8,1.4c-0.7,0.3-1.6,0.5-2.5,0.5c-1.1,0-2.1-0.2-2.9-0.7
			c-0.9-0.5-1.5-1.1-2-2c-0.5-0.9-0.7-1.9-0.7-3c0-1.2,0.2-2.2,0.7-3c0.5-0.9,1.1-1.5,2-2c0.9-0.5,1.8-0.7,2.9-0.7
			c1.1,0,2,0.2,2.9,0.7s1.5,1.1,2,1.9C265.1,514.1,265.4,515.1,265.4,516.2z M261.9,515.3c0-0.6-0.2-1.1-0.6-1.4
			c-0.4-0.3-0.9-0.5-1.5-0.5c-0.6,0-1.1,0.2-1.5,0.5c-0.4,0.3-0.6,0.8-0.7,1.4H261.9z M271.3,507.2c1.4,0,2.6,0.4,3.4,1.1
			c0.9,0.7,1.3,1.8,1.3,3.2c0,1.3-0.4,2.2-1.2,2.9c-0.8,0.7-1.9,1-3.2,1.1l-0.1,1.5h-3l-0.1-3.7h1.2c1,0,1.8-0.1,2.3-0.4
			c0.5-0.3,0.8-0.7,0.8-1.4c0-0.5-0.1-0.8-0.4-1.1c-0.3-0.3-0.6-0.4-1.1-0.4c-0.5,0-0.9,0.1-1.1,0.4c-0.3,0.3-0.4,0.6-0.4,1.1h-3.2
			c0-0.8,0.1-1.5,0.5-2.2c0.4-0.7,0.9-1.2,1.6-1.5C269.4,507.3,270.2,507.2,271.3,507.2z M270,522.1c-0.6,0-1.1-0.2-1.5-0.5
			c-0.4-0.4-0.6-0.8-0.6-1.3c0-0.5,0.2-1,0.6-1.3c0.4-0.4,0.9-0.5,1.5-0.5c0.6,0,1.1,0.2,1.4,0.5c0.4,0.4,0.6,0.8,0.6,1.3
			c0,0.5-0.2,1-0.6,1.3C271,522,270.5,522.1,270,522.1z"/>
		<path class="st5" d="M75,545.5h18c0.8,0,1.5,0.7,1.5,1.5v18c0,0.8-0.7,1.5-1.5,1.5H75c-0.8,0-1.5-0.7-1.5-1.5v-18
			C73.5,546.1,74.2,545.5,75,545.5z"/>
		<path class="st5" d="M75,579.5h18c0.8,0,1.5,0.7,1.5,1.5v18c0,0.8-0.7,1.5-1.5,1.5H75c-0.8,0-1.5-0.7-1.5-1.5v-18
			C73.5,580.1,74.2,579.5,75,579.5z"/>
		<path class="st5" d="M75,613.5h18c0.8,0,1.5,0.7,1.5,1.5v18c0,0.8-0.7,1.5-1.5,1.5H75c-0.8,0-1.5-0.7-1.5-1.5v-18
			C73.5,614.1,74.2,613.5,75,613.5z"/>
		<path class="st5" d="M75,648.5h18c0.8,0,1.5,0.7,1.5,1.5v18c0,0.8-0.7,1.5-1.5,1.5H75c-0.8,0-1.5-0.7-1.5-1.5v-18
			C73.5,649.1,74.2,648.5,75,648.5z"/>
		<path d="M119.9,560.1c-0.6,0-1.1-0.1-1.6-0.3c-0.5-0.2-0.8-0.5-1.1-0.9c-0.3-0.4-0.4-0.8-0.4-1.3h1.3c0,0.4,0.2,0.8,0.5,1.1
			c0.3,0.3,0.8,0.4,1.4,0.4c0.6,0,1-0.1,1.3-0.4c0.3-0.3,0.5-0.7,0.5-1.1c0-0.3-0.1-0.6-0.3-0.8c-0.2-0.2-0.4-0.4-0.7-0.5
			c-0.3-0.1-0.7-0.2-1.2-0.4c-0.6-0.2-1.1-0.3-1.4-0.5c-0.4-0.2-0.7-0.4-0.9-0.7c-0.3-0.3-0.4-0.8-0.4-1.4c0-0.5,0.1-0.9,0.4-1.3
			s0.6-0.7,1.1-0.9c0.5-0.2,1-0.3,1.6-0.3c0.8,0,1.5,0.2,2.1,0.6c0.5,0.4,0.9,1,0.9,1.7h-1.3c0-0.3-0.2-0.6-0.5-0.9
			c-0.3-0.3-0.7-0.4-1.3-0.4c-0.5,0-0.9,0.1-1.2,0.4c-0.3,0.3-0.5,0.6-0.5,1.1c0,0.3,0.1,0.6,0.3,0.8c0.2,0.2,0.4,0.4,0.7,0.5
			c0.3,0.1,0.7,0.2,1.2,0.4c0.6,0.2,1.1,0.3,1.4,0.5c0.4,0.2,0.7,0.4,0.9,0.7c0.3,0.3,0.4,0.8,0.4,1.4c0,0.4-0.1,0.9-0.4,1.2
			s-0.6,0.7-1,0.9S120.5,560.1,119.9,560.1z M125.2,551.7c-0.2,0-0.4-0.1-0.6-0.2s-0.2-0.3-0.2-0.6c0-0.2,0.1-0.4,0.2-0.6
			s0.3-0.2,0.6-0.2c0.2,0,0.4,0.1,0.5,0.2c0.2,0.2,0.2,0.3,0.2,0.6c0,0.2-0.1,0.4-0.2,0.6C125.6,551.6,125.5,551.7,125.2,551.7z
			 M125.8,552.8v7.1h-1.2v-7.1H125.8z M129.1,558.3l-1.5,3.5h-0.8l0.9-3.5H129.1z M135.1,554.2c0.2-0.4,0.6-0.7,1-1
			c0.5-0.3,1-0.4,1.6-0.4c0.6,0,1.2,0.2,1.7,0.5c0.5,0.3,0.9,0.7,1.2,1.3c0.3,0.5,0.4,1.2,0.4,1.9c0,0.7-0.1,1.4-0.4,1.9
			s-0.7,1-1.2,1.3c-0.5,0.3-1.1,0.5-1.7,0.5c-0.6,0-1.1-0.1-1.6-0.4c-0.5-0.3-0.8-0.6-1.1-1v4.7h-1.2v-10.5h1.2V554.2z M139.9,556.4
			c0-0.5-0.1-1-0.3-1.4s-0.5-0.7-0.9-0.9c-0.4-0.2-0.8-0.3-1.2-0.3c-0.4,0-0.8,0.1-1.2,0.3c-0.4,0.2-0.7,0.5-0.9,0.9
			c-0.2,0.4-0.3,0.9-0.3,1.4c0,0.5,0.1,1,0.3,1.4c0.2,0.4,0.5,0.7,0.9,0.9c0.4,0.2,0.8,0.3,1.2,0.3c0.4,0,0.8-0.1,1.2-0.3
			c0.4-0.2,0.7-0.5,0.9-0.9C139.8,557.4,139.9,556.9,139.9,556.4z M143.3,551.7c-0.2,0-0.4-0.1-0.6-0.2c-0.2-0.2-0.2-0.3-0.2-0.6
			c0-0.2,0.1-0.4,0.2-0.6c0.2-0.2,0.3-0.2,0.6-0.2c0.2,0,0.4,0.1,0.5,0.2c0.2,0.2,0.2,0.3,0.2,0.6c0,0.2-0.1,0.4-0.2,0.6
			C143.7,551.6,143.5,551.7,143.3,551.7z M143.8,552.8v7.1h-1.2v-7.1H143.8z M152.2,552.8v7.1H151v-1.1c-0.2,0.4-0.5,0.6-0.9,0.9
			c-0.4,0.2-0.8,0.3-1.3,0.3c-0.6,0-1.1-0.1-1.5-0.3c-0.4-0.2-0.8-0.6-1.1-1c-0.3-0.5-0.4-1-0.4-1.7v-4.2h1.2v4
			c0,0.7,0.2,1.2,0.5,1.6c0.4,0.4,0.8,0.6,1.5,0.6c0.6,0,1.1-0.2,1.5-0.6s0.5-1,0.5-1.7v-3.9H152.2z M150.3,551.4v0.9l-2.8-1.5v-1
			L150.3,551.4z M157.2,556.4c0-0.7,0.1-1.4,0.4-1.9c0.3-0.6,0.7-1,1.2-1.3c0.5-0.3,1.1-0.5,1.7-0.5c0.6,0,1.1,0.1,1.5,0.4
			c0.5,0.3,0.8,0.6,1.1,1v-3.8h1.2v9.6h-1.2v-1.3c-0.2,0.4-0.6,0.8-1,1.1c-0.5,0.3-1,0.4-1.6,0.4c-0.6,0-1.2-0.2-1.7-0.5
			c-0.5-0.3-0.9-0.8-1.2-1.3C157.3,557.7,157.2,557.1,157.2,556.4z M163.2,556.4c0-0.5-0.1-1-0.3-1.4c-0.2-0.4-0.5-0.7-0.9-0.9
			c-0.4-0.2-0.8-0.3-1.2-0.3s-0.8,0.1-1.2,0.3s-0.7,0.5-0.9,0.9c-0.2,0.4-0.3,0.9-0.3,1.4c0,0.5,0.1,1,0.3,1.4
			c0.2,0.4,0.5,0.7,0.9,0.9c0.4,0.2,0.8,0.3,1.2,0.3s0.8-0.1,1.2-0.3c0.4-0.2,0.7-0.5,0.9-0.9C163.1,557.4,163.2,556.9,163.2,556.4z
			 M167,551.7c-0.2,0-0.4-0.1-0.6-0.2c-0.2-0.2-0.2-0.3-0.2-0.6c0-0.2,0.1-0.4,0.2-0.6c0.2-0.2,0.3-0.2,0.6-0.2
			c0.2,0,0.4,0.1,0.5,0.2c0.2,0.2,0.2,0.3,0.2,0.6c0,0.2-0.1,0.4-0.2,0.6C167.4,551.6,167.3,551.7,167,551.7z M167.6,552.8v7.1h-1.2
			v-7.1H167.6z M179.4,552.8v7.1h-1.2v-1.1c-0.2,0.4-0.5,0.6-0.9,0.9c-0.4,0.2-0.8,0.3-1.3,0.3c-0.6,0-1.1-0.1-1.5-0.3
			c-0.4-0.2-0.8-0.6-1.1-1c-0.3-0.5-0.4-1-0.4-1.7v-4.2h1.2v4c0,0.7,0.2,1.2,0.5,1.6c0.4,0.4,0.8,0.6,1.5,0.6c0.6,0,1.1-0.2,1.5-0.6
			c0.4-0.4,0.5-1,0.5-1.7v-3.9H179.4z M184.9,552.7c0.9,0,1.6,0.3,2.1,0.8c0.5,0.5,0.8,1.3,0.8,2.3v4.2h-1.2v-4
			c0-0.7-0.2-1.3-0.5-1.6c-0.4-0.4-0.8-0.6-1.5-0.6c-0.6,0-1.1,0.2-1.5,0.6c-0.4,0.4-0.5,1-0.5,1.7v3.9h-1.2v-7.1h1.2v1
			c0.2-0.4,0.6-0.6,0.9-0.8C183.9,552.8,184.4,552.7,184.9,552.7z M199.5,552.8v7.1h-1.2v-1.1c-0.2,0.4-0.5,0.6-0.9,0.9
			c-0.4,0.2-0.8,0.3-1.3,0.3c-0.6,0-1.1-0.1-1.5-0.3c-0.4-0.2-0.8-0.6-1.1-1c-0.3-0.5-0.4-1-0.4-1.7v-4.2h1.2v4
			c0,0.7,0.2,1.2,0.5,1.6c0.4,0.4,0.8,0.6,1.5,0.6c0.6,0,1.1-0.2,1.5-0.6c0.4-0.4,0.5-1,0.5-1.7v-3.9H199.5z M205,552.7
			c0.9,0,1.6,0.3,2.1,0.8c0.5,0.5,0.8,1.3,0.8,2.3v4.2h-1.2v-4c0-0.7-0.2-1.3-0.5-1.6c-0.4-0.4-0.8-0.6-1.5-0.6
			c-0.6,0-1.1,0.2-1.5,0.6c-0.4,0.4-0.5,1-0.5,1.7v3.9h-1.2v-7.1h1.2v1c0.2-0.4,0.5-0.6,0.9-0.8C204,552.8,204.5,552.7,205,552.7z
			 M212.9,560.1c-0.7,0-1.3-0.2-1.8-0.5c-0.5-0.3-1-0.7-1.3-1.3c-0.3-0.6-0.5-1.2-0.5-2c0-0.7,0.2-1.4,0.5-1.9
			c0.3-0.6,0.8-1,1.3-1.3c0.5-0.3,1.2-0.5,1.8-0.5c0.7,0,1.3,0.2,1.8,0.5c0.5,0.3,1,0.7,1.3,1.3c0.3,0.6,0.5,1.2,0.5,1.9
			s-0.2,1.4-0.5,2c-0.3,0.6-0.8,1-1.3,1.3C214.2,559.9,213.6,560.1,212.9,560.1z M212.9,559c0.4,0,0.8-0.1,1.2-0.3
			c0.4-0.2,0.7-0.5,0.9-0.9c0.2-0.4,0.4-0.9,0.4-1.5c0-0.6-0.1-1.1-0.3-1.5c-0.2-0.4-0.5-0.7-0.9-0.9c-0.4-0.2-0.8-0.3-1.2-0.3
			c-0.4,0-0.8,0.1-1.2,0.3c-0.4,0.2-0.6,0.5-0.9,0.9c-0.2,0.4-0.3,0.9-0.3,1.5c0,0.6,0.1,1.1,0.3,1.5c0.2,0.4,0.5,0.7,0.9,0.9
			C212.1,559,212.5,559,212.9,559z"/>
		<path d="M119.9,594.1c-0.6,0-1.1-0.1-1.6-0.3c-0.5-0.2-0.8-0.5-1.1-0.9c-0.3-0.4-0.4-0.8-0.4-1.3h1.3c0,0.4,0.2,0.8,0.5,1.1
			c0.3,0.3,0.8,0.4,1.4,0.4c0.6,0,1-0.1,1.3-0.4c0.3-0.3,0.5-0.7,0.5-1.1c0-0.3-0.1-0.6-0.3-0.8c-0.2-0.2-0.4-0.4-0.7-0.5
			c-0.3-0.1-0.7-0.2-1.2-0.4c-0.6-0.2-1.1-0.3-1.4-0.5c-0.4-0.2-0.7-0.4-0.9-0.7c-0.3-0.3-0.4-0.8-0.4-1.4c0-0.5,0.1-0.9,0.4-1.3
			s0.6-0.7,1.1-0.9c0.5-0.2,1-0.3,1.6-0.3c0.8,0,1.5,0.2,2.1,0.6c0.5,0.4,0.9,1,0.9,1.7h-1.3c0-0.3-0.2-0.6-0.5-0.9
			c-0.3-0.3-0.7-0.4-1.3-0.4c-0.5,0-0.9,0.1-1.2,0.4c-0.3,0.3-0.5,0.6-0.5,1.1c0,0.3,0.1,0.6,0.3,0.8c0.2,0.2,0.4,0.4,0.7,0.5
			c0.3,0.1,0.7,0.2,1.2,0.4c0.6,0.2,1.1,0.3,1.4,0.5c0.4,0.2,0.7,0.4,0.9,0.7c0.3,0.3,0.4,0.8,0.4,1.4c0,0.4-0.1,0.9-0.4,1.2
			s-0.6,0.7-1,0.9S120.5,594.1,119.9,594.1z M125.2,585.7c-0.2,0-0.4-0.1-0.6-0.2s-0.2-0.3-0.2-0.6c0-0.2,0.1-0.4,0.2-0.6
			s0.3-0.2,0.6-0.2c0.2,0,0.4,0.1,0.5,0.2c0.2,0.2,0.2,0.3,0.2,0.6c0,0.2-0.1,0.4-0.2,0.6C125.6,585.6,125.5,585.7,125.2,585.7z
			 M125.8,586.8v7.1h-1.2v-7.1H125.8z M129.1,592.3l-1.5,3.5h-0.8l0.9-3.5H129.1z M136.4,594.1c-0.5,0-1-0.1-1.5-0.3
			c-0.4-0.2-0.8-0.5-1-0.8c-0.3-0.3-0.4-0.7-0.4-1.2h1.2c0,0.4,0.2,0.6,0.5,0.9c0.3,0.2,0.7,0.3,1.2,0.3c0.5,0,0.8-0.1,1.1-0.3
			c0.3-0.2,0.4-0.5,0.4-0.8c0-0.3-0.1-0.5-0.4-0.7c-0.3-0.2-0.7-0.3-1.3-0.5c-0.5-0.1-1-0.3-1.3-0.4c-0.3-0.1-0.6-0.4-0.9-0.6
			c-0.2-0.3-0.4-0.7-0.4-1.1c0-0.4,0.1-0.7,0.3-1c0.2-0.3,0.5-0.5,0.9-0.7c0.4-0.2,0.9-0.3,1.4-0.3c0.8,0,1.4,0.2,1.9,0.6
			s0.7,0.9,0.8,1.6h-1.2c0-0.4-0.2-0.7-0.5-0.9c-0.3-0.2-0.6-0.3-1.1-0.3c-0.4,0-0.8,0.1-1,0.3c-0.3,0.2-0.4,0.4-0.4,0.7
			c0,0.2,0.1,0.4,0.2,0.6c0.2,0.1,0.3,0.3,0.6,0.4c0.2,0.1,0.6,0.2,1,0.3c0.5,0.1,0.9,0.3,1.2,0.4c0.3,0.1,0.6,0.3,0.8,0.6
			c0.2,0.3,0.4,0.6,0.4,1.1c0,0.4-0.1,0.7-0.3,1.1c-0.2,0.3-0.5,0.6-0.9,0.7C137.4,594,136.9,594.1,136.4,594.1z M143.8,594.1
			c-0.7,0-1.3-0.2-1.8-0.5c-0.5-0.3-1-0.7-1.3-1.3c-0.3-0.6-0.5-1.2-0.5-2c0-0.7,0.2-1.4,0.5-1.9c0.3-0.6,0.8-1,1.3-1.3
			c0.5-0.3,1.2-0.5,1.8-0.5c0.7,0,1.3,0.2,1.8,0.5c0.5,0.3,1,0.7,1.3,1.3c0.3,0.6,0.5,1.2,0.5,1.9s-0.2,1.4-0.5,2
			c-0.3,0.6-0.8,1-1.3,1.3C145.1,593.9,144.4,594.1,143.8,594.1z M143.8,593c0.4,0,0.8-0.1,1.2-0.3c0.4-0.2,0.7-0.5,0.9-0.9
			c0.2-0.4,0.4-0.9,0.4-1.5c0-0.6-0.1-1.1-0.3-1.5c-0.2-0.4-0.5-0.7-0.9-0.9c-0.4-0.2-0.8-0.3-1.2-0.3c-0.4,0-0.8,0.1-1.2,0.3
			c-0.4,0.2-0.6,0.5-0.9,0.9c-0.2,0.4-0.3,0.9-0.3,1.5c0,0.6,0.1,1.1,0.3,1.5c0.2,0.4,0.5,0.7,0.9,0.9C143,593,143.3,593,143.8,593z
			 M150.2,584.4v9.6H149v-9.6H150.2z M155.3,594.1c-0.7,0-1.3-0.2-1.8-0.5c-0.5-0.3-1-0.7-1.3-1.3c-0.3-0.6-0.5-1.2-0.5-2
			c0-0.7,0.2-1.4,0.5-1.9c0.3-0.6,0.8-1,1.3-1.3c0.5-0.3,1.2-0.5,1.8-0.5c0.7,0,1.3,0.2,1.8,0.5c0.5,0.3,1,0.7,1.3,1.3
			c0.3,0.6,0.5,1.2,0.5,1.9s-0.2,1.4-0.5,2c-0.3,0.6-0.8,1-1.3,1.3C156.6,593.9,156,594.1,155.3,594.1z M155.3,593
			c0.4,0,0.8-0.1,1.2-0.3c0.4-0.2,0.7-0.5,0.9-0.9c0.2-0.4,0.4-0.9,0.4-1.5c0-0.6-0.1-1.1-0.3-1.5c-0.2-0.4-0.5-0.7-0.9-0.9
			c-0.4-0.2-0.8-0.3-1.2-0.3c-0.4,0-0.8,0.1-1.2,0.3c-0.4,0.2-0.6,0.5-0.9,0.9c-0.2,0.4-0.3,0.9-0.3,1.5c0,0.6,0.1,1.1,0.3,1.5
			c0.2,0.4,0.5,0.7,0.9,0.9C154.5,593,154.9,593,155.3,593z M170.3,586.8v7.1h-1.2v-1.1c-0.2,0.4-0.5,0.6-0.9,0.9
			c-0.4,0.2-0.8,0.3-1.3,0.3c-0.6,0-1.1-0.1-1.5-0.3c-0.4-0.2-0.8-0.6-1.1-1c-0.3-0.5-0.4-1-0.4-1.7v-4.2h1.2v4
			c0,0.7,0.2,1.2,0.5,1.6c0.4,0.4,0.8,0.6,1.5,0.6c0.6,0,1.1-0.2,1.5-0.6s0.5-1,0.5-1.7v-3.9H170.3z M175.7,586.7
			c0.9,0,1.6,0.3,2.1,0.8c0.5,0.5,0.8,1.3,0.8,2.3v4.2h-1.2v-4c0-0.7-0.2-1.3-0.5-1.6c-0.4-0.4-0.8-0.6-1.5-0.6
			c-0.6,0-1.1,0.2-1.5,0.6c-0.4,0.4-0.5,1-0.5,1.7v3.9h-1.2v-7.1h1.2v1c0.2-0.4,0.6-0.6,0.9-0.8
			C174.8,586.8,175.3,586.7,175.7,586.7z M183.7,594.1c-0.7,0-1.3-0.2-1.8-0.5c-0.5-0.3-1-0.7-1.3-1.3c-0.3-0.6-0.5-1.2-0.5-2
			c0-0.7,0.2-1.4,0.5-1.9c0.3-0.6,0.8-1,1.3-1.3c0.5-0.3,1.2-0.5,1.8-0.5c0.7,0,1.3,0.2,1.8,0.5c0.5,0.3,1,0.7,1.3,1.3
			c0.3,0.6,0.5,1.2,0.5,1.9s-0.2,1.4-0.5,2c-0.3,0.6-0.8,1-1.3,1.3C185,593.9,184.4,594.1,183.7,594.1z M183.7,593
			c0.4,0,0.8-0.1,1.2-0.3c0.4-0.2,0.7-0.5,0.9-0.9c0.2-0.4,0.4-0.9,0.4-1.5c0-0.6-0.1-1.1-0.3-1.5c-0.2-0.4-0.5-0.7-0.9-0.9
			c-0.4-0.2-0.8-0.3-1.2-0.3c-0.4,0-0.8,0.1-1.2,0.3c-0.4,0.2-0.6,0.5-0.9,0.9c-0.2,0.4-0.3,0.9-0.3,1.5c0,0.6,0.1,1.1,0.3,1.5
			c0.2,0.4,0.5,0.7,0.9,0.9C182.9,593,183.3,593,183.7,593z"/>
		<path d="M124.1,628h-1.2l-4.8-7.2v7.2H117v-9.1h1.2l4.8,7.2v-7.2h1.2V628z M129.2,628.1c-0.7,0-1.3-0.2-1.8-0.5
			c-0.5-0.3-1-0.7-1.3-1.3c-0.3-0.6-0.5-1.2-0.5-2c0-0.7,0.2-1.4,0.5-1.9c0.3-0.6,0.8-1,1.3-1.3c0.5-0.3,1.2-0.5,1.8-0.5
			c0.7,0,1.3,0.2,1.8,0.5c0.5,0.3,1,0.7,1.3,1.3c0.3,0.6,0.5,1.2,0.5,1.9s-0.2,1.4-0.5,2c-0.3,0.6-0.8,1-1.3,1.3
			C130.5,627.9,129.9,628.1,129.2,628.1z M129.2,627c0.4,0,0.8-0.1,1.2-0.3c0.4-0.2,0.7-0.5,0.9-0.9c0.2-0.4,0.4-0.9,0.4-1.5
			c0-0.6-0.1-1.1-0.3-1.5c-0.2-0.4-0.5-0.7-0.9-0.9c-0.4-0.2-0.8-0.3-1.2-0.3c-0.4,0-0.8,0.1-1.2,0.3c-0.4,0.2-0.6,0.5-0.9,0.9
			c-0.2,0.4-0.3,0.9-0.3,1.5c0,0.6,0.1,1.1,0.3,1.5c0.2,0.4,0.5,0.7,0.9,0.9C128.4,627,128.8,627,129.2,627z M135.7,626.3l-1.5,3.5
			h-0.8l0.9-3.5H135.7z M149.1,620.7c0.6,0,1,0.1,1.5,0.4c0.4,0.2,0.8,0.6,1,1c0.3,0.5,0.4,1,0.4,1.7v4.2h-1.2v-4
			c0-0.7-0.2-1.3-0.5-1.6c-0.3-0.4-0.8-0.6-1.4-0.6c-0.6,0-1.1,0.2-1.5,0.6c-0.4,0.4-0.5,1-0.5,1.7v3.9h-1.2v-4
			c0-0.7-0.2-1.3-0.5-1.6c-0.3-0.4-0.8-0.6-1.4-0.6c-0.6,0-1.1,0.2-1.5,0.6c-0.4,0.4-0.5,1-0.5,1.7v3.9h-1.2v-7.1h1.2v1
			c0.2-0.4,0.5-0.7,0.9-0.9c0.4-0.2,0.8-0.3,1.3-0.3c0.6,0,1.1,0.1,1.6,0.4c0.5,0.3,0.8,0.7,1,1.2c0.2-0.5,0.5-0.9,1-1.2
			C148,620.9,148.5,620.7,149.1,620.7z M153.5,624.4c0-0.7,0.1-1.4,0.4-1.9c0.3-0.6,0.7-1,1.2-1.3c0.5-0.3,1.1-0.5,1.7-0.5
			c0.6,0,1.2,0.1,1.6,0.4c0.5,0.3,0.8,0.6,1,1v-1.3h1.2v7.1h-1.2v-1.3c-0.2,0.4-0.6,0.8-1.1,1c-0.5,0.3-1,0.4-1.6,0.4
			c-0.6,0-1.2-0.2-1.7-0.5c-0.5-0.3-0.9-0.8-1.2-1.3C153.6,625.7,153.5,625.1,153.5,624.4z M159.5,624.4c0-0.5-0.1-1-0.3-1.4
			c-0.2-0.4-0.5-0.7-0.9-0.9c-0.4-0.2-0.8-0.3-1.2-0.3s-0.8,0.1-1.2,0.3s-0.7,0.5-0.9,0.9c-0.2,0.4-0.3,0.9-0.3,1.4
			c0,0.5,0.1,1,0.3,1.4c0.2,0.4,0.5,0.7,0.9,0.9c0.4,0.2,0.8,0.3,1.2,0.3s0.8-0.1,1.2-0.3c0.4-0.2,0.7-0.5,0.9-0.9
			C159.4,625.4,159.5,624.9,159.5,624.4z M168.8,626.9l2.2-6h1.3l-2.8,7.1h-1.4l-2.8-7.1h1.3L168.8,626.9z M176.5,628.1
			c-0.7,0-1.3-0.2-1.8-0.5c-0.5-0.3-1-0.7-1.3-1.3c-0.3-0.6-0.5-1.2-0.5-2c0-0.7,0.2-1.4,0.5-1.9c0.3-0.6,0.8-1,1.3-1.3
			c0.5-0.3,1.2-0.5,1.8-0.5c0.7,0,1.3,0.2,1.8,0.5c0.5,0.3,1,0.7,1.3,1.3c0.3,0.6,0.5,1.2,0.5,1.9s-0.2,1.4-0.5,2
			c-0.3,0.6-0.8,1-1.3,1.3C177.8,627.9,177.2,628.1,176.5,628.1z M176.5,627c0.4,0,0.8-0.1,1.2-0.3c0.4-0.2,0.7-0.5,0.9-0.9
			c0.2-0.4,0.4-0.9,0.4-1.5c0-0.6-0.1-1.1-0.3-1.5c-0.2-0.4-0.5-0.7-0.9-0.9c-0.4-0.2-0.8-0.3-1.2-0.3c-0.4,0-0.8,0.1-1.2,0.3
			c-0.4,0.2-0.6,0.5-0.9,0.9c-0.2,0.4-0.3,0.9-0.3,1.5c0,0.6,0.1,1.1,0.3,1.5c0.2,0.4,0.5,0.7,0.9,0.9
			C175.7,627,176.1,627,176.5,627z M182.9,622c0.2-0.4,0.5-0.7,0.9-0.9c0.4-0.2,0.9-0.3,1.4-0.3v1.2h-0.3c-1.3,0-2,0.7-2,2.2v3.9
			h-1.2v-7.1h1.2V622z M187.8,622c0.2-0.4,0.5-0.7,0.9-0.9c0.4-0.2,0.9-0.3,1.4-0.3v1.2h-0.3c-1.3,0-2,0.7-2,2.2v3.9h-1.2v-7.1h1.2
			V622z M197.9,624.1c0,0.2,0,0.5,0,0.7h-5.7c0,0.7,0.3,1.3,0.7,1.7c0.4,0.4,1,0.6,1.6,0.6c0.5,0,0.9-0.1,1.3-0.4
			c0.3-0.2,0.6-0.6,0.7-1h1.3c-0.2,0.7-0.6,1.2-1.1,1.7c-0.6,0.4-1.3,0.6-2.1,0.6c-0.7,0-1.3-0.2-1.8-0.5c-0.5-0.3-0.9-0.7-1.2-1.3
			c-0.3-0.6-0.5-1.2-0.5-2s0.1-1.4,0.4-1.9c0.3-0.6,0.7-1,1.2-1.3c0.5-0.3,1.2-0.5,1.8-0.5c0.7,0,1.3,0.1,1.8,0.4s0.9,0.7,1.2,1.2
			C197.8,622.9,197.9,623.5,197.9,624.1z M196.7,623.9c0-0.5-0.1-0.8-0.3-1.2c-0.2-0.3-0.5-0.6-0.8-0.7c-0.3-0.2-0.7-0.3-1.1-0.3
			c-0.6,0-1.1,0.2-1.5,0.6c-0.4,0.4-0.7,0.9-0.7,1.6H196.7z M200.1,619.7c-0.2,0-0.4-0.1-0.6-0.2c-0.2-0.2-0.2-0.3-0.2-0.6
			c0-0.2,0.1-0.4,0.2-0.6c0.2-0.2,0.3-0.2,0.6-0.2c0.2,0,0.4,0.1,0.5,0.2c0.2,0.2,0.2,0.3,0.2,0.6c0,0.2-0.1,0.4-0.2,0.6
			C200.5,619.6,200.3,619.7,200.1,619.7z M200.7,620.8v7.1h-1.2v-7.1H200.7z M205.7,624.4c0-0.7,0.1-1.4,0.4-1.9
			c0.3-0.6,0.7-1,1.2-1.3c0.5-0.3,1.1-0.5,1.7-0.5c0.6,0,1.2,0.1,1.6,0.4c0.5,0.3,0.8,0.6,1,1v-1.3h1.2v7.1h-1.2v-1.3
			c-0.2,0.4-0.6,0.8-1.1,1c-0.5,0.3-1,0.4-1.6,0.4c-0.6,0-1.2-0.2-1.7-0.5s-0.9-0.8-1.2-1.3S205.7,625.1,205.7,624.4z M211.8,624.4
			c0-0.5-0.1-1-0.3-1.4c-0.2-0.4-0.5-0.7-0.9-0.9c-0.4-0.2-0.8-0.3-1.2-0.3s-0.8,0.1-1.2,0.3s-0.7,0.5-0.9,0.9s-0.3,0.9-0.3,1.4
			c0,0.5,0.1,1,0.3,1.4c0.2,0.4,0.5,0.7,0.9,0.9c0.4,0.2,0.8,0.3,1.2,0.3s0.8-0.1,1.2-0.3c0.4-0.2,0.7-0.5,0.9-0.9
			C211.7,625.4,211.8,624.9,211.8,624.4z M217.6,626.9l2.2-6h1.3l-2.8,7.1h-1.4l-2.8-7.1h1.3L217.6,626.9z M228.7,624.1
			c0,0.2,0,0.5,0,0.7H223c0,0.7,0.3,1.3,0.7,1.7c0.4,0.4,1,0.6,1.6,0.6c0.5,0,0.9-0.1,1.3-0.4c0.3-0.2,0.6-0.6,0.7-1h1.3
			c-0.2,0.7-0.6,1.2-1.1,1.7c-0.6,0.4-1.3,0.6-2.1,0.6c-0.7,0-1.3-0.2-1.8-0.5c-0.5-0.3-0.9-0.7-1.2-1.3c-0.3-0.6-0.5-1.2-0.5-2
			s0.1-1.4,0.4-1.9c0.3-0.6,0.7-1,1.2-1.3c0.5-0.3,1.2-0.5,1.8-0.5c0.7,0,1.3,0.1,1.8,0.4c0.5,0.3,0.9,0.7,1.2,1.2
			C228.6,622.9,228.7,623.5,228.7,624.1z M227.5,623.9c0-0.5-0.1-0.8-0.3-1.2c-0.2-0.3-0.5-0.6-0.8-0.7c-0.3-0.2-0.7-0.3-1.1-0.3
			c-0.6,0-1.1,0.2-1.5,0.6c-0.4,0.4-0.7,0.9-0.7,1.6H227.5z M231.5,622c0.2-0.4,0.5-0.7,0.9-0.9c0.4-0.2,0.9-0.3,1.4-0.3v1.2h-0.3
			c-1.3,0-2,0.7-2,2.2v3.9h-1.2v-7.1h1.2V622z M236.3,618.4v9.6h-1.2v-9.6H236.3z M241.5,628.1c-0.7,0-1.3-0.2-1.8-0.5
			c-0.5-0.3-1-0.7-1.3-1.3c-0.3-0.6-0.5-1.2-0.5-2c0-0.7,0.2-1.4,0.5-1.9c0.3-0.6,0.8-1,1.3-1.3c0.5-0.3,1.2-0.5,1.8-0.5
			c0.7,0,1.3,0.2,1.8,0.5c0.5,0.3,1,0.7,1.3,1.3c0.3,0.6,0.5,1.2,0.5,1.9s-0.2,1.4-0.5,2c-0.3,0.6-0.8,1-1.3,1.3
			C242.8,627.9,242.1,628.1,241.5,628.1z M241.5,627c0.4,0,0.8-0.1,1.2-0.3c0.4-0.2,0.7-0.5,0.9-0.9c0.2-0.4,0.4-0.9,0.4-1.5
			c0-0.6-0.1-1.1-0.3-1.5c-0.2-0.4-0.5-0.7-0.9-0.9c-0.4-0.2-0.8-0.3-1.2-0.3c-0.4,0-0.8,0.1-1.2,0.3c-0.4,0.2-0.6,0.5-0.9,0.9
			c-0.2,0.4-0.3,0.9-0.3,1.5c0,0.6,0.1,1.1,0.3,1.5c0.2,0.4,0.5,0.7,0.9,0.9C240.6,627,241,627,241.5,627z"/>
		<path d="M124.1,663h-1.2l-4.8-7.2v7.2H117v-9.1h1.2l4.8,7.2v-7.2h1.2V663z M129.2,663.1c-0.7,0-1.3-0.2-1.8-0.5
			c-0.5-0.3-1-0.7-1.3-1.3c-0.3-0.6-0.5-1.2-0.5-2c0-0.7,0.2-1.4,0.5-1.9c0.3-0.6,0.8-1,1.3-1.3c0.5-0.3,1.2-0.5,1.8-0.5
			c0.7,0,1.3,0.2,1.8,0.5c0.5,0.3,1,0.7,1.3,1.3c0.3,0.6,0.5,1.2,0.5,1.9s-0.2,1.4-0.5,2c-0.3,0.6-0.8,1-1.3,1.3
			C130.5,662.9,129.9,663.1,129.2,663.1z M129.2,662c0.4,0,0.8-0.1,1.2-0.3c0.4-0.2,0.7-0.5,0.9-0.9c0.2-0.4,0.4-0.9,0.4-1.5
			c0-0.6-0.1-1.1-0.3-1.5c-0.2-0.4-0.5-0.7-0.9-0.9c-0.4-0.2-0.8-0.3-1.2-0.3c-0.4,0-0.8,0.1-1.2,0.3c-0.4,0.2-0.6,0.5-0.9,0.9
			c-0.2,0.4-0.3,0.9-0.3,1.5c0,0.6,0.1,1.1,0.3,1.5c0.2,0.4,0.5,0.7,0.9,0.9C128.4,662,128.8,662,129.2,662z M135.7,661.3l-1.5,3.5
			h-0.8l0.9-3.5H135.7z M144,655.7c0.9,0,1.6,0.3,2.1,0.8c0.5,0.5,0.8,1.3,0.8,2.3v4.2h-1.2v-4c0-0.7-0.2-1.3-0.5-1.6
			c-0.4-0.4-0.8-0.6-1.5-0.6c-0.6,0-1.1,0.2-1.5,0.6c-0.4,0.4-0.5,1-0.5,1.7v3.9h-1.2v-7.1h1.2v1c0.2-0.4,0.6-0.6,0.9-0.8
			C143,655.8,143.5,655.7,144,655.7z M151.9,663.1c-0.7,0-1.3-0.2-1.8-0.5c-0.5-0.3-1-0.7-1.3-1.3c-0.3-0.6-0.5-1.2-0.5-2
			c0-0.7,0.2-1.4,0.5-1.9c0.3-0.6,0.8-1,1.3-1.3c0.5-0.3,1.2-0.5,1.8-0.5s1.3,0.2,1.8,0.5c0.5,0.3,1,0.7,1.3,1.3
			c0.3,0.6,0.5,1.2,0.5,1.9s-0.2,1.4-0.5,2c-0.3,0.6-0.8,1-1.3,1.3C153.2,662.9,152.6,663.1,151.9,663.1z M151.9,662
			c0.4,0,0.8-0.1,1.2-0.3c0.4-0.2,0.7-0.5,0.9-0.9c0.2-0.4,0.4-0.9,0.4-1.5c0-0.6-0.1-1.1-0.3-1.5c-0.2-0.4-0.5-0.7-0.9-0.9
			c-0.4-0.2-0.8-0.3-1.2-0.3c-0.4,0-0.8,0.1-1.2,0.3c-0.4,0.2-0.6,0.5-0.9,0.9c-0.2,0.4-0.3,0.9-0.3,1.5c0,0.6,0.1,1.1,0.3,1.5
			c0.2,0.4,0.5,0.7,0.9,0.9C151.1,662,151.5,662,151.9,662z M160.6,655.7c0.9,0,1.6,0.3,2.1,0.8c0.5,0.5,0.8,1.3,0.8,2.3v4.2h-1.2
			v-4c0-0.7-0.2-1.3-0.5-1.6c-0.4-0.4-0.8-0.6-1.5-0.6c-0.6,0-1.1,0.2-1.5,0.6c-0.4,0.4-0.5,1-0.5,1.7v3.9h-1.2v-7.1h1.2v1
			c0.2-0.4,0.6-0.6,0.9-0.8C159.7,655.8,160.1,655.7,160.6,655.7z M177.5,655.7c0.6,0,1,0.1,1.5,0.4c0.4,0.2,0.8,0.6,1,1
			c0.3,0.5,0.4,1,0.4,1.7v4.2h-1.2v-4c0-0.7-0.2-1.3-0.5-1.6c-0.3-0.4-0.8-0.6-1.4-0.6c-0.6,0-1.1,0.2-1.5,0.6
			c-0.4,0.4-0.5,1-0.5,1.7v3.9h-1.2v-4c0-0.7-0.2-1.3-0.5-1.6c-0.3-0.4-0.8-0.6-1.4-0.6c-0.6,0-1.1,0.2-1.5,0.6
			c-0.4,0.4-0.5,1-0.5,1.7v3.9h-1.2v-7.1h1.2v1c0.2-0.4,0.5-0.7,0.9-0.9c0.4-0.2,0.8-0.3,1.3-0.3c0.6,0,1.1,0.1,1.6,0.4
			c0.5,0.3,0.8,0.7,1,1.2c0.2-0.5,0.5-0.9,1-1.2C176.4,655.9,176.9,655.7,177.5,655.7z M182.9,654.7c-0.2,0-0.4-0.1-0.6-0.2
			s-0.2-0.3-0.2-0.6c0-0.2,0.1-0.4,0.2-0.6s0.3-0.2,0.6-0.2c0.2,0,0.4,0.1,0.5,0.2c0.2,0.2,0.2,0.3,0.2,0.6c0,0.2-0.1,0.4-0.2,0.6
			C183.3,654.6,183.1,654.7,182.9,654.7z M183.5,655.8v7.1h-1.2v-7.1H183.5z M189.6,654.7c-0.2,0-0.4-0.1-0.6-0.2
			c-0.2-0.2-0.2-0.3-0.2-0.6c0-0.2,0.1-0.4,0.2-0.6c0.2-0.2,0.3-0.2,0.6-0.2c0.2,0,0.4,0.1,0.5,0.2c0.2,0.2,0.2,0.3,0.2,0.6
			c0,0.2-0.1,0.4-0.2,0.6C190,654.6,189.8,654.7,189.6,654.7z M190.2,655.8v7.1H189v-7.1H190.2z M195.6,655.7c0.9,0,1.6,0.3,2.1,0.8
			c0.5,0.5,0.8,1.3,0.8,2.3v4.2h-1.2v-4c0-0.7-0.2-1.3-0.5-1.6c-0.4-0.4-0.8-0.6-1.5-0.6c-0.6,0-1.1,0.2-1.5,0.6
			c-0.4,0.4-0.5,1-0.5,1.7v3.9h-1.2v-7.1h1.2v1c0.2-0.4,0.6-0.6,0.9-0.8C194.7,655.8,195.2,655.7,195.6,655.7z M201.9,656.8v4.2
			c0,0.3,0.1,0.6,0.2,0.7c0.1,0.1,0.4,0.2,0.8,0.2h0.9v1h-1.1c-0.7,0-1.2-0.2-1.5-0.5c-0.3-0.3-0.5-0.8-0.5-1.5v-4.2h-0.9v-1h0.9
			v-1.8h1.2v1.8h1.9v1H201.9z M211.7,659.1c0,0.2,0,0.5,0,0.7H206c0,0.7,0.3,1.3,0.7,1.7c0.4,0.4,1,0.6,1.6,0.6
			c0.5,0,0.9-0.1,1.3-0.4c0.3-0.2,0.6-0.6,0.7-1h1.3c-0.2,0.7-0.6,1.2-1.1,1.7c-0.6,0.4-1.3,0.6-2.1,0.6c-0.7,0-1.3-0.2-1.8-0.5
			c-0.5-0.3-0.9-0.7-1.2-1.3c-0.3-0.6-0.5-1.2-0.5-2s0.1-1.4,0.4-1.9c0.3-0.6,0.7-1,1.2-1.3c0.5-0.3,1.2-0.5,1.8-0.5
			c0.7,0,1.3,0.1,1.8,0.4c0.5,0.3,0.9,0.7,1.2,1.2C211.6,657.9,211.7,658.5,211.7,659.1z M210.5,658.9c0-0.5-0.1-0.8-0.3-1.2
			c-0.2-0.3-0.5-0.6-0.8-0.7c-0.3-0.2-0.7-0.3-1.1-0.3c-0.6,0-1.1,0.2-1.5,0.6c-0.4,0.4-0.7,0.9-0.7,1.6H210.5z M214.5,657
			c0.2-0.4,0.5-0.7,0.9-0.9c0.4-0.2,0.9-0.3,1.4-0.3v1.2h-0.3c-1.3,0-2,0.7-2,2.2v3.9h-1.2v-7.1h1.2V657z M224.6,659.1
			c0,0.2,0,0.5,0,0.7h-5.7c0,0.7,0.3,1.3,0.7,1.7c0.4,0.4,1,0.6,1.6,0.6c0.5,0,0.9-0.1,1.3-0.4c0.3-0.2,0.6-0.6,0.7-1h1.3
			c-0.2,0.7-0.6,1.2-1.1,1.7c-0.6,0.4-1.3,0.6-2.1,0.6c-0.7,0-1.3-0.2-1.8-0.5c-0.5-0.3-0.9-0.7-1.2-1.3c-0.3-0.6-0.5-1.2-0.5-2
			s0.1-1.4,0.4-1.9c0.3-0.6,0.7-1,1.2-1.3c0.5-0.3,1.2-0.5,1.8-0.5c0.7,0,1.3,0.1,1.8,0.4c0.5,0.3,0.9,0.7,1.2,1.2
			C224.5,657.9,224.6,658.5,224.6,659.1z M223.4,658.9c0-0.5-0.1-0.8-0.3-1.2c-0.2-0.3-0.5-0.6-0.8-0.7c-0.3-0.2-0.7-0.3-1.1-0.3
			c-0.6,0-1.1,0.2-1.5,0.6c-0.4,0.4-0.7,0.9-0.7,1.6H223.4z M228.7,663.1c-0.5,0-1-0.1-1.5-0.3c-0.4-0.2-0.8-0.5-1-0.8
			c-0.3-0.3-0.4-0.7-0.4-1.2h1.2c0,0.4,0.2,0.6,0.5,0.9c0.3,0.2,0.7,0.3,1.2,0.3c0.5,0,0.8-0.1,1.1-0.3c0.3-0.2,0.4-0.5,0.4-0.8
			c0-0.3-0.1-0.5-0.4-0.7c-0.3-0.2-0.7-0.3-1.3-0.5c-0.5-0.1-1-0.3-1.3-0.4c-0.3-0.1-0.6-0.4-0.9-0.6c-0.2-0.3-0.4-0.7-0.4-1.1
			c0-0.4,0.1-0.7,0.3-1c0.2-0.3,0.5-0.5,0.9-0.7c0.4-0.2,0.9-0.3,1.4-0.3c0.8,0,1.4,0.2,1.9,0.6c0.5,0.4,0.7,0.9,0.8,1.6h-1.2
			c0-0.4-0.2-0.7-0.5-0.9c-0.3-0.2-0.6-0.3-1.1-0.3c-0.4,0-0.8,0.1-1,0.3c-0.3,0.2-0.4,0.4-0.4,0.7c0,0.2,0.1,0.4,0.2,0.6
			c0.2,0.1,0.3,0.3,0.6,0.4c0.2,0.1,0.6,0.2,1,0.3c0.5,0.1,0.9,0.3,1.2,0.4c0.3,0.1,0.6,0.3,0.8,0.6c0.2,0.3,0.4,0.6,0.4,1.1
			c0,0.4-0.1,0.7-0.3,1.1c-0.2,0.3-0.5,0.6-0.9,0.7C229.7,663,229.2,663.1,228.7,663.1z M235.5,663.1c-0.5,0-1-0.1-1.5-0.3
			c-0.4-0.2-0.8-0.5-1-0.8c-0.3-0.3-0.4-0.7-0.4-1.2h1.2c0,0.4,0.2,0.6,0.5,0.9c0.3,0.2,0.7,0.3,1.2,0.3c0.5,0,0.8-0.1,1.1-0.3
			c0.3-0.2,0.4-0.5,0.4-0.8c0-0.3-0.1-0.5-0.4-0.7c-0.3-0.2-0.7-0.3-1.3-0.5c-0.5-0.1-1-0.3-1.3-0.4c-0.3-0.1-0.6-0.4-0.9-0.6
			c-0.2-0.3-0.4-0.7-0.4-1.1c0-0.4,0.1-0.7,0.3-1c0.2-0.3,0.5-0.5,0.9-0.7c0.4-0.2,0.9-0.3,1.4-0.3c0.8,0,1.4,0.2,1.9,0.6
			c0.5,0.4,0.7,0.9,0.8,1.6h-1.2c0-0.4-0.2-0.7-0.5-0.9c-0.3-0.2-0.6-0.3-1.1-0.3c-0.4,0-0.8,0.1-1,0.3c-0.3,0.2-0.4,0.4-0.4,0.7
			c0,0.2,0.1,0.4,0.2,0.6c0.2,0.1,0.3,0.3,0.6,0.4c0.2,0.1,0.6,0.2,1,0.3c0.5,0.1,0.9,0.3,1.2,0.4c0.3,0.1,0.6,0.3,0.8,0.6
			c0.2,0.3,0.4,0.6,0.4,1.1c0,0.4-0.1,0.7-0.3,1.1c-0.2,0.3-0.5,0.6-0.9,0.7C236.5,663,236,663.1,235.5,663.1z M239.3,659.4
			c0-0.7,0.1-1.4,0.4-1.9c0.3-0.6,0.7-1,1.2-1.3c0.5-0.3,1.1-0.5,1.7-0.5c0.6,0,1.2,0.1,1.6,0.4c0.5,0.3,0.8,0.6,1,1v-1.3h1.2v7.1
			h-1.2v-1.3c-0.2,0.4-0.6,0.8-1.1,1c-0.5,0.3-1,0.4-1.6,0.4c-0.6,0-1.2-0.2-1.7-0.5c-0.5-0.3-0.9-0.8-1.2-1.3
			C239.5,660.7,239.3,660.1,239.3,659.4z M245.4,659.4c0-0.5-0.1-1-0.3-1.4c-0.2-0.4-0.5-0.7-0.9-0.9c-0.4-0.2-0.8-0.3-1.2-0.3
			s-0.8,0.1-1.2,0.3s-0.7,0.5-0.9,0.9c-0.2,0.4-0.3,0.9-0.3,1.4c0,0.5,0.1,1,0.3,1.4c0.2,0.4,0.5,0.7,0.9,0.9
			c0.4,0.2,0.8,0.3,1.2,0.3s0.8-0.1,1.2-0.3c0.4-0.2,0.7-0.5,0.9-0.9C245.3,660.4,245.4,659.9,245.4,659.4z"/>
		<path class="st2" d="M53,264h284c11,0,20,9,20,20v138c0,11-9,20-20,20H53c-11,0-20-9-20-20V284C33,272.9,42,264,53,264z"/>
		<path class="st0" d="M82,350h226c13.3,0,24,10.7,24,24l0,0c0,13.3-10.7,24-24,24H82c-13.3,0-24-10.7-24-24l0,0
			C58,360.7,68.7,350,82,350z"/>
		<path class="st6" d="M84,357h165c9.4,0,17,7.6,17,17l0,0c0,9.4-7.6,17-17,17H84c-9.4,0-17-7.6-17-17l0,0C67,364.6,74.6,357,84,357
			z"/>
		<path class="st4" d="M65.5,314.9l-2.2-2.9c-0.6,0.1-1.3,0.2-1.9,0.2c-1.6,0-3-0.4-4.4-1.1c-1.3-0.7-2.4-1.8-3.1-3.1
			c-0.8-1.3-1.2-2.8-1.2-4.5c0-1.6,0.4-3.1,1.2-4.4c0.8-1.3,1.8-2.3,3.1-3.1c1.3-0.7,2.8-1.1,4.4-1.1s3,0.4,4.3,1.1
			c1.3,0.7,2.4,1.8,3.1,3.1c0.8,1.3,1.2,2.8,1.2,4.4c0,1.4-0.3,2.8-0.9,4c-0.6,1.2-1.4,2.2-2.4,3l3.7,4.4H65.5z M57,303.5
			c0,1.5,0.4,2.7,1.2,3.6c0.8,0.9,1.9,1.3,3.3,1.3c1.3,0,2.4-0.4,3.2-1.3c0.8-0.9,1.2-2.1,1.2-3.6c0-1.5-0.4-2.7-1.2-3.6
			c-0.8-0.9-1.9-1.3-3.2-1.3c-1.4,0-2.4,0.4-3.3,1.3C57.4,300.8,57,302,57,303.5z M85.6,298.6V312h-4.1v-1.8c-0.4,0.6-1,1.1-1.7,1.4
			c-0.7,0.4-1.5,0.5-2.4,0.5c-1,0-1.9-0.2-2.7-0.7c-0.8-0.5-1.4-1.1-1.8-2c-0.4-0.9-0.6-1.9-0.6-3v-7.8h4.1v7.3
			c0,0.9,0.2,1.6,0.7,2.1c0.5,0.5,1.1,0.7,1.9,0.7c0.8,0,1.4-0.2,1.9-0.7c0.5-0.5,0.7-1.2,0.7-2.1v-7.3H85.6z M87.8,305.3
			c0-1.4,0.3-2.6,0.8-3.6c0.5-1,1.2-1.8,2.1-2.4c0.9-0.6,1.9-0.8,3-0.8c0.9,0,1.8,0.2,2.5,0.6c0.7,0.4,1.3,0.9,1.7,1.5v-1.9h4.1V312
			h-4.1v-1.9c-0.4,0.6-1,1.1-1.7,1.5c-0.7,0.4-1.5,0.6-2.5,0.6c-1.1,0-2.1-0.3-3-0.8c-0.9-0.6-1.6-1.4-2.1-2.4
			C88,307.8,87.8,306.6,87.8,305.3z M97.8,305.3c0-1-0.3-1.8-0.9-2.4c-0.6-0.6-1.2-0.9-2.1-0.9s-1.5,0.3-2.1,0.9
			c-0.6,0.6-0.8,1.4-0.8,2.4s0.3,1.8,0.8,2.4c0.6,0.6,1.3,0.9,2.1,0.9s1.5-0.3,2.1-0.9C97.5,307.1,97.8,306.3,97.8,305.3z
			 M113,298.4c1.6,0,2.8,0.5,3.7,1.5c0.9,1,1.4,2.4,1.4,4.2v7.8h-4.1v-7.3c0-0.9-0.2-1.6-0.7-2.1c-0.5-0.5-1.1-0.7-1.9-0.7
			c-0.8,0-1.4,0.2-1.9,0.7c-0.5,0.5-0.7,1.2-0.7,2.1v7.3h-4.1v-13.4h4.1v1.8c0.4-0.6,1-1.1,1.7-1.4
			C111.4,298.6,112.1,298.4,113,298.4z M128.5,308.5v3.5h-2.1c-1.5,0-2.6-0.4-3.5-1.1c-0.8-0.7-1.2-1.9-1.2-3.6V302h-1.6v-3.4h1.6
			v-3.3h4.1v3.3h2.7v3.4h-2.7v5.4c0,0.4,0.1,0.7,0.3,0.9c0.2,0.2,0.5,0.3,1,0.3H128.5z M136.9,312.2c-1.3,0-2.5-0.3-3.6-0.8
			c-1-0.6-1.9-1.4-2.5-2.4c-0.6-1-0.9-2.3-0.9-3.6c0-1.4,0.3-2.6,0.9-3.6c0.6-1.1,1.4-1.9,2.5-2.4s2.2-0.8,3.6-0.8s2.5,0.3,3.6,0.8
			s1.9,1.4,2.5,2.4c0.6,1,0.9,2.2,0.9,3.6c0,1.4-0.3,2.6-0.9,3.6c-0.6,1-1.4,1.8-2.5,2.4C139.4,311.9,138.2,312.2,136.9,312.2z
			 M136.9,308.6c0.8,0,1.4-0.3,2-0.9c0.6-0.6,0.8-1.4,0.8-2.5c0-1.1-0.3-1.9-0.8-2.5c-0.5-0.6-1.2-0.9-2-0.9c-0.8,0-1.5,0.3-2,0.9
			c-0.5,0.6-0.8,1.4-0.8,2.5c0,1.1,0.3,1.9,0.8,2.5C135.4,308.3,136.1,308.6,136.9,308.6z M158.6,308.5v3.5h-2.1
			c-1.5,0-2.6-0.4-3.5-1.1c-0.8-0.7-1.2-1.9-1.2-3.6V302h-1.6v-3.4h1.6v-3.3h4.1v3.3h2.7v3.4h-2.7v5.4c0,0.4,0.1,0.7,0.3,0.9
			c0.2,0.2,0.5,0.3,1,0.3H158.6z M163,297.2c-0.7,0-1.3-0.2-1.8-0.6c-0.4-0.4-0.7-1-0.7-1.6c0-0.6,0.2-1.2,0.7-1.6
			c0.5-0.4,1.1-0.6,1.8-0.6c0.7,0,1.3,0.2,1.7,0.6c0.5,0.4,0.7,0.9,0.7,1.6c0,0.6-0.2,1.2-0.7,1.6C164.2,297,163.7,297.2,163,297.2z
			 M165,298.6V312h-4.1v-13.4H165z M178.5,312.2c-1.2,0-2.2-0.2-3.1-0.6c-0.9-0.4-1.6-0.9-2.2-1.6c-0.5-0.7-0.8-1.5-0.9-2.4h4.1
			c0,0.5,0.3,0.8,0.6,1.1s0.9,0.4,1.4,0.4c0.5,0,0.9-0.1,1.2-0.3c0.3-0.2,0.4-0.5,0.4-0.8c0-0.4-0.2-0.7-0.6-0.8
			c-0.4-0.2-1-0.4-1.9-0.6c-1-0.2-1.8-0.5-2.4-0.7c-0.6-0.3-1.2-0.6-1.7-1.2c-0.5-0.5-0.7-1.3-0.7-2.2c0-0.8,0.2-1.5,0.6-2.1
			c0.4-0.6,1.1-1.1,1.9-1.5c0.8-0.4,1.8-0.6,3-0.6c1.7,0,3,0.4,4,1.2c1,0.8,1.5,1.9,1.7,3.3h-3.8c-0.1-0.5-0.3-0.8-0.6-1.1
			c-0.3-0.3-0.8-0.4-1.3-0.4c-0.5,0-0.8,0.1-1.1,0.3c-0.3,0.2-0.4,0.4-0.4,0.7c0,0.4,0.2,0.7,0.6,0.9c0.4,0.2,1.1,0.4,1.9,0.6
			c1,0.3,1.8,0.5,2.4,0.8c0.6,0.2,1.2,0.6,1.6,1.2c0.5,0.5,0.7,1.3,0.7,2.2c0,0.8-0.2,1.5-0.7,2.1c-0.4,0.6-1.1,1.1-1.9,1.4
			C180.6,312,179.6,312.2,178.5,312.2z M199.1,305.1c0,0.4,0,0.8-0.1,1.2h-9.3c0.1,0.8,0.3,1.5,0.8,1.9c0.5,0.4,1.1,0.6,1.8,0.6
			c1,0,1.7-0.4,2.1-1.3h4.4c-0.2,0.9-0.6,1.7-1.2,2.4c-0.6,0.7-1.3,1.3-2.2,1.7c-0.9,0.4-1.9,0.6-3,0.6c-1.3,0-2.5-0.3-3.5-0.8
			s-1.8-1.4-2.4-2.4c-0.6-1-0.9-2.3-0.9-3.6c0-1.4,0.3-2.6,0.8-3.6c0.6-1,1.4-1.8,2.4-2.4s2.2-0.8,3.5-0.8c1.3,0,2.4,0.3,3.5,0.8
			c1,0.5,1.8,1.3,2.4,2.3C198.8,302.5,199.1,303.7,199.1,305.1z M194.9,304c0-0.7-0.2-1.3-0.7-1.7c-0.5-0.4-1.1-0.6-1.8-0.6
			c-0.7,0-1.3,0.2-1.8,0.6c-0.5,0.4-0.8,1-0.9,1.7H194.9z M209.4,298.4c1.6,0,2.8,0.5,3.7,1.5c0.9,1,1.4,2.4,1.4,4.2v7.8h-4.1v-7.3
			c0-0.9-0.2-1.6-0.7-2.1c-0.5-0.5-1.1-0.7-1.9-0.7s-1.4,0.2-1.9,0.7c-0.5,0.5-0.7,1.2-0.7,2.1v7.3h-4.1v-13.4h4.1v1.8
			c0.4-0.6,1-1.1,1.7-1.4C207.7,298.6,208.5,298.4,209.4,298.4z M224.9,308.5v3.5h-2.1c-1.5,0-2.6-0.4-3.5-1.1
			c-0.8-0.7-1.2-1.9-1.2-3.6V302h-1.6v-3.4h1.6v-3.3h4.1v3.3h2.7v3.4h-2.7v5.4c0,0.4,0.1,0.7,0.3,0.9c0.2,0.2,0.5,0.3,1,0.3H224.9z
			 M229.2,297.2c-0.7,0-1.3-0.2-1.8-0.6c-0.4-0.4-0.7-1-0.7-1.6c0-0.6,0.2-1.2,0.7-1.6c0.5-0.4,1.1-0.6,1.8-0.6
			c0.7,0,1.3,0.2,1.7,0.6c0.5,0.4,0.7,0.9,0.7,1.6c0,0.6-0.2,1.2-0.7,1.6C230.5,297,229.9,297.2,229.2,297.2z M231.3,298.6V312h-4.1
			v-13.4H231.3z M244.8,312.2c-1.2,0-2.2-0.2-3.1-0.6c-0.9-0.4-1.6-0.9-2.2-1.6c-0.5-0.7-0.8-1.5-0.9-2.4h4.1c0,0.5,0.3,0.8,0.6,1.1
			s0.9,0.4,1.4,0.4c0.5,0,0.9-0.1,1.2-0.3c0.3-0.2,0.4-0.5,0.4-0.8c0-0.4-0.2-0.7-0.6-0.8c-0.4-0.2-1-0.4-1.9-0.6
			c-1-0.2-1.8-0.5-2.4-0.7c-0.6-0.3-1.2-0.6-1.7-1.2c-0.5-0.5-0.7-1.3-0.7-2.2c0-0.8,0.2-1.5,0.6-2.1c0.4-0.6,1.1-1.1,1.9-1.5
			c0.8-0.4,1.8-0.6,3-0.6c1.7,0,3,0.4,4,1.2c1,0.8,1.5,1.9,1.7,3.3h-3.8c-0.1-0.5-0.3-0.8-0.6-1.1c-0.3-0.3-0.8-0.4-1.3-0.4
			c-0.5,0-0.8,0.1-1.1,0.3c-0.3,0.2-0.4,0.4-0.4,0.7c0,0.4,0.2,0.7,0.6,0.9c0.4,0.2,1.1,0.4,1.9,0.6c1,0.3,1.8,0.5,2.4,0.8
			c0.6,0.2,1.2,0.6,1.6,1.2c0.5,0.5,0.7,1.3,0.7,2.2c0,0.8-0.2,1.5-0.7,2.1c-0.4,0.6-1.1,1.1-1.9,1.4
			C246.8,312,245.9,312.2,244.8,312.2z M258.8,312.2c-1.3,0-2.5-0.3-3.6-0.8c-1-0.6-1.9-1.4-2.5-2.4c-0.6-1-0.9-2.3-0.9-3.6
			c0-1.4,0.3-2.6,0.9-3.6c0.6-1.1,1.4-1.9,2.5-2.4c1.1-0.6,2.2-0.8,3.6-0.8c1.3,0,2.5,0.3,3.6,0.8c1.1,0.6,1.9,1.4,2.5,2.4
			c0.6,1,0.9,2.2,0.9,3.6c0,1.4-0.3,2.6-0.9,3.6c-0.6,1-1.4,1.8-2.5,2.4C261.3,311.9,260.1,312.2,258.8,312.2z M258.8,308.6
			c0.8,0,1.4-0.3,2-0.9c0.6-0.6,0.8-1.4,0.8-2.5c0-1.1-0.3-1.9-0.8-2.5c-0.5-0.6-1.2-0.9-2-0.9c-0.8,0-1.5,0.3-2,0.9
			c-0.5,0.6-0.8,1.4-0.8,2.5c0,1.1,0.3,1.9,0.8,2.5C257.4,308.3,258,308.6,258.8,308.6z M272.1,294.2V312H268v-17.8H272.1z
			 M281.2,312.2c-1.3,0-2.5-0.3-3.6-0.8c-1-0.6-1.9-1.4-2.5-2.4c-0.6-1-0.9-2.3-0.9-3.6c0-1.4,0.3-2.6,0.9-3.6
			c0.6-1.1,1.4-1.9,2.5-2.4s2.2-0.8,3.6-0.8c1.3,0,2.5,0.3,3.6,0.8s1.9,1.4,2.5,2.4c0.6,1,0.9,2.2,0.9,3.6c0,1.4-0.3,2.6-0.9,3.6
			c-0.6,1-1.4,1.8-2.5,2.4C283.7,311.9,282.5,312.2,281.2,312.2z M281.2,308.6c0.8,0,1.4-0.3,2-0.9c0.6-0.6,0.8-1.4,0.8-2.5
			c0-1.1-0.3-1.9-0.8-2.5c-0.5-0.6-1.2-0.9-2-0.9c-0.8,0-1.5,0.3-2,0.9c-0.5,0.6-0.8,1.4-0.8,2.5c0,1.1,0.3,1.9,0.8,2.5
			C279.7,308.3,280.4,308.6,281.2,308.6z M295.3,294.2c1.7,0,3.1,0.4,4.1,1.3c1,0.9,1.6,2.2,1.6,3.8c0,1.5-0.5,2.7-1.5,3.5
			c-1,0.8-2.3,1.3-3.9,1.3l-0.1,1.8h-3.6l-0.1-4.5h1.4c1.2,0,2.2-0.2,2.8-0.5c0.7-0.3,1-0.9,1-1.7c0-0.6-0.2-1-0.5-1.3
			c-0.3-0.3-0.7-0.5-1.3-0.5c-0.6,0-1,0.2-1.3,0.5c-0.3,0.3-0.5,0.8-0.5,1.3h-3.9c0-1,0.2-1.9,0.6-2.6c0.4-0.8,1.1-1.4,2-1.8
			C293,294.4,294,294.2,295.3,294.2z M293.7,312.2c-0.7,0-1.3-0.2-1.8-0.6c-0.4-0.4-0.7-1-0.7-1.6c0-0.6,0.2-1.2,0.7-1.6
			c0.5-0.4,1.1-0.6,1.8-0.6c0.7,0,1.3,0.2,1.7,0.6c0.5,0.4,0.7,1,0.7,1.6c0,0.6-0.2,1.2-0.7,1.6C295,312,294.4,312.2,293.7,312.2z"
			/>
		<path class="st0" d="M326,317c7.2,0,13-5.8,13-13s-5.8-13-13-13s-13,5.8-13,13S318.8,317,326,317z"/>
		<path class="st3" d="M329.9,300.1l-7.8,7.8"/>
		<path class="st3" d="M322.1,300.1l7.8,7.8"/>
		<path class="st4" d="M40.2,101.9v5.7c0,0.8,0.2,1.4,0.6,1.8c0.4,0.4,0.9,0.6,1.7,0.6c0.7,0,1.2-0.2,1.6-0.6c0.4-0.4,0.6-1,0.6-1.8
			v-5.7h1.2v5.7c0,0.8-0.2,1.4-0.5,1.9c-0.3,0.5-0.7,0.9-1.2,1.1c-0.5,0.3-1.1,0.4-1.7,0.4s-1.2-0.1-1.7-0.4
			c-0.5-0.3-0.9-0.6-1.2-1.1c-0.3-0.5-0.4-1.2-0.4-1.9v-5.7H40.2z M51.2,103.7c0.9,0,1.6,0.3,2.1,0.8c0.5,0.5,0.8,1.3,0.8,2.3v4.2
			H53v-4c0-0.7-0.2-1.3-0.5-1.6c-0.4-0.4-0.8-0.6-1.5-0.6c-0.6,0-1.1,0.2-1.5,0.6c-0.4,0.4-0.5,1-0.5,1.7v3.9h-1.2v-7.1H49v1
			c0.2-0.4,0.6-0.6,0.9-0.8C50.3,103.8,50.8,103.7,51.2,103.7z M60.7,105.2c0.2-0.4,0.6-0.7,1-1c0.5-0.3,1-0.4,1.6-0.4
			c0.6,0,1.2,0.2,1.7,0.5c0.5,0.3,0.9,0.7,1.2,1.3c0.3,0.5,0.4,1.2,0.4,1.9c0,0.7-0.1,1.4-0.4,1.9s-0.7,1-1.2,1.3
			c-0.5,0.3-1.1,0.5-1.7,0.5c-0.6,0-1.1-0.1-1.6-0.4c-0.5-0.3-0.8-0.6-1.1-1v4.7h-1.2v-10.5h1.2V105.2z M65.6,107.4
			c0-0.5-0.1-1-0.3-1.4c-0.2-0.4-0.5-0.7-0.9-0.9c-0.4-0.2-0.8-0.3-1.2-0.3c-0.4,0-0.8,0.1-1.2,0.3c-0.4,0.2-0.7,0.5-0.9,0.9
			c-0.2,0.4-0.3,0.9-0.3,1.4c0,0.5,0.1,1,0.3,1.4c0.2,0.4,0.5,0.7,0.9,0.9c0.4,0.2,0.8,0.3,1.2,0.3c0.4,0,0.8-0.1,1.2-0.3
			c0.4-0.2,0.7-0.5,0.9-0.9C65.5,108.4,65.6,107.9,65.6,107.4z M71.4,111.1c-0.7,0-1.3-0.2-1.8-0.5c-0.5-0.3-1-0.7-1.3-1.3
			c-0.3-0.6-0.5-1.2-0.5-1.9c0-0.7,0.2-1.4,0.5-1.9c0.3-0.6,0.8-1,1.3-1.3c0.5-0.3,1.2-0.5,1.8-0.5c0.7,0,1.3,0.2,1.8,0.5
			c0.5,0.3,1,0.7,1.3,1.3c0.3,0.6,0.5,1.2,0.5,1.9s-0.2,1.4-0.5,1.9c-0.3,0.6-0.8,1-1.3,1.3C72.7,110.9,72.1,111.1,71.4,111.1z
			 M71.4,110c0.4,0,0.8-0.1,1.2-0.3c0.4-0.2,0.7-0.5,0.9-0.9c0.2-0.4,0.4-0.9,0.4-1.5c0-0.6-0.1-1.1-0.3-1.5
			c-0.2-0.4-0.5-0.7-0.9-0.9c-0.4-0.2-0.8-0.3-1.2-0.3c-0.4,0-0.8,0.1-1.2,0.3c-0.4,0.2-0.6,0.5-0.9,0.9c-0.2,0.4-0.3,0.9-0.3,1.5
			c0,0.6,0.1,1.1,0.3,1.5c0.2,0.4,0.5,0.7,0.9,0.9C70.6,110,71,110,71.4,110z M76.8,101.9h1.3l-1.2,3h-0.8L76.8,101.9z M82.5,107.4
			c0-0.7,0.1-1.4,0.4-1.9c0.3-0.6,0.7-1,1.2-1.3c0.5-0.3,1.1-0.5,1.7-0.5c0.6,0,1.1,0.1,1.5,0.4c0.5,0.3,0.8,0.6,1.1,1v-3.8h1.2v9.6
			h-1.2v-1.3c-0.2,0.4-0.6,0.8-1,1.1c-0.5,0.3-1,0.4-1.6,0.4c-0.6,0-1.2-0.2-1.7-0.5c-0.5-0.3-0.9-0.8-1.2-1.3
			C82.7,108.7,82.5,108.1,82.5,107.4z M88.6,107.4c0-0.5-0.1-1-0.3-1.4c-0.2-0.4-0.5-0.7-0.9-0.9c-0.4-0.2-0.8-0.3-1.2-0.3
			s-0.8,0.1-1.2,0.3c-0.4,0.2-0.7,0.5-0.9,0.9c-0.2,0.4-0.3,0.9-0.3,1.4c0,0.5,0.1,1,0.3,1.4c0.2,0.4,0.5,0.7,0.9,0.9
			c0.4,0.2,0.8,0.3,1.2,0.3s0.8-0.1,1.2-0.3c0.4-0.2,0.7-0.5,0.9-0.9C88.4,108.4,88.6,107.9,88.6,107.4z M92.4,102.7
			c-0.2,0-0.4-0.1-0.6-0.2s-0.2-0.3-0.2-0.6c0-0.2,0.1-0.4,0.2-0.6c0.2-0.2,0.3-0.2,0.6-0.2c0.2,0,0.4,0.1,0.5,0.2
			c0.2,0.2,0.2,0.3,0.2,0.6c0,0.2-0.1,0.4-0.2,0.6C92.8,102.6,92.6,102.7,92.4,102.7z M92.9,103.8v7.1h-1.2v-7.1H92.9z M98,107.4
			c0-0.7,0.1-1.4,0.4-1.9c0.3-0.6,0.7-1,1.2-1.3c0.5-0.3,1.1-0.5,1.7-0.5c0.6,0,1.1,0.1,1.5,0.4c0.5,0.3,0.8,0.6,1.1,1v-3.8h1.2v9.6
			H104v-1.3c-0.2,0.4-0.6,0.8-1,1.1c-0.5,0.3-1,0.4-1.6,0.4c-0.6,0-1.2-0.2-1.7-0.5c-0.5-0.3-0.9-0.8-1.2-1.3
			C98.1,108.7,98,108.1,98,107.4z M104,107.4c0-0.5-0.1-1-0.3-1.4s-0.5-0.7-0.9-0.9c-0.4-0.2-0.8-0.3-1.2-0.3s-0.8,0.1-1.2,0.3
			c-0.4,0.2-0.7,0.5-0.9,0.9c-0.2,0.4-0.3,0.9-0.3,1.4c0,0.5,0.1,1,0.3,1.4c0.2,0.4,0.5,0.7,0.9,0.9c0.4,0.2,0.8,0.3,1.2,0.3
			s0.8-0.1,1.2-0.3c0.4-0.2,0.7-0.5,0.9-0.9C103.9,108.4,104,107.9,104,107.4z M110.3,111.1c-0.7,0-1.3-0.2-1.8-0.5
			c-0.5-0.3-1-0.7-1.3-1.3c-0.3-0.6-0.5-1.2-0.5-1.9c0-0.7,0.2-1.4,0.5-1.9c0.3-0.6,0.8-1,1.3-1.3c0.5-0.3,1.2-0.5,1.8-0.5
			s1.3,0.2,1.8,0.5c0.5,0.3,1,0.7,1.3,1.3c0.3,0.6,0.5,1.2,0.5,1.9s-0.2,1.4-0.5,1.9c-0.3,0.6-0.8,1-1.3,1.3
			C111.6,110.9,111,111.1,110.3,111.1z M110.3,110c0.4,0,0.8-0.1,1.2-0.3c0.4-0.2,0.7-0.5,0.9-0.9c0.2-0.4,0.4-0.9,0.4-1.5
			c0-0.6-0.1-1.1-0.3-1.5c-0.2-0.4-0.5-0.7-0.9-0.9c-0.4-0.2-0.8-0.3-1.2-0.3c-0.4,0-0.8,0.1-1.2,0.3c-0.4,0.2-0.6,0.5-0.9,0.9
			c-0.2,0.4-0.3,0.9-0.3,1.5c0,0.6,0.1,1.1,0.3,1.5c0.2,0.4,0.5,0.7,0.9,0.9C109.5,110,109.9,110,110.3,110z M124.1,103.7
			c0.6,0,1,0.1,1.5,0.4c0.4,0.2,0.8,0.6,1,1c0.3,0.5,0.4,1,0.4,1.7v4.2h-1.2v-4c0-0.7-0.2-1.3-0.5-1.6c-0.3-0.4-0.8-0.6-1.4-0.6
			c-0.6,0-1.1,0.2-1.5,0.6c-0.4,0.4-0.5,1-0.5,1.7v3.9h-1.2v-4c0-0.7-0.2-1.3-0.5-1.6c-0.3-0.4-0.8-0.6-1.4-0.6
			c-0.6,0-1.1,0.2-1.5,0.6c-0.4,0.4-0.5,1-0.5,1.7v3.9h-1.2v-7.1h1.2v1c0.2-0.4,0.5-0.7,0.9-0.9c0.4-0.2,0.8-0.3,1.3-0.3
			c0.6,0,1.1,0.1,1.6,0.4c0.5,0.3,0.8,0.7,1,1.2c0.2-0.5,0.5-0.9,1-1.2C123,103.9,123.5,103.7,124.1,103.7z M128.5,107.4
			c0-0.7,0.1-1.4,0.4-1.9c0.3-0.6,0.7-1,1.2-1.3c0.5-0.3,1.1-0.5,1.7-0.5c0.6,0,1.2,0.1,1.6,0.4c0.5,0.3,0.8,0.6,1,1v-1.3h1.2v7.1
			h-1.2v-1.3c-0.2,0.4-0.6,0.8-1.1,1c-0.5,0.3-1,0.4-1.6,0.4c-0.6,0-1.2-0.2-1.7-0.5c-0.5-0.3-0.9-0.8-1.2-1.3
			C128.6,108.7,128.5,108.1,128.5,107.4z M134.5,107.4c0-0.5-0.1-1-0.3-1.4c-0.2-0.4-0.5-0.7-0.9-0.9c-0.4-0.2-0.8-0.3-1.2-0.3
			c-0.4,0-0.8,0.1-1.2,0.3c-0.4,0.2-0.7,0.5-0.9,0.9c-0.2,0.4-0.3,0.9-0.3,1.4c0,0.5,0.1,1,0.3,1.4c0.2,0.4,0.5,0.7,0.9,0.9
			c0.4,0.2,0.8,0.3,1.2,0.3c0.4,0,0.8-0.1,1.2-0.3c0.4-0.2,0.7-0.5,0.9-0.9C134.4,108.4,134.5,107.9,134.5,107.4z M141.2,103.7
			c0.9,0,1.6,0.3,2.1,0.8c0.5,0.5,0.8,1.3,0.8,2.3v4.2h-1.2v-4c0-0.7-0.2-1.3-0.5-1.6c-0.4-0.4-0.8-0.6-1.5-0.6
			c-0.6,0-1.1,0.2-1.5,0.6c-0.4,0.4-0.5,1-0.5,1.7v3.9h-1.2v-7.1h1.2v1c0.2-0.4,0.6-0.6,0.9-0.8
			C140.2,103.8,140.7,103.7,141.2,103.7z M145.6,107.4c0-0.7,0.1-1.4,0.4-1.9c0.3-0.6,0.7-1,1.2-1.3c0.5-0.3,1.1-0.5,1.7-0.5
			c0.6,0,1.1,0.1,1.5,0.4c0.5,0.3,0.8,0.6,1.1,1v-3.8h1.2v9.6h-1.2v-1.3c-0.2,0.4-0.6,0.8-1,1.1c-0.5,0.3-1,0.4-1.6,0.4
			c-0.6,0-1.2-0.2-1.7-0.5c-0.5-0.3-0.9-0.8-1.2-1.3C145.7,108.7,145.6,108.1,145.6,107.4z M151.6,107.4c0-0.5-0.1-1-0.3-1.4
			c-0.2-0.4-0.5-0.7-0.9-0.9c-0.4-0.2-0.8-0.3-1.2-0.3c-0.4,0-0.8,0.1-1.2,0.3c-0.4,0.2-0.7,0.5-0.9,0.9c-0.2,0.4-0.3,0.9-0.3,1.4
			c0,0.5,0.1,1,0.3,1.4c0.2,0.4,0.5,0.7,0.9,0.9c0.4,0.2,0.8,0.3,1.2,0.3c0.4,0,0.8-0.1,1.2-0.3c0.4-0.2,0.7-0.5,0.9-0.9
			C151.5,108.4,151.6,107.9,151.6,107.4z M161.3,107.1c0,0.2,0,0.5,0,0.7h-5.7c0,0.7,0.3,1.3,0.7,1.7c0.4,0.4,1,0.6,1.6,0.6
			c0.5,0,0.9-0.1,1.3-0.4c0.3-0.2,0.6-0.6,0.7-1h1.3c-0.2,0.7-0.6,1.2-1.1,1.7c-0.6,0.4-1.3,0.6-2.1,0.6c-0.7,0-1.3-0.2-1.8-0.5
			c-0.5-0.3-0.9-0.7-1.2-1.3c-0.3-0.6-0.5-1.2-0.5-1.9s0.1-1.4,0.4-1.9c0.3-0.6,0.7-1,1.2-1.3c0.5-0.3,1.2-0.5,1.8-0.5
			c0.7,0,1.3,0.1,1.8,0.4s0.9,0.7,1.2,1.2C161.2,105.9,161.3,106.5,161.3,107.1z M160.1,106.9c0-0.5-0.1-0.8-0.3-1.2
			c-0.2-0.3-0.5-0.6-0.8-0.7c-0.3-0.2-0.7-0.3-1.1-0.3c-0.6,0-1.1,0.2-1.5,0.6c-0.4,0.4-0.7,0.9-0.7,1.6H160.1z M167.5,105.2
			c0.2-0.4,0.6-0.7,1-1c0.5-0.3,1-0.4,1.6-0.4c0.6,0,1.2,0.2,1.7,0.5c0.5,0.3,0.9,0.7,1.2,1.3c0.3,0.5,0.4,1.2,0.4,1.9
			c0,0.7-0.1,1.4-0.4,1.9c-0.3,0.6-0.7,1-1.2,1.3c-0.5,0.3-1.1,0.5-1.7,0.5c-0.6,0-1.1-0.1-1.6-0.4c-0.5-0.3-0.8-0.6-1.1-1v4.7h-1.2
			v-10.5h1.2V105.2z M172.3,107.4c0-0.5-0.1-1-0.3-1.4c-0.2-0.4-0.5-0.7-0.9-0.9c-0.4-0.2-0.8-0.3-1.2-0.3c-0.4,0-0.8,0.1-1.2,0.3
			c-0.4,0.2-0.7,0.5-0.9,0.9c-0.2,0.4-0.3,0.9-0.3,1.4c0,0.5,0.1,1,0.3,1.4c0.2,0.4,0.5,0.7,0.9,0.9c0.4,0.2,0.8,0.3,1.2,0.3
			c0.4,0,0.8-0.1,1.2-0.3c0.4-0.2,0.7-0.5,0.9-0.9C172.2,108.4,172.3,107.9,172.3,107.4z M181.6,107.1c0,0.2,0,0.5,0,0.7h-5.7
			c0,0.7,0.3,1.3,0.7,1.7c0.4,0.4,1,0.6,1.6,0.6c0.5,0,0.9-0.1,1.3-0.4c0.3-0.2,0.6-0.6,0.7-1h1.3c-0.2,0.7-0.6,1.2-1.1,1.7
			c-0.6,0.4-1.3,0.6-2.1,0.6c-0.7,0-1.3-0.2-1.8-0.5c-0.5-0.3-0.9-0.7-1.2-1.3c-0.3-0.6-0.5-1.2-0.5-1.9s0.1-1.4,0.4-1.9
			c0.3-0.6,0.7-1,1.2-1.3c0.5-0.3,1.2-0.5,1.8-0.5c0.7,0,1.3,0.1,1.8,0.4c0.5,0.3,0.9,0.7,1.2,1.2
			C181.5,105.9,181.6,106.5,181.6,107.1z M180.4,106.9c0-0.5-0.1-0.8-0.3-1.2c-0.2-0.3-0.5-0.6-0.8-0.7c-0.3-0.2-0.7-0.3-1.1-0.3
			c-0.6,0-1.1,0.2-1.5,0.6c-0.4,0.4-0.7,0.9-0.7,1.6H180.4z M184.4,105c0.2-0.4,0.5-0.7,0.9-0.9c0.4-0.2,0.9-0.3,1.4-0.3v1.2h-0.3
			c-1.3,0-2,0.7-2,2.2v3.9h-1.2v-7.1h1.2V105z M191,107.4c0-0.7,0.1-1.4,0.4-1.9c0.3-0.6,0.7-1,1.2-1.3c0.5-0.3,1.1-0.5,1.8-0.5
			c0.9,0,1.6,0.2,2.2,0.6c0.6,0.4,0.9,1,1.1,1.8h-1.3c-0.1-0.4-0.4-0.8-0.7-1c-0.3-0.3-0.8-0.4-1.3-0.4c-0.7,0-1.2,0.2-1.6,0.7
			c-0.4,0.5-0.6,1.1-0.6,2c0,0.9,0.2,1.5,0.6,2s1,0.7,1.6,0.7c0.5,0,1-0.1,1.3-0.4c0.3-0.2,0.6-0.6,0.7-1h1.3
			c-0.2,0.7-0.6,1.3-1.1,1.8c-0.6,0.4-1.3,0.7-2.1,0.7c-0.7,0-1.3-0.2-1.8-0.5c-0.5-0.3-0.9-0.7-1.2-1.3
			C191.2,108.8,191,108.1,191,107.4z M202.5,111.1c-0.7,0-1.3-0.2-1.8-0.5c-0.5-0.3-1-0.7-1.3-1.3c-0.3-0.6-0.5-1.2-0.5-1.9
			c0-0.7,0.2-1.4,0.5-1.9c0.3-0.6,0.8-1,1.3-1.3c0.5-0.3,1.2-0.5,1.8-0.5c0.7,0,1.3,0.2,1.8,0.5c0.5,0.3,1,0.7,1.3,1.3
			c0.3,0.6,0.5,1.2,0.5,1.9s-0.2,1.4-0.5,1.9c-0.3,0.6-0.8,1-1.3,1.3C203.8,110.9,203.2,111.1,202.5,111.1z M202.5,110
			c0.4,0,0.8-0.1,1.2-0.3s0.7-0.5,0.9-0.9c0.2-0.4,0.4-0.9,0.4-1.5c0-0.6-0.1-1.1-0.3-1.5c-0.2-0.4-0.5-0.7-0.9-0.9
			c-0.4-0.2-0.8-0.3-1.2-0.3c-0.4,0-0.8,0.1-1.2,0.3c-0.4,0.2-0.6,0.5-0.9,0.9c-0.2,0.4-0.3,0.9-0.3,1.5c0,0.6,0.1,1.1,0.3,1.5
			c0.2,0.4,0.5,0.7,0.9,0.9C201.7,110,202.1,110,202.5,110z M211.2,103.7c0.9,0,1.6,0.3,2.1,0.8c0.5,0.5,0.8,1.3,0.8,2.3v4.2h-1.2
			v-4c0-0.7-0.2-1.3-0.5-1.6c-0.4-0.4-0.8-0.6-1.5-0.6c-0.6,0-1.1,0.2-1.5,0.6c-0.4,0.4-0.5,1-0.5,1.7v3.9h-1.2v-7.1h1.2v1
			c0.2-0.4,0.6-0.6,0.9-0.8C210.2,103.8,210.7,103.7,211.2,103.7z M219.1,111.1c-0.7,0-1.3-0.2-1.8-0.5c-0.5-0.3-1-0.7-1.3-1.3
			c-0.3-0.6-0.5-1.2-0.5-1.9c0-0.7,0.2-1.4,0.5-1.9c0.3-0.6,0.8-1,1.3-1.3c0.5-0.3,1.2-0.5,1.8-0.5c0.7,0,1.3,0.2,1.8,0.5
			c0.5,0.3,1,0.7,1.3,1.3c0.3,0.6,0.5,1.2,0.5,1.9s-0.2,1.4-0.5,1.9c-0.3,0.6-0.8,1-1.3,1.3C220.4,110.9,219.8,111.1,219.1,111.1z
			 M219.1,110c0.4,0,0.8-0.1,1.2-0.3c0.4-0.2,0.7-0.5,0.9-0.9c0.2-0.4,0.4-0.9,0.4-1.5c0-0.6-0.1-1.1-0.3-1.5
			c-0.2-0.4-0.5-0.7-0.9-0.9c-0.4-0.2-0.8-0.3-1.2-0.3c-0.4,0-0.8,0.1-1.2,0.3c-0.4,0.2-0.6,0.5-0.9,0.9c-0.2,0.4-0.3,0.9-0.3,1.5
			c0,0.6,0.1,1.1,0.3,1.5c0.2,0.4,0.5,0.7,0.9,0.9C218.3,110,218.7,110,219.1,110z M226.8,111.1c-0.5,0-1-0.1-1.5-0.3
			c-0.4-0.2-0.8-0.5-1-0.8c-0.3-0.3-0.4-0.7-0.4-1.2h1.2c0,0.4,0.2,0.6,0.5,0.9c0.3,0.2,0.7,0.3,1.2,0.3c0.5,0,0.8-0.1,1.1-0.3
			c0.3-0.2,0.4-0.5,0.4-0.8c0-0.3-0.1-0.5-0.4-0.7c-0.3-0.2-0.7-0.3-1.3-0.5c-0.5-0.1-1-0.3-1.3-0.4c-0.3-0.1-0.6-0.4-0.9-0.6
			c-0.2-0.3-0.4-0.7-0.4-1.1c0-0.4,0.1-0.7,0.3-1c0.2-0.3,0.5-0.5,0.9-0.7c0.4-0.2,0.9-0.3,1.4-0.3c0.8,0,1.4,0.2,1.9,0.6
			c0.5,0.4,0.7,0.9,0.8,1.6h-1.2c0-0.4-0.2-0.7-0.5-0.9c-0.3-0.2-0.6-0.3-1.1-0.3c-0.4,0-0.8,0.1-1,0.3c-0.3,0.2-0.4,0.4-0.4,0.7
			c0,0.2,0.1,0.4,0.2,0.6c0.2,0.1,0.3,0.3,0.6,0.4c0.2,0.1,0.6,0.2,1,0.3c0.5,0.1,0.9,0.3,1.2,0.4c0.3,0.1,0.6,0.3,0.8,0.6
			c0.2,0.3,0.4,0.6,0.4,1.1c0,0.4-0.1,0.7-0.3,1.1c-0.2,0.3-0.5,0.6-0.9,0.7C227.8,111,227.4,111.1,226.8,111.1z M230.7,107.4
			c0-0.7,0.1-1.4,0.4-1.9c0.3-0.6,0.7-1,1.2-1.3c0.5-0.3,1.1-0.5,1.8-0.5c0.9,0,1.6,0.2,2.2,0.6c0.6,0.4,0.9,1,1.1,1.8h-1.3
			c-0.1-0.4-0.4-0.8-0.7-1c-0.3-0.3-0.8-0.4-1.3-0.4c-0.7,0-1.2,0.2-1.6,0.7c-0.4,0.5-0.6,1.1-0.6,2c0,0.9,0.2,1.5,0.6,2
			s1,0.7,1.6,0.7c0.5,0,1-0.1,1.3-0.4s0.6-0.6,0.7-1h1.3c-0.2,0.7-0.6,1.3-1.1,1.8c-0.6,0.4-1.3,0.7-2.1,0.7c-0.7,0-1.3-0.2-1.8-0.5
			c-0.5-0.3-0.9-0.7-1.2-1.3S230.7,108.1,230.7,107.4z M245.5,107.1c0,0.2,0,0.5,0,0.7h-5.7c0,0.7,0.3,1.3,0.7,1.7
			c0.4,0.4,1,0.6,1.6,0.6c0.5,0,0.9-0.1,1.3-0.4c0.3-0.2,0.6-0.6,0.7-1h1.3c-0.2,0.7-0.6,1.2-1.1,1.7c-0.6,0.4-1.3,0.6-2.1,0.6
			c-0.7,0-1.3-0.2-1.8-0.5c-0.5-0.3-0.9-0.7-1.2-1.3c-0.3-0.6-0.5-1.2-0.5-1.9s0.1-1.4,0.4-1.9c0.3-0.6,0.7-1,1.2-1.3
			c0.5-0.3,1.2-0.5,1.8-0.5c0.7,0,1.3,0.1,1.8,0.4c0.5,0.3,0.9,0.7,1.2,1.2C245.4,105.9,245.5,106.5,245.5,107.1z M244.3,106.9
			c0-0.5-0.1-0.8-0.3-1.2c-0.2-0.3-0.5-0.6-0.8-0.7c-0.3-0.2-0.7-0.3-1.1-0.3c-0.6,0-1.1,0.2-1.5,0.6c-0.4,0.4-0.7,0.9-0.7,1.6
			H244.3z M248.3,105c0.2-0.4,0.5-0.7,0.9-0.9c0.4-0.2,0.9-0.3,1.4-0.3v1.2h-0.3c-1.3,0-2,0.7-2,2.2v3.9h-1.2v-7.1h1.2V105z
			 M253.4,104.8v4.2c0,0.3,0.1,0.6,0.2,0.7c0.1,0.1,0.4,0.2,0.8,0.2h0.9v1h-1.1c-0.7,0-1.2-0.2-1.5-0.5c-0.3-0.3-0.5-0.8-0.5-1.5
			v-4.2h-0.9v-1h0.9v-1.8h1.2v1.8h1.9v1H253.4z M257.3,102.7c-0.2,0-0.4-0.1-0.6-0.2c-0.2-0.2-0.2-0.3-0.2-0.6
			c0-0.2,0.1-0.4,0.2-0.6c0.2-0.2,0.3-0.2,0.6-0.2c0.2,0,0.4,0.1,0.5,0.2c0.2,0.2,0.2,0.3,0.2,0.6c0,0.2-0.1,0.4-0.2,0.6
			C257.7,102.6,257.5,102.7,257.3,102.7z M257.8,103.8v7.1h-1.2v-7.1H257.8z M271.9,103.7c0.6,0,1,0.1,1.5,0.4c0.4,0.2,0.8,0.6,1,1
			c0.3,0.5,0.4,1,0.4,1.7v4.2h-1.2v-4c0-0.7-0.2-1.3-0.5-1.6c-0.3-0.4-0.8-0.6-1.4-0.6c-0.6,0-1.1,0.2-1.5,0.6
			c-0.4,0.4-0.5,1-0.5,1.7v3.9h-1.2v-4c0-0.7-0.2-1.3-0.5-1.6c-0.3-0.4-0.8-0.6-1.4-0.6c-0.6,0-1.1,0.2-1.5,0.6
			c-0.4,0.4-0.5,1-0.5,1.7v3.9h-1.2v-7.1h1.2v1c0.2-0.4,0.5-0.7,0.9-0.9c0.4-0.2,0.8-0.3,1.3-0.3c0.6,0,1.1,0.1,1.6,0.4
			c0.5,0.3,0.8,0.7,1,1.2c0.2-0.5,0.5-0.9,1-1.2C270.8,103.9,271.3,103.7,271.9,103.7z M283.2,107.1c0,0.2,0,0.5,0,0.7h-5.7
			c0,0.7,0.3,1.3,0.7,1.7c0.4,0.4,1,0.6,1.6,0.6c0.5,0,0.9-0.1,1.3-0.4c0.3-0.2,0.6-0.6,0.7-1h1.3c-0.2,0.7-0.6,1.2-1.1,1.7
			c-0.6,0.4-1.3,0.6-2.1,0.6c-0.7,0-1.3-0.2-1.8-0.5c-0.5-0.3-0.9-0.7-1.2-1.3c-0.3-0.6-0.5-1.2-0.5-1.9s0.1-1.4,0.4-1.9
			c0.3-0.6,0.7-1,1.2-1.3c0.5-0.3,1.2-0.5,1.8-0.5c0.7,0,1.3,0.1,1.8,0.4c0.5,0.3,0.9,0.7,1.2,1.2
			C283.1,105.9,283.2,106.5,283.2,107.1z M282,106.9c0-0.5-0.1-0.8-0.3-1.2c-0.2-0.3-0.5-0.6-0.8-0.7c-0.3-0.2-0.7-0.3-1.1-0.3
			c-0.6,0-1.1,0.2-1.5,0.6c-0.4,0.4-0.7,0.9-0.7,1.6H282z M287.7,103.7c0.6,0,1.2,0.1,1.6,0.4c0.5,0.3,0.8,0.6,1,1v-1.3h1.2v7.3
			c0,0.6-0.1,1.2-0.4,1.7c-0.3,0.5-0.7,0.9-1.2,1.2c-0.5,0.3-1.1,0.4-1.8,0.4c-0.9,0-1.7-0.2-2.3-0.7c-0.6-0.4-1-1-1.1-1.8h1.2
			c0.1,0.4,0.4,0.8,0.8,1c0.4,0.3,0.9,0.4,1.5,0.4c0.7,0,1.2-0.2,1.6-0.6c0.4-0.4,0.6-1,0.6-1.7v-1.5c-0.2,0.4-0.6,0.8-1,1
			c-0.5,0.3-1,0.4-1.6,0.4c-0.6,0-1.2-0.2-1.7-0.5c-0.5-0.3-0.9-0.8-1.2-1.3c-0.3-0.6-0.4-1.2-0.4-1.9c0-0.7,0.1-1.4,0.4-1.9
			c0.3-0.6,0.7-1,1.2-1.3C286.5,103.9,287.1,103.7,287.7,103.7z M290.4,107.4c0-0.5-0.1-1-0.3-1.4c-0.2-0.4-0.5-0.7-0.9-0.9
			c-0.4-0.2-0.8-0.3-1.2-0.3c-0.4,0-0.8,0.1-1.2,0.3c-0.4,0.2-0.7,0.5-0.9,0.9c-0.2,0.4-0.3,0.9-0.3,1.4c0,0.5,0.1,1,0.3,1.4
			c0.2,0.4,0.5,0.7,0.9,0.9c0.4,0.2,0.8,0.3,1.2,0.3c0.4,0,0.8-0.1,1.2-0.3c0.4-0.2,0.7-0.5,0.9-0.9
			C290.3,108.4,290.4,107.9,290.4,107.4z M294.8,101.4v9.6h-1.2v-9.6H294.8z M297.4,102.7c-0.2,0-0.4-0.1-0.6-0.2s-0.2-0.3-0.2-0.6
			c0-0.2,0.1-0.4,0.2-0.6c0.2-0.2,0.3-0.2,0.6-0.2c0.2,0,0.4,0.1,0.5,0.2c0.2,0.2,0.2,0.3,0.2,0.6c0,0.2-0.1,0.4-0.2,0.6
			C297.8,102.6,297.6,102.7,297.4,102.7z M298,103.8v7.1h-1.2v-7.1H298z M303.1,111.1c-0.7,0-1.3-0.2-1.8-0.5
			c-0.5-0.3-1-0.7-1.3-1.3c-0.3-0.6-0.5-1.2-0.5-1.9c0-0.7,0.2-1.4,0.5-1.9c0.3-0.6,0.8-1,1.3-1.3c0.5-0.3,1.2-0.5,1.8-0.5
			s1.3,0.2,1.8,0.5c0.5,0.3,1,0.7,1.3,1.3c0.3,0.6,0.5,1.2,0.5,1.9s-0.2,1.4-0.5,1.9c-0.3,0.6-0.8,1-1.3,1.3
			C304.4,110.9,303.7,111.1,303.1,111.1z M303.1,110c0.4,0,0.8-0.1,1.2-0.3c0.4-0.2,0.7-0.5,0.9-0.9c0.2-0.4,0.4-0.9,0.4-1.5
			c0-0.6-0.1-1.1-0.3-1.5c-0.2-0.4-0.5-0.7-0.9-0.9c-0.4-0.2-0.8-0.3-1.2-0.3c-0.4,0-0.8,0.1-1.2,0.3c-0.4,0.2-0.6,0.5-0.9,0.9
			c-0.2,0.4-0.3,0.9-0.3,1.5c0,0.6,0.1,1.1,0.3,1.5c0.2,0.4,0.5,0.7,0.9,0.9C302.3,110,302.6,110,303.1,110z M308.7,111
			c-0.2,0-0.4-0.1-0.6-0.2c-0.2-0.2-0.2-0.3-0.2-0.6c0-0.2,0.1-0.4,0.2-0.6c0.2-0.2,0.3-0.2,0.6-0.2c0.2,0,0.4,0.1,0.5,0.2
			c0.2,0.2,0.2,0.3,0.2,0.6c0,0.2-0.1,0.4-0.2,0.6C309.1,111,308.9,111,308.7,111z M41.9,131.1c-0.6,0-1.1-0.1-1.6-0.3
			c-0.5-0.2-0.8-0.5-1.1-0.9c-0.3-0.4-0.4-0.8-0.4-1.3H40c0,0.4,0.2,0.8,0.5,1.1c0.3,0.3,0.8,0.4,1.4,0.4c0.6,0,1-0.1,1.3-0.4
			c0.3-0.3,0.5-0.6,0.5-1.1c0-0.3-0.1-0.6-0.3-0.8s-0.4-0.4-0.7-0.5c-0.3-0.1-0.7-0.2-1.2-0.4c-0.6-0.2-1.1-0.3-1.4-0.5
			c-0.4-0.2-0.7-0.4-0.9-0.7c-0.3-0.3-0.4-0.8-0.4-1.4c0-0.5,0.1-0.9,0.4-1.3c0.3-0.4,0.6-0.7,1.1-0.9c0.5-0.2,1-0.3,1.6-0.3
			c0.8,0,1.5,0.2,2.1,0.6c0.5,0.4,0.9,1,0.9,1.7h-1.3c0-0.3-0.2-0.7-0.5-0.9c-0.3-0.3-0.7-0.4-1.3-0.4c-0.5,0-0.9,0.1-1.2,0.4
			c-0.3,0.3-0.5,0.6-0.5,1.1c0,0.3,0.1,0.6,0.3,0.8c0.2,0.2,0.4,0.4,0.7,0.5c0.3,0.1,0.7,0.2,1.2,0.4c0.6,0.2,1.1,0.3,1.4,0.5
			c0.4,0.2,0.7,0.4,0.9,0.7c0.3,0.3,0.4,0.8,0.4,1.4c0,0.4-0.1,0.9-0.4,1.2c-0.2,0.4-0.6,0.7-1,0.9C43,130.9,42.5,131.1,41.9,131.1z
			 M53.1,127.1c0,0.2,0,0.5,0,0.7h-5.7c0,0.7,0.3,1.3,0.7,1.7c0.4,0.4,1,0.6,1.6,0.6c0.5,0,0.9-0.1,1.3-0.4c0.3-0.2,0.6-0.6,0.7-1
			H53c-0.2,0.7-0.6,1.2-1.1,1.7c-0.6,0.4-1.3,0.6-2.1,0.6c-0.7,0-1.3-0.2-1.8-0.5c-0.5-0.3-0.9-0.7-1.2-1.3
			c-0.3-0.6-0.5-1.2-0.5-1.9c0-0.7,0.1-1.4,0.4-1.9c0.3-0.6,0.7-1,1.2-1.3c0.5-0.3,1.2-0.5,1.8-0.5c0.7,0,1.3,0.1,1.8,0.4
			s0.9,0.7,1.2,1.2C53,125.9,53.1,126.5,53.1,127.1z M51.9,126.9c0-0.5-0.1-0.8-0.3-1.2c-0.2-0.3-0.5-0.6-0.8-0.7
			c-0.3-0.2-0.7-0.3-1.1-0.3c-0.6,0-1.1,0.2-1.5,0.6c-0.4,0.4-0.7,0.9-0.7,1.6H51.9z M58.2,123.7c0.9,0,1.6,0.3,2.1,0.8
			c0.5,0.5,0.8,1.3,0.8,2.3v4.2h-1.2v-4c0-0.7-0.2-1.3-0.5-1.6c-0.4-0.4-0.8-0.6-1.5-0.6c-0.6,0-1.1,0.2-1.5,0.6
			c-0.4,0.4-0.5,1-0.5,1.7v3.9h-1.2v-7.1h1.2v1c0.2-0.4,0.6-0.6,0.9-0.8C57.2,123.8,57.7,123.7,58.2,123.7z M64.5,124.8v4.2
			c0,0.3,0.1,0.6,0.2,0.7c0.1,0.1,0.4,0.2,0.8,0.2h0.9v1h-1.1c-0.7,0-1.2-0.2-1.5-0.5c-0.3-0.3-0.5-0.8-0.5-1.5v-4.2h-0.9v-1h0.9
			v-1.8h1.2v1.8h1.9v1H64.5z M68.4,122.7c-0.2,0-0.4-0.1-0.6-0.2c-0.2-0.2-0.2-0.3-0.2-0.6c0-0.2,0.1-0.4,0.2-0.6
			c0.2-0.2,0.3-0.2,0.6-0.2c0.2,0,0.4,0.1,0.5,0.2c0.2,0.2,0.2,0.3,0.2,0.6c0,0.2-0.1,0.4-0.2,0.6C68.8,122.6,68.6,122.7,68.4,122.7
			z M68.9,123.8v7.1h-1.2v-7.1H68.9z M72.4,124.8v4.2c0,0.3,0.1,0.6,0.2,0.7c0.1,0.1,0.4,0.2,0.8,0.2h0.9v1h-1.1
			c-0.7,0-1.2-0.2-1.5-0.5c-0.3-0.3-0.5-0.8-0.5-1.5v-4.2h-0.9v-1h0.9v-1.8h1.2v1.8h1.9v1H72.4z M76.3,122.7c-0.2,0-0.4-0.1-0.6-0.2
			c-0.2-0.2-0.2-0.3-0.2-0.6c0-0.2,0.1-0.4,0.2-0.6c0.2-0.2,0.3-0.2,0.6-0.2c0.2,0,0.4,0.1,0.5,0.2c0.2,0.2,0.2,0.3,0.2,0.6
			c0,0.2-0.1,0.4-0.2,0.6C76.7,122.6,76.5,122.7,76.3,122.7z M76.9,123.8v7.1h-1.2v-7.1H76.9z M83.5,121.4v9.6h-1.2v-9.6H83.5z
			 M86.2,122.7c-0.2,0-0.4-0.1-0.6-0.2s-0.2-0.3-0.2-0.6c0-0.2,0.1-0.4,0.2-0.6c0.2-0.2,0.3-0.2,0.6-0.2c0.2,0,0.4,0.1,0.5,0.2
			c0.2,0.2,0.2,0.3,0.2,0.6c0,0.2-0.1,0.4-0.2,0.6C86.6,122.6,86.4,122.7,86.2,122.7z M86.7,123.8v7.1h-1.2v-7.1H86.7z M89.9,125.2
			c0.2-0.4,0.6-0.8,1.1-1c0.5-0.3,1-0.4,1.6-0.4c0.6,0,1.2,0.2,1.7,0.5c0.5,0.3,0.9,0.7,1.2,1.3c0.3,0.5,0.4,1.2,0.4,1.9
			c0,0.7-0.1,1.4-0.4,1.9c-0.3,0.6-0.7,1-1.2,1.3c-0.5,0.3-1.1,0.5-1.7,0.5c-0.6,0-1.2-0.1-1.6-0.4c-0.5-0.3-0.8-0.6-1-1v1.3h-1.2
			v-9.6h1.2V125.2z M94.8,127.4c0-0.5-0.1-1-0.3-1.4c-0.2-0.4-0.5-0.7-0.9-0.9c-0.4-0.2-0.8-0.3-1.2-0.3c-0.4,0-0.8,0.1-1.2,0.3
			c-0.4,0.2-0.7,0.5-0.9,0.9c-0.2,0.4-0.3,0.9-0.3,1.4c0,0.5,0.1,1,0.3,1.4c0.2,0.4,0.5,0.7,0.9,0.9c0.4,0.2,0.8,0.3,1.2,0.3
			c0.4,0,0.8-0.1,1.2-0.3c0.4-0.2,0.7-0.5,0.9-0.9C94.7,128.4,94.8,127.9,94.8,127.4z M104,127.1c0,0.2,0,0.5,0,0.7h-5.7
			c0,0.7,0.3,1.3,0.7,1.7c0.4,0.4,1,0.6,1.6,0.6c0.5,0,0.9-0.1,1.3-0.4c0.3-0.2,0.6-0.6,0.7-1h1.3c-0.2,0.7-0.6,1.2-1.1,1.7
			c-0.6,0.4-1.3,0.6-2.1,0.6c-0.7,0-1.3-0.2-1.8-0.5c-0.5-0.3-0.9-0.7-1.2-1.3c-0.3-0.6-0.5-1.2-0.5-1.9c0-0.7,0.1-1.4,0.4-1.9
			c0.3-0.6,0.7-1,1.2-1.3c0.5-0.3,1.2-0.5,1.8-0.5c0.7,0,1.3,0.1,1.8,0.4c0.5,0.3,0.9,0.7,1.2,1.2C103.9,125.9,104,126.5,104,127.1z
			 M102.8,126.9c0-0.5-0.1-0.8-0.3-1.2c-0.2-0.3-0.5-0.6-0.8-0.7c-0.3-0.2-0.7-0.3-1.1-0.3c-0.6,0-1.1,0.2-1.5,0.6
			c-0.4,0.4-0.7,0.9-0.7,1.6H102.8z M106.8,125c0.2-0.4,0.5-0.7,0.9-0.9c0.4-0.2,0.9-0.3,1.4-0.3v1.2h-0.3c-1.3,0-2,0.7-2,2.2v3.9
			h-1.2v-7.1h1.2V125z M113.5,131.1c-0.7,0-1.3-0.2-1.8-0.5c-0.5-0.3-1-0.7-1.3-1.3c-0.3-0.6-0.5-1.2-0.5-1.9c0-0.7,0.2-1.4,0.5-1.9
			c0.3-0.6,0.8-1,1.3-1.3c0.5-0.3,1.2-0.5,1.8-0.5s1.3,0.2,1.8,0.5c0.5,0.3,1,0.7,1.3,1.3c0.3,0.6,0.5,1.2,0.5,1.9
			c0,0.7-0.2,1.4-0.5,1.9c-0.3,0.6-0.8,1-1.3,1.3C114.8,130.9,114.2,131.1,113.5,131.1z M113.5,130c0.4,0,0.8-0.1,1.2-0.3
			c0.4-0.2,0.7-0.5,0.9-0.9c0.2-0.4,0.4-0.9,0.4-1.5c0-0.6-0.1-1.1-0.3-1.5c-0.2-0.4-0.5-0.7-0.9-0.9c-0.4-0.2-0.8-0.3-1.2-0.3
			c-0.4,0-0.8,0.1-1.2,0.3c-0.4,0.2-0.6,0.5-0.9,0.9c-0.2,0.4-0.3,0.9-0.3,1.5c0,0.6,0.1,1.1,0.3,1.5c0.2,0.4,0.5,0.7,0.9,0.9
			C112.7,130,113.1,130,113.5,130z M121.8,127.4c0-0.7,0.1-1.4,0.4-1.9c0.3-0.6,0.7-1,1.2-1.3c0.5-0.3,1.1-0.5,1.7-0.5
			c0.6,0,1.1,0.1,1.5,0.4c0.5,0.3,0.8,0.6,1.1,1v-3.8h1.2v9.6h-1.2v-1.3c-0.2,0.4-0.6,0.8-1,1.1c-0.5,0.3-1,0.4-1.6,0.4
			c-0.6,0-1.2-0.2-1.7-0.5c-0.5-0.3-0.9-0.8-1.2-1.3C121.9,128.7,121.8,128.1,121.8,127.4z M127.8,127.4c0-0.5-0.1-1-0.3-1.4
			c-0.2-0.4-0.5-0.7-0.9-0.9c-0.4-0.2-0.8-0.3-1.2-0.3s-0.8,0.1-1.2,0.3c-0.4,0.2-0.7,0.5-0.9,0.9c-0.2,0.4-0.3,0.9-0.3,1.4
			c0,0.5,0.1,1,0.3,1.4c0.2,0.4,0.5,0.7,0.9,0.9c0.4,0.2,0.8,0.3,1.2,0.3s0.8-0.1,1.2-0.3c0.4-0.2,0.7-0.5,0.9-0.9
			C127.7,128.4,127.8,127.9,127.8,127.4z M131.6,122.7c-0.2,0-0.4-0.1-0.6-0.2s-0.2-0.3-0.2-0.6c0-0.2,0.1-0.4,0.2-0.6
			c0.2-0.2,0.3-0.2,0.6-0.2c0.2,0,0.4,0.1,0.5,0.2c0.2,0.2,0.2,0.3,0.2,0.6c0,0.2-0.1,0.4-0.2,0.6
			C132,122.6,131.8,122.7,131.6,122.7z M132.2,123.8v7.1H131v-7.1H132.2z M138.9,125c0.2-0.4,0.5-0.7,0.9-0.9
			c0.4-0.2,0.9-0.3,1.4-0.3v1.2h-0.3c-1.3,0-2,0.7-2,2.2v3.9h-1.2v-7.1h1.2V125z M143.1,122.7c-0.2,0-0.4-0.1-0.6-0.2
			s-0.2-0.3-0.2-0.6c0-0.2,0.1-0.4,0.2-0.6c0.2-0.2,0.3-0.2,0.6-0.2c0.2,0,0.4,0.1,0.5,0.2c0.2,0.2,0.2,0.3,0.2,0.6
			c0,0.2-0.1,0.4-0.2,0.6C143.5,122.6,143.3,122.7,143.1,122.7z M143.7,123.8v7.1h-1.2v-7.1H143.7z M148.2,131.1
			c-0.5,0-1-0.1-1.5-0.3c-0.4-0.2-0.8-0.5-1-0.8c-0.3-0.3-0.4-0.7-0.4-1.2h1.2c0,0.4,0.2,0.6,0.5,0.9c0.3,0.2,0.7,0.3,1.2,0.3
			c0.4,0,0.8-0.1,1.1-0.3s0.4-0.5,0.4-0.8c0-0.3-0.1-0.5-0.4-0.7c-0.3-0.2-0.7-0.3-1.3-0.5c-0.5-0.1-1-0.3-1.3-0.4
			c-0.3-0.1-0.6-0.4-0.9-0.6c-0.2-0.3-0.4-0.7-0.4-1.1c0-0.4,0.1-0.7,0.3-1c0.2-0.3,0.5-0.5,0.9-0.7c0.4-0.2,0.9-0.3,1.4-0.3
			c0.8,0,1.4,0.2,1.9,0.6c0.5,0.4,0.7,0.9,0.8,1.6h-1.2c0-0.4-0.2-0.7-0.5-0.9c-0.3-0.2-0.6-0.3-1.1-0.3c-0.4,0-0.8,0.1-1,0.3
			c-0.3,0.2-0.4,0.4-0.4,0.7c0,0.2,0.1,0.4,0.2,0.6c0.2,0.1,0.3,0.3,0.6,0.4c0.2,0.1,0.6,0.2,1,0.3c0.5,0.1,0.9,0.3,1.2,0.4
			c0.3,0.1,0.6,0.3,0.8,0.6c0.2,0.3,0.4,0.6,0.4,1.1c0,0.4-0.1,0.7-0.3,1.1c-0.2,0.3-0.5,0.6-0.9,0.7
			C149.2,131,148.8,131.1,148.2,131.1z M153.7,125.2c0.2-0.4,0.6-0.7,1-1c0.5-0.3,1-0.4,1.6-0.4c0.6,0,1.2,0.2,1.7,0.5
			c0.5,0.3,0.9,0.7,1.2,1.3c0.3,0.5,0.4,1.2,0.4,1.9c0,0.7-0.1,1.4-0.4,1.9c-0.3,0.6-0.7,1-1.2,1.3c-0.5,0.3-1.1,0.5-1.7,0.5
			c-0.6,0-1.1-0.1-1.6-0.4c-0.5-0.3-0.8-0.6-1.1-1v4.7h-1.2v-10.5h1.2V125.2z M158.5,127.4c0-0.5-0.1-1-0.3-1.4
			c-0.2-0.4-0.5-0.7-0.9-0.9c-0.4-0.2-0.8-0.3-1.2-0.3c-0.4,0-0.8,0.1-1.2,0.3c-0.4,0.2-0.7,0.5-0.9,0.9c-0.2,0.4-0.3,0.9-0.3,1.4
			c0,0.5,0.1,1,0.3,1.4c0.2,0.4,0.5,0.7,0.9,0.9c0.4,0.2,0.8,0.3,1.2,0.3c0.4,0,0.8-0.1,1.2-0.3c0.4-0.2,0.7-0.5,0.9-0.9
			C158.4,128.4,158.5,127.9,158.5,127.4z M164.4,131.1c-0.7,0-1.3-0.2-1.8-0.5c-0.5-0.3-1-0.7-1.3-1.3c-0.3-0.6-0.5-1.2-0.5-1.9
			c0-0.7,0.2-1.4,0.5-1.9c0.3-0.6,0.8-1,1.3-1.3c0.5-0.3,1.2-0.5,1.8-0.5c0.7,0,1.3,0.2,1.8,0.5c0.5,0.3,1,0.7,1.3,1.3
			c0.3,0.6,0.5,1.2,0.5,1.9c0,0.7-0.2,1.4-0.5,1.9c-0.3,0.6-0.8,1-1.3,1.3C165.7,130.9,165.1,131.1,164.4,131.1z M164.4,130
			c0.4,0,0.8-0.1,1.2-0.3c0.4-0.2,0.7-0.5,0.9-0.9c0.2-0.4,0.4-0.9,0.4-1.5c0-0.6-0.1-1.1-0.3-1.5c-0.2-0.4-0.5-0.7-0.9-0.9
			c-0.4-0.2-0.8-0.3-1.2-0.3c-0.4,0-0.8,0.1-1.2,0.3c-0.4,0.2-0.6,0.5-0.9,0.9c-0.2,0.4-0.3,0.9-0.3,1.5c0,0.6,0.1,1.1,0.3,1.5
			c0.2,0.4,0.5,0.7,0.9,0.9C163.6,130,164,130,164.4,130z M173.1,123.7c0.9,0,1.6,0.3,2.1,0.8c0.5,0.5,0.8,1.3,0.8,2.3v4.2h-1.2v-4
			c0-0.7-0.2-1.3-0.5-1.6c-0.4-0.4-0.8-0.6-1.5-0.6c-0.6,0-1.1,0.2-1.5,0.6c-0.4,0.4-0.5,1-0.5,1.7v3.9h-1.2v-7.1h1.2v1
			c0.2-0.4,0.6-0.6,0.9-0.8C172.1,123.8,172.6,123.7,173.1,123.7z M177.5,127.4c0-0.7,0.1-1.4,0.4-1.9c0.3-0.6,0.7-1,1.2-1.3
			c0.5-0.3,1.1-0.5,1.7-0.5c0.6,0,1.1,0.1,1.5,0.4c0.5,0.3,0.8,0.6,1.1,1v-3.8h1.2v9.6h-1.2v-1.3c-0.2,0.4-0.6,0.8-1,1.1
			c-0.5,0.3-1,0.4-1.6,0.4c-0.6,0-1.2-0.2-1.7-0.5c-0.5-0.3-0.9-0.8-1.2-1.3C177.6,128.7,177.5,128.1,177.5,127.4z M183.5,127.4
			c0-0.5-0.1-1-0.3-1.4c-0.2-0.4-0.5-0.7-0.9-0.9c-0.4-0.2-0.8-0.3-1.2-0.3c-0.4,0-0.8,0.1-1.2,0.3c-0.4,0.2-0.7,0.5-0.9,0.9
			c-0.2,0.4-0.3,0.9-0.3,1.4c0,0.5,0.1,1,0.3,1.4c0.2,0.4,0.5,0.7,0.9,0.9c0.4,0.2,0.8,0.3,1.2,0.3c0.4,0,0.8-0.1,1.2-0.3
			c0.4-0.2,0.7-0.5,0.9-0.9C183.4,128.4,183.5,127.9,183.5,127.4z M193.2,127.1c0,0.2,0,0.5,0,0.7h-5.7c0,0.7,0.3,1.3,0.7,1.7
			c0.4,0.4,1,0.6,1.6,0.6c0.5,0,0.9-0.1,1.3-0.4c0.3-0.2,0.6-0.6,0.7-1h1.3c-0.2,0.7-0.6,1.2-1.1,1.7c-0.6,0.4-1.3,0.6-2.1,0.6
			c-0.7,0-1.3-0.2-1.8-0.5c-0.5-0.3-0.9-0.7-1.2-1.3c-0.3-0.6-0.5-1.2-0.5-1.9c0-0.7,0.1-1.4,0.4-1.9c0.3-0.6,0.7-1,1.2-1.3
			c0.5-0.3,1.2-0.5,1.8-0.5c0.7,0,1.3,0.1,1.8,0.4s0.9,0.7,1.2,1.2C193.1,125.9,193.2,126.5,193.2,127.1z M192,126.9
			c0-0.5-0.1-0.8-0.3-1.2c-0.2-0.3-0.5-0.6-0.8-0.7c-0.3-0.2-0.7-0.3-1.1-0.3c-0.6,0-1.1,0.2-1.5,0.6c-0.4,0.4-0.7,0.9-0.7,1.6H192z
			 M196,125c0.2-0.4,0.5-0.7,0.9-0.9c0.4-0.2,0.9-0.3,1.4-0.3v1.2h-0.3c-1.3,0-2,0.7-2,2.2v3.9h-1.2v-7.1h1.2V125z M206.1,127.1
			c0,0.2,0,0.5,0,0.7h-5.7c0,0.7,0.3,1.3,0.7,1.7c0.4,0.4,1,0.6,1.6,0.6c0.5,0,0.9-0.1,1.3-0.4c0.3-0.2,0.6-0.6,0.7-1h1.3
			c-0.2,0.7-0.6,1.2-1.1,1.7c-0.6,0.4-1.3,0.6-2.1,0.6c-0.7,0-1.3-0.2-1.8-0.5c-0.5-0.3-0.9-0.7-1.2-1.3c-0.3-0.6-0.5-1.2-0.5-1.9
			c0-0.7,0.1-1.4,0.4-1.9c0.3-0.6,0.7-1,1.2-1.3c0.5-0.3,1.2-0.5,1.8-0.5c0.7,0,1.3,0.1,1.8,0.4c0.5,0.3,0.9,0.7,1.2,1.2
			C206,125.9,206.1,126.5,206.1,127.1z M204.9,126.9c0-0.5-0.1-0.8-0.3-1.2c-0.2-0.3-0.5-0.6-0.8-0.7c-0.3-0.2-0.7-0.3-1.1-0.3
			c-0.6,0-1.1,0.2-1.5,0.6c-0.4,0.4-0.7,0.9-0.7,1.6H204.9z M210.7,127.4c0-0.7,0.1-1.4,0.4-1.9c0.3-0.6,0.7-1,1.2-1.3
			c0.5-0.3,1.1-0.5,1.7-0.5c0.6,0,1.2,0.1,1.6,0.4c0.5,0.3,0.8,0.6,1,1v-1.3h1.2v7.1h-1.2v-1.3c-0.2,0.4-0.6,0.8-1.1,1
			c-0.5,0.3-1,0.4-1.6,0.4c-0.6,0-1.2-0.2-1.7-0.5c-0.5-0.3-0.9-0.8-1.2-1.3C210.9,128.7,210.7,128.1,210.7,127.4z M216.7,127.4
			c0-0.5-0.1-1-0.3-1.4c-0.2-0.4-0.5-0.7-0.9-0.9c-0.4-0.2-0.8-0.3-1.2-0.3s-0.8,0.1-1.2,0.3c-0.4,0.2-0.7,0.5-0.9,0.9
			c-0.2,0.4-0.3,0.9-0.3,1.4c0,0.5,0.1,1,0.3,1.4c0.2,0.4,0.5,0.7,0.9,0.9c0.4,0.2,0.8,0.3,1.2,0.3s0.8-0.1,1.2-0.3
			c0.4-0.2,0.7-0.5,0.9-0.9C216.6,128.4,216.7,127.9,216.7,127.4z M221.1,121.4v9.6h-1.2v-9.6H221.1z M224.3,121.4v9.6h-1.2v-9.6
			H224.3z M232.8,127.1c0,0.2,0,0.5,0,0.7h-5.7c0,0.7,0.3,1.3,0.7,1.7c0.4,0.4,1,0.6,1.6,0.6c0.5,0,0.9-0.1,1.3-0.4
			c0.3-0.2,0.6-0.6,0.7-1h1.3c-0.2,0.7-0.6,1.2-1.1,1.7c-0.6,0.4-1.3,0.6-2.1,0.6c-0.7,0-1.3-0.2-1.8-0.5c-0.5-0.3-0.9-0.7-1.2-1.3
			c-0.3-0.6-0.5-1.2-0.5-1.9c0-0.7,0.1-1.4,0.4-1.9c0.3-0.6,0.7-1,1.2-1.3c0.5-0.3,1.2-0.5,1.8-0.5c0.7,0,1.3,0.1,1.8,0.4
			c0.5,0.3,0.9,0.7,1.2,1.2C232.7,125.9,232.8,126.5,232.8,127.1z M231.6,126.9c0-0.5-0.1-0.8-0.3-1.2c-0.2-0.3-0.5-0.6-0.8-0.7
			c-0.3-0.2-0.7-0.3-1.1-0.3c-0.6,0-1.1,0.2-1.5,0.6c-0.4,0.4-0.7,0.9-0.7,1.6H231.6z M237.4,127.4c0-0.7,0.1-1.4,0.4-1.9
			c0.3-0.6,0.7-1,1.2-1.3c0.5-0.3,1.1-0.5,1.7-0.5c0.6,0,1.1,0.1,1.5,0.4c0.5,0.3,0.8,0.6,1.1,1v-3.8h1.2v9.6h-1.2v-1.3
			c-0.2,0.4-0.6,0.8-1,1.1c-0.5,0.3-1,0.4-1.6,0.4c-0.6,0-1.2-0.2-1.7-0.5c-0.5-0.3-0.9-0.8-1.2-1.3
			C237.6,128.7,237.4,128.1,237.4,127.4z M243.4,127.4c0-0.5-0.1-1-0.3-1.4c-0.2-0.4-0.5-0.7-0.9-0.9c-0.4-0.2-0.8-0.3-1.2-0.3
			s-0.8,0.1-1.2,0.3c-0.4,0.2-0.7,0.5-0.9,0.9c-0.2,0.4-0.3,0.9-0.3,1.4c0,0.5,0.1,1,0.3,1.4c0.2,0.4,0.5,0.7,0.9,0.9
			c0.4,0.2,0.8,0.3,1.2,0.3s0.8-0.1,1.2-0.3c0.4-0.2,0.7-0.5,0.9-0.9C243.3,128.4,243.4,127.9,243.4,127.4z M249.8,131.1
			c-0.7,0-1.3-0.2-1.8-0.5c-0.5-0.3-1-0.7-1.3-1.3c-0.3-0.6-0.5-1.2-0.5-1.9c0-0.7,0.2-1.4,0.5-1.9c0.3-0.6,0.8-1,1.3-1.3
			c0.5-0.3,1.2-0.5,1.8-0.5c0.7,0,1.3,0.2,1.8,0.5c0.5,0.3,1,0.7,1.3,1.3c0.3,0.6,0.5,1.2,0.5,1.9c0,0.7-0.2,1.4-0.5,1.9
			c-0.3,0.6-0.8,1-1.3,1.3C251,130.9,250.4,131.1,249.8,131.1z M249.8,130c0.4,0,0.8-0.1,1.2-0.3c0.4-0.2,0.7-0.5,0.9-0.9
			c0.2-0.4,0.4-0.9,0.4-1.5c0-0.6-0.1-1.1-0.3-1.5c-0.2-0.4-0.5-0.7-0.9-0.9c-0.4-0.2-0.8-0.3-1.2-0.3c-0.4,0-0.8,0.1-1.2,0.3
			c-0.4,0.2-0.6,0.5-0.9,0.9c-0.2,0.4-0.3,0.9-0.3,1.5c0,0.6,0.1,1.1,0.3,1.5c0.2,0.4,0.5,0.7,0.9,0.9
			C248.9,130,249.3,130,249.8,130z M263.5,123.7c0.6,0,1,0.1,1.5,0.4c0.4,0.2,0.8,0.6,1,1c0.3,0.5,0.4,1,0.4,1.7v4.2h-1.2v-4
			c0-0.7-0.2-1.3-0.5-1.6c-0.3-0.4-0.8-0.6-1.4-0.6c-0.6,0-1.1,0.2-1.5,0.6c-0.4,0.4-0.5,1-0.5,1.7v3.9h-1.2v-4
			c0-0.7-0.2-1.3-0.5-1.6c-0.3-0.4-0.8-0.6-1.4-0.6c-0.6,0-1.1,0.2-1.5,0.6c-0.4,0.4-0.5,1-0.5,1.7v3.9H255v-7.1h1.2v1
			c0.2-0.4,0.5-0.7,0.9-0.9c0.4-0.2,0.8-0.3,1.3-0.3c0.6,0,1.1,0.1,1.6,0.4c0.5,0.3,0.8,0.7,1,1.2c0.2-0.5,0.5-0.9,1-1.2
			C262.5,123.9,263,123.7,263.5,123.7z M267.9,127.4c0-0.7,0.1-1.4,0.4-1.9c0.3-0.6,0.7-1,1.2-1.3c0.5-0.3,1.1-0.5,1.7-0.5
			c0.6,0,1.2,0.1,1.6,0.4c0.5,0.3,0.8,0.6,1,1v-1.3h1.2v7.1h-1.2v-1.3c-0.2,0.4-0.6,0.8-1.1,1c-0.5,0.3-1,0.4-1.6,0.4
			c-0.6,0-1.2-0.2-1.7-0.5c-0.5-0.3-0.9-0.8-1.2-1.3C268.1,128.7,267.9,128.1,267.9,127.4z M273.9,127.4c0-0.5-0.1-1-0.3-1.4
			c-0.2-0.4-0.5-0.7-0.9-0.9c-0.4-0.2-0.8-0.3-1.2-0.3c-0.4,0-0.8,0.1-1.2,0.3c-0.4,0.2-0.7,0.5-0.9,0.9c-0.2,0.4-0.3,0.9-0.3,1.4
			c0,0.5,0.1,1,0.3,1.4c0.2,0.4,0.5,0.7,0.9,0.9c0.4,0.2,0.8,0.3,1.2,0.3c0.4,0,0.8-0.1,1.2-0.3c0.4-0.2,0.7-0.5,0.9-0.9
			C273.8,128.4,273.9,127.9,273.9,127.4z M280.6,123.7c0.9,0,1.6,0.3,2.1,0.8c0.5,0.5,0.8,1.3,0.8,2.3v4.2h-1.2v-4
			c0-0.7-0.2-1.3-0.5-1.6c-0.4-0.4-0.8-0.6-1.5-0.6c-0.6,0-1.1,0.2-1.5,0.6c-0.4,0.4-0.5,1-0.5,1.7v3.9h-1.2v-7.1h1.2v1
			c0.2-0.4,0.5-0.6,0.9-0.8C279.7,123.8,280.1,123.7,280.6,123.7z M285,127.4c0-0.7,0.1-1.4,0.4-1.9c0.3-0.6,0.7-1,1.2-1.3
			c0.5-0.3,1.1-0.5,1.7-0.5c0.6,0,1.1,0.1,1.5,0.4c0.5,0.3,0.8,0.6,1.1,1v-3.8h1.2v9.6H291v-1.3c-0.2,0.4-0.6,0.8-1,1.1
			c-0.5,0.3-1,0.4-1.6,0.4c-0.6,0-1.2-0.2-1.7-0.5c-0.5-0.3-0.9-0.8-1.2-1.3C285.2,128.7,285,128.1,285,127.4z M291,127.4
			c0-0.5-0.1-1-0.3-1.4s-0.5-0.7-0.9-0.9c-0.4-0.2-0.8-0.3-1.2-0.3c-0.4,0-0.8,0.1-1.2,0.3c-0.4,0.2-0.7,0.5-0.9,0.9
			s-0.3,0.9-0.3,1.4c0,0.5,0.1,1,0.3,1.4c0.2,0.4,0.5,0.7,0.9,0.9c0.4,0.2,0.8,0.3,1.2,0.3c0.4,0,0.8-0.1,1.2-0.3
			c0.4-0.2,0.7-0.5,0.9-0.9C290.9,128.4,291,127.9,291,127.4z M300.7,127.1c0,0.2,0,0.5,0,0.7H295c0,0.7,0.3,1.3,0.7,1.7
			c0.4,0.4,1,0.6,1.6,0.6c0.5,0,0.9-0.1,1.3-0.4c0.3-0.2,0.6-0.6,0.7-1h1.3c-0.2,0.7-0.6,1.2-1.1,1.7c-0.6,0.4-1.3,0.6-2.1,0.6
			c-0.7,0-1.3-0.2-1.8-0.5c-0.5-0.3-0.9-0.7-1.2-1.3c-0.3-0.6-0.5-1.2-0.5-1.9c0-0.7,0.1-1.4,0.4-1.9c0.3-0.6,0.7-1,1.2-1.3
			c0.5-0.3,1.2-0.5,1.8-0.5c0.7,0,1.3,0.1,1.8,0.4c0.5,0.3,0.9,0.7,1.2,1.2C300.6,125.9,300.7,126.5,300.7,127.1z M299.5,126.9
			c0-0.5-0.1-0.8-0.3-1.2c-0.2-0.3-0.5-0.6-0.8-0.7c-0.3-0.2-0.7-0.3-1.1-0.3c-0.6,0-1.1,0.2-1.5,0.6c-0.4,0.4-0.7,0.9-0.7,1.6
			H299.5z M305.3,127.4c0-0.7,0.1-1.4,0.4-1.9c0.3-0.6,0.7-1,1.2-1.3c0.5-0.3,1.1-0.5,1.8-0.5c0.9,0,1.6,0.2,2.2,0.6
			c0.6,0.4,0.9,1,1.1,1.8h-1.3c-0.1-0.4-0.4-0.8-0.7-1c-0.3-0.3-0.8-0.4-1.3-0.4c-0.7,0-1.2,0.2-1.6,0.7c-0.4,0.5-0.6,1.1-0.6,2
			c0,0.9,0.2,1.5,0.6,2c0.4,0.5,1,0.7,1.6,0.7c0.5,0,1-0.1,1.3-0.4c0.3-0.2,0.6-0.6,0.7-1h1.3c-0.2,0.7-0.6,1.3-1.1,1.8
			c-0.6,0.4-1.3,0.7-2.1,0.7c-0.7,0-1.3-0.2-1.8-0.5c-0.5-0.3-0.9-0.7-1.2-1.3C305.5,128.8,305.3,128.1,305.3,127.4z M317.2,123.7
			c0.5,0,1,0.1,1.5,0.4c0.4,0.2,0.8,0.6,1,1c0.3,0.5,0.4,1,0.4,1.7v4.2h-1.2v-4c0-0.7-0.2-1.3-0.5-1.6c-0.4-0.4-0.8-0.6-1.5-0.6
			c-0.6,0-1.1,0.2-1.5,0.6c-0.4,0.4-0.5,1-0.5,1.7v3.9h-1.2v-9.6h1.2v3.5c0.2-0.4,0.6-0.6,1-0.8
			C316.2,123.8,316.7,123.7,317.2,123.7z M328.5,127.1c0,0.2,0,0.5,0,0.7h-5.7c0,0.7,0.3,1.3,0.7,1.7c0.4,0.4,1,0.6,1.6,0.6
			c0.5,0,0.9-0.1,1.3-0.4c0.3-0.2,0.6-0.6,0.7-1h1.3c-0.2,0.7-0.6,1.2-1.1,1.7c-0.6,0.4-1.3,0.6-2.1,0.6c-0.7,0-1.3-0.2-1.8-0.5
			c-0.5-0.3-0.9-0.7-1.2-1.3c-0.3-0.6-0.5-1.2-0.5-1.9c0-0.7,0.1-1.4,0.4-1.9c0.3-0.6,0.7-1,1.2-1.3c0.5-0.3,1.2-0.5,1.8-0.5
			c0.7,0,1.3,0.1,1.8,0.4c0.5,0.3,0.9,0.7,1.2,1.2C328.3,125.9,328.5,126.5,328.5,127.1z M327.3,126.9c0-0.5-0.1-0.8-0.3-1.2
			c-0.2-0.3-0.5-0.6-0.8-0.7c-0.3-0.2-0.7-0.3-1.1-0.3c-0.6,0-1.1,0.2-1.5,0.6c-0.4,0.4-0.7,0.9-0.7,1.6H327.3z M41.7,149.9l2.2-6
			h1.3l-2.8,7.1H41l-2.8-7.1h1.3L41.7,149.9z M52.6,143.8v7.1h-1.2v-1.1c-0.2,0.4-0.5,0.6-0.9,0.9c-0.4,0.2-0.8,0.3-1.3,0.3
			c-0.6,0-1.1-0.1-1.5-0.3c-0.4-0.2-0.8-0.6-1.1-1c-0.3-0.5-0.4-1-0.4-1.7v-4.2h1.2v4c0,0.7,0.2,1.2,0.5,1.6
			c0.4,0.4,0.8,0.6,1.5,0.6c0.6,0,1.1-0.2,1.5-0.6c0.4-0.4,0.5-1,0.5-1.7v-3.9H52.6z M57.7,151.1c-0.7,0-1.3-0.2-1.8-0.5
			c-0.5-0.3-1-0.7-1.3-1.3c-0.3-0.6-0.5-1.2-0.5-2c0-0.7,0.2-1.4,0.5-1.9c0.3-0.6,0.8-1,1.3-1.3c0.5-0.3,1.2-0.5,1.8-0.5
			c0.7,0,1.3,0.2,1.8,0.5c0.5,0.3,1,0.7,1.3,1.3c0.3,0.6,0.5,1.2,0.5,1.9s-0.2,1.4-0.5,2c-0.3,0.6-0.8,1-1.3,1.3
			C59,150.9,58.4,151.1,57.7,151.1z M57.7,150c0.4,0,0.8-0.1,1.2-0.3c0.4-0.2,0.7-0.5,0.9-0.9c0.2-0.4,0.4-0.9,0.4-1.5
			c0-0.6-0.1-1.1-0.3-1.5c-0.2-0.4-0.5-0.7-0.9-0.9c-0.4-0.2-0.8-0.3-1.2-0.3c-0.4,0-0.8,0.1-1.2,0.3c-0.4,0.2-0.6,0.5-0.9,0.9
			c-0.2,0.4-0.3,0.9-0.3,1.5c0,0.6,0.1,1.1,0.3,1.5c0.2,0.4,0.5,0.7,0.9,0.9C56.9,150,57.3,150,57.7,150z M63.5,142.7
			c-0.2,0-0.4-0.1-0.6-0.2c-0.2-0.2-0.2-0.3-0.2-0.6s0.1-0.4,0.2-0.6c0.2-0.2,0.3-0.2,0.6-0.2c0.2,0,0.4,0.1,0.5,0.2
			c0.2,0.2,0.2,0.3,0.2,0.6s-0.1,0.4-0.2,0.6C63.9,142.6,63.7,142.7,63.5,142.7z M64.1,143.8v7.1h-1.2v-7.1H64.1z M67.3,149.3
			l-1.5,3.5h-0.8l0.9-3.5H67.3z M74.7,151.1c-0.5,0-1-0.1-1.5-0.3c-0.4-0.2-0.8-0.5-1-0.8c-0.3-0.3-0.4-0.7-0.4-1.2H73
			c0,0.4,0.2,0.6,0.5,0.9c0.3,0.2,0.7,0.3,1.2,0.3c0.5,0,0.8-0.1,1.1-0.3c0.3-0.2,0.4-0.5,0.4-0.8c0-0.3-0.1-0.5-0.4-0.7
			c-0.3-0.2-0.7-0.3-1.3-0.5c-0.5-0.1-1-0.3-1.3-0.4c-0.3-0.1-0.6-0.4-0.9-0.6c-0.2-0.3-0.4-0.7-0.4-1.1c0-0.4,0.1-0.7,0.3-1
			c0.2-0.3,0.5-0.5,0.9-0.7c0.4-0.2,0.9-0.3,1.4-0.3c0.8,0,1.4,0.2,1.9,0.6c0.5,0.4,0.7,0.9,0.8,1.6H76c0-0.4-0.2-0.7-0.5-0.9
			c-0.3-0.2-0.6-0.3-1.1-0.3c-0.4,0-0.8,0.1-1,0.3c-0.3,0.2-0.4,0.4-0.4,0.7c0,0.2,0.1,0.4,0.2,0.6c0.2,0.1,0.3,0.3,0.6,0.4
			c0.2,0.1,0.6,0.2,1,0.3c0.5,0.1,0.9,0.3,1.2,0.4c0.3,0.1,0.6,0.3,0.8,0.6c0.2,0.3,0.4,0.6,0.4,1.1c0,0.4-0.1,0.7-0.3,1.1
			c-0.2,0.3-0.5,0.6-0.9,0.7C75.6,151,75.2,151.1,74.7,151.1z M85.5,147.1c0,0.2,0,0.5,0,0.7h-5.7c0,0.7,0.3,1.3,0.7,1.7
			c0.4,0.4,1,0.6,1.6,0.6c0.5,0,0.9-0.1,1.3-0.4c0.3-0.2,0.6-0.6,0.7-1h1.3c-0.2,0.7-0.6,1.2-1.1,1.7c-0.6,0.4-1.3,0.6-2.1,0.6
			c-0.7,0-1.3-0.2-1.8-0.5c-0.5-0.3-0.9-0.7-1.2-1.3c-0.3-0.6-0.5-1.2-0.5-2s0.1-1.4,0.4-1.9c0.3-0.6,0.7-1,1.2-1.3
			c0.5-0.3,1.2-0.5,1.8-0.5c0.7,0,1.3,0.1,1.8,0.4c0.5,0.3,0.9,0.7,1.2,1.2C85.3,145.9,85.5,146.5,85.5,147.1z M84.2,146.9
			c0-0.5-0.1-0.8-0.3-1.2c-0.2-0.3-0.5-0.6-0.8-0.7c-0.3-0.2-0.7-0.3-1.1-0.3c-0.6,0-1.1,0.2-1.5,0.6c-0.4,0.4-0.7,0.9-0.7,1.6H84.2
			z M94,143.7c0.9,0,1.6,0.3,2.1,0.8c0.5,0.5,0.8,1.3,0.8,2.3v4.2h-1.2v-4c0-0.7-0.2-1.3-0.5-1.6c-0.4-0.4-0.8-0.6-1.5-0.6
			c-0.6,0-1.1,0.2-1.5,0.6c-0.4,0.4-0.5,1-0.5,1.7v3.9h-1.2v-7.1h1.2v1c0.2-0.4,0.6-0.6,0.9-0.8C93,143.8,93.5,143.7,94,143.7z
			 M101.9,151.1c-0.7,0-1.3-0.2-1.8-0.5c-0.5-0.3-1-0.7-1.3-1.3c-0.3-0.6-0.5-1.2-0.5-2c0-0.7,0.2-1.4,0.5-1.9
			c0.3-0.6,0.8-1,1.3-1.3c0.5-0.3,1.2-0.5,1.8-0.5c0.7,0,1.3,0.2,1.8,0.5c0.5,0.3,1,0.7,1.3,1.3c0.3,0.6,0.5,1.2,0.5,1.9
			s-0.2,1.4-0.5,2c-0.3,0.6-0.8,1-1.3,1.3C103.2,150.9,102.6,151.1,101.9,151.1z M101.9,150c0.4,0,0.8-0.1,1.2-0.3
			c0.4-0.2,0.7-0.5,0.9-0.9c0.2-0.4,0.4-0.9,0.4-1.5c0-0.6-0.1-1.1-0.3-1.5c-0.2-0.4-0.5-0.7-0.9-0.9c-0.4-0.2-0.8-0.3-1.2-0.3
			c-0.4,0-0.8,0.1-1.2,0.3c-0.4,0.2-0.6,0.5-0.9,0.9c-0.2,0.4-0.3,0.9-0.3,1.5c0,0.6,0.1,1.1,0.3,1.5c0.2,0.4,0.5,0.7,0.9,0.9
			C101.1,150,101.5,150,101.9,150z M110.6,143.7c0.9,0,1.6,0.3,2.1,0.8c0.5,0.5,0.8,1.3,0.8,2.3v4.2h-1.2v-4c0-0.7-0.2-1.3-0.5-1.6
			c-0.4-0.4-0.8-0.6-1.5-0.6c-0.6,0-1.1,0.2-1.5,0.6c-0.4,0.4-0.5,1-0.5,1.7v3.9h-1.2v-7.1h1.2v1c0.2-0.4,0.6-0.6,0.9-0.8
			C109.7,143.8,110.1,143.7,110.6,143.7z M120.3,144.8v4.2c0,0.3,0.1,0.6,0.2,0.7c0.1,0.1,0.4,0.2,0.8,0.2h0.9v1h-1.1
			c-0.7,0-1.2-0.2-1.5-0.5c-0.3-0.3-0.5-0.8-0.5-1.5v-4.2h-0.9v-1h0.9v-1.8h1.2v1.8h1.9v1H120.3z M124.2,142.7
			c-0.2,0-0.4-0.1-0.6-0.2c-0.2-0.2-0.2-0.3-0.2-0.6s0.1-0.4,0.2-0.6s0.3-0.2,0.6-0.2c0.2,0,0.4,0.1,0.5,0.2
			c0.2,0.2,0.2,0.3,0.2,0.6s-0.1,0.4-0.2,0.6C124.6,142.6,124.5,142.7,124.2,142.7z M124.8,143.8v7.1h-1.2v-7.1H124.8z M130.9,142.7
			c-0.2,0-0.4-0.1-0.6-0.2c-0.2-0.2-0.2-0.3-0.2-0.6s0.1-0.4,0.2-0.6s0.3-0.2,0.6-0.2c0.2,0,0.4,0.1,0.5,0.2
			c0.2,0.2,0.2,0.3,0.2,0.6s-0.1,0.4-0.2,0.6C131.3,142.6,131.1,142.7,130.9,142.7z M131.5,143.8v7.1h-1.2v-7.1H131.5z M137,143.7
			c0.9,0,1.6,0.3,2.1,0.8c0.5,0.5,0.8,1.3,0.8,2.3v4.2h-1.2v-4c0-0.7-0.2-1.3-0.5-1.6c-0.4-0.4-0.8-0.6-1.5-0.6
			c-0.6,0-1.1,0.2-1.5,0.6c-0.4,0.4-0.5,1-0.5,1.7v3.9h-1.2v-7.1h1.2v1c0.2-0.4,0.6-0.6,0.9-0.8C136,143.8,136.5,143.7,137,143.7z
			 M143.3,144.8v4.2c0,0.3,0.1,0.6,0.2,0.7c0.1,0.1,0.4,0.2,0.8,0.2h0.9v1H144c-0.7,0-1.2-0.2-1.5-0.5c-0.3-0.3-0.5-0.8-0.5-1.5
			v-4.2h-0.9v-1h0.9v-1.8h1.2v1.8h1.9v1H143.3z M153,147.1c0,0.2,0,0.5,0,0.7h-5.7c0,0.7,0.3,1.3,0.7,1.7c0.4,0.4,1,0.6,1.6,0.6
			c0.5,0,0.9-0.1,1.3-0.4c0.3-0.2,0.6-0.6,0.7-1h1.3c-0.2,0.7-0.6,1.2-1.1,1.7c-0.6,0.4-1.3,0.6-2.1,0.6c-0.7,0-1.3-0.2-1.8-0.5
			c-0.5-0.3-0.9-0.7-1.2-1.3c-0.3-0.6-0.5-1.2-0.5-2s0.1-1.4,0.4-1.9s0.7-1,1.2-1.3c0.5-0.3,1.2-0.5,1.8-0.5c0.7,0,1.3,0.1,1.8,0.4
			c0.5,0.3,0.9,0.7,1.2,1.2C152.9,145.9,153,146.5,153,147.1z M151.8,146.9c0-0.5-0.1-0.8-0.3-1.2c-0.2-0.3-0.5-0.6-0.8-0.7
			c-0.3-0.2-0.7-0.3-1.1-0.3c-0.6,0-1.1,0.2-1.5,0.6c-0.4,0.4-0.7,0.9-0.7,1.6H151.8z M155.8,145c0.2-0.4,0.5-0.7,0.9-0.9
			c0.4-0.2,0.9-0.3,1.4-0.3v1.2h-0.3c-1.3,0-2,0.7-2,2.2v3.9h-1.2v-7.1h1.2V145z M166,147.1c0,0.2,0,0.5,0,0.7h-5.7
			c0,0.7,0.3,1.3,0.7,1.7c0.4,0.4,1,0.6,1.6,0.6c0.5,0,0.9-0.1,1.3-0.4c0.3-0.2,0.6-0.6,0.7-1h1.3c-0.2,0.7-0.6,1.2-1.1,1.7
			c-0.6,0.4-1.3,0.6-2.1,0.6c-0.7,0-1.3-0.2-1.8-0.5c-0.5-0.3-0.9-0.7-1.2-1.3c-0.3-0.6-0.5-1.2-0.5-2s0.1-1.4,0.4-1.9
			s0.7-1,1.2-1.3c0.5-0.3,1.2-0.5,1.8-0.5c0.7,0,1.3,0.1,1.8,0.4c0.5,0.3,0.9,0.7,1.2,1.2C165.8,145.9,166,146.5,166,147.1z
			 M164.7,146.9c0-0.5-0.1-0.8-0.3-1.2c-0.2-0.3-0.5-0.6-0.8-0.7c-0.3-0.2-0.7-0.3-1.1-0.3c-0.6,0-1.1,0.2-1.5,0.6
			c-0.4,0.4-0.7,0.9-0.7,1.6H164.7z M170,151.1c-0.5,0-1-0.1-1.5-0.3c-0.4-0.2-0.8-0.5-1-0.8c-0.3-0.3-0.4-0.7-0.4-1.2h1.2
			c0,0.4,0.2,0.6,0.5,0.9c0.3,0.2,0.7,0.3,1.2,0.3c0.5,0,0.8-0.1,1.1-0.3c0.3-0.2,0.4-0.5,0.4-0.8c0-0.3-0.1-0.5-0.4-0.7
			c-0.3-0.2-0.7-0.3-1.3-0.5c-0.5-0.1-1-0.3-1.3-0.4c-0.3-0.1-0.6-0.4-0.9-0.6c-0.2-0.3-0.4-0.7-0.4-1.1c0-0.4,0.1-0.7,0.3-1
			c0.2-0.3,0.5-0.5,0.9-0.7c0.4-0.2,0.9-0.3,1.4-0.3c0.8,0,1.4,0.2,1.9,0.6c0.5,0.4,0.7,0.9,0.8,1.6h-1.2c0-0.4-0.2-0.7-0.5-0.9
			c-0.3-0.2-0.6-0.3-1.1-0.3c-0.4,0-0.8,0.1-1,0.3c-0.3,0.2-0.4,0.4-0.4,0.7c0,0.2,0.1,0.4,0.2,0.6c0.2,0.1,0.3,0.3,0.6,0.4
			c0.2,0.1,0.6,0.2,1,0.3c0.5,0.1,0.9,0.3,1.2,0.4c0.3,0.1,0.6,0.3,0.8,0.6c0.2,0.3,0.4,0.6,0.4,1.1c0,0.4-0.1,0.7-0.3,1.1
			c-0.2,0.3-0.5,0.6-0.9,0.7C171,151,170.5,151.1,170,151.1z M176.8,151.1c-0.5,0-1-0.1-1.5-0.3c-0.4-0.2-0.8-0.5-1-0.8
			c-0.3-0.3-0.4-0.7-0.4-1.2h1.2c0,0.4,0.2,0.6,0.5,0.9c0.3,0.2,0.7,0.3,1.2,0.3c0.4,0,0.8-0.1,1.1-0.3c0.3-0.2,0.4-0.5,0.4-0.8
			c0-0.3-0.1-0.5-0.4-0.7c-0.3-0.2-0.7-0.3-1.3-0.5c-0.5-0.1-1-0.3-1.3-0.4c-0.3-0.1-0.6-0.4-0.9-0.6c-0.2-0.3-0.4-0.7-0.4-1.1
			c0-0.4,0.1-0.7,0.3-1c0.2-0.3,0.5-0.5,0.9-0.7c0.4-0.2,0.9-0.3,1.4-0.3c0.8,0,1.4,0.2,1.9,0.6c0.5,0.4,0.7,0.9,0.8,1.6h-1.2
			c0-0.4-0.2-0.7-0.5-0.9c-0.3-0.2-0.6-0.3-1.1-0.3c-0.4,0-0.8,0.1-1,0.3c-0.3,0.2-0.4,0.4-0.4,0.7c0,0.2,0.1,0.4,0.2,0.6
			c0.2,0.1,0.3,0.3,0.6,0.4c0.2,0.1,0.6,0.2,1,0.3c0.5,0.1,0.9,0.3,1.2,0.4c0.3,0.1,0.6,0.3,0.8,0.6c0.2,0.3,0.4,0.6,0.4,1.1
			c0,0.4-0.1,0.7-0.3,1.1c-0.2,0.3-0.5,0.6-0.9,0.7C177.8,151,177.3,151.1,176.8,151.1z M180.7,147.4c0-0.7,0.1-1.4,0.4-1.9
			c0.3-0.6,0.7-1,1.2-1.3c0.5-0.3,1.1-0.5,1.7-0.5c0.6,0,1.2,0.1,1.6,0.4c0.5,0.3,0.8,0.6,1,1v-1.3h1.2v7.1h-1.2v-1.3
			c-0.2,0.4-0.6,0.8-1.1,1c-0.5,0.3-1,0.4-1.6,0.4c-0.6,0-1.2-0.2-1.7-0.5c-0.5-0.3-0.9-0.8-1.2-1.3
			C180.8,148.7,180.7,148.1,180.7,147.4z M186.7,147.4c0-0.5-0.1-1-0.3-1.4c-0.2-0.4-0.5-0.7-0.9-0.9c-0.4-0.2-0.8-0.3-1.2-0.3
			s-0.8,0.1-1.2,0.3c-0.4,0.2-0.7,0.5-0.9,0.9c-0.2,0.4-0.3,0.9-0.3,1.4c0,0.5,0.1,1,0.3,1.4c0.2,0.4,0.5,0.7,0.9,0.9
			c0.4,0.2,0.8,0.3,1.2,0.3s0.8-0.1,1.2-0.3c0.4-0.2,0.7-0.5,0.9-0.9C186.6,148.4,186.7,147.9,186.7,147.4z M199.7,143.8v7.1h-1.2
			v-1.1c-0.2,0.4-0.5,0.6-0.9,0.9c-0.4,0.2-0.8,0.3-1.3,0.3c-0.6,0-1.1-0.1-1.5-0.3c-0.4-0.2-0.8-0.6-1.1-1c-0.3-0.5-0.4-1-0.4-1.7
			v-4.2h1.2v4c0,0.7,0.2,1.2,0.5,1.6c0.4,0.4,0.8,0.6,1.5,0.6c0.6,0,1.1-0.2,1.5-0.6c0.4-0.4,0.5-1,0.5-1.7v-3.9H199.7z
			 M205.1,143.7c0.9,0,1.6,0.3,2.1,0.8c0.5,0.5,0.8,1.3,0.8,2.3v4.2h-1.2v-4c0-0.7-0.2-1.3-0.5-1.6c-0.4-0.4-0.8-0.6-1.5-0.6
			c-0.6,0-1.1,0.2-1.5,0.6c-0.4,0.4-0.5,1-0.5,1.7v3.9h-1.2v-7.1h1.2v1c0.2-0.4,0.6-0.6,0.9-0.8
			C204.2,143.8,204.7,143.7,205.1,143.7z M209.5,147.4c0-0.7,0.1-1.4,0.4-1.9c0.3-0.6,0.7-1,1.2-1.3c0.5-0.3,1.1-0.5,1.7-0.5
			c0.6,0,1.2,0.1,1.6,0.4c0.5,0.3,0.8,0.6,1,1v-1.3h1.2v7.1h-1.2v-1.3c-0.2,0.4-0.6,0.8-1.1,1c-0.5,0.3-1,0.4-1.6,0.4
			c-0.6,0-1.2-0.2-1.7-0.5c-0.5-0.3-0.9-0.8-1.2-1.3C209.7,148.7,209.5,148.1,209.5,147.4z M215.6,147.4c0-0.5-0.1-1-0.3-1.4
			c-0.2-0.4-0.5-0.7-0.9-0.9c-0.4-0.2-0.8-0.3-1.2-0.3s-0.8,0.1-1.2,0.3c-0.4,0.2-0.7,0.5-0.9,0.9c-0.2,0.4-0.3,0.9-0.3,1.4
			c0,0.5,0.1,1,0.3,1.4c0.2,0.4,0.5,0.7,0.9,0.9c0.4,0.2,0.8,0.3,1.2,0.3s0.8-0.1,1.2-0.3c0.4-0.2,0.7-0.5,0.9-0.9
			C215.5,148.4,215.6,147.9,215.6,147.4z M221.8,147.4c0-0.7,0.1-1.4,0.4-1.9c0.3-0.6,0.7-1,1.2-1.3c0.5-0.3,1.1-0.5,1.7-0.5
			c0.6,0,1.1,0.1,1.5,0.4c0.5,0.3,0.8,0.6,1.1,1v-3.8h1.2v9.6h-1.2v-1.3c-0.2,0.4-0.6,0.8-1,1.1c-0.5,0.3-1,0.4-1.6,0.4
			c-0.6,0-1.2-0.2-1.7-0.5c-0.5-0.3-0.9-0.8-1.2-1.3C221.9,148.7,221.8,148.1,221.8,147.4z M227.8,147.4c0-0.5-0.1-1-0.3-1.4
			c-0.2-0.4-0.5-0.7-0.9-0.9c-0.4-0.2-0.8-0.3-1.2-0.3c-0.4,0-0.8,0.1-1.2,0.3c-0.4,0.2-0.7,0.5-0.9,0.9c-0.2,0.4-0.3,0.9-0.3,1.4
			c0,0.5,0.1,1,0.3,1.4c0.2,0.4,0.5,0.7,0.9,0.9c0.4,0.2,0.8,0.3,1.2,0.3c0.4,0,0.8-0.1,1.2-0.3c0.4-0.2,0.7-0.5,0.9-0.9
			C227.7,148.4,227.8,147.9,227.8,147.4z M234.1,151.1c-0.7,0-1.3-0.2-1.8-0.5c-0.5-0.3-1-0.7-1.3-1.3c-0.3-0.6-0.5-1.2-0.5-2
			c0-0.7,0.2-1.4,0.5-1.9c0.3-0.6,0.8-1,1.3-1.3c0.5-0.3,1.2-0.5,1.8-0.5s1.3,0.2,1.8,0.5c0.5,0.3,1,0.7,1.3,1.3
			c0.3,0.6,0.5,1.2,0.5,1.9s-0.2,1.4-0.5,2c-0.3,0.6-0.8,1-1.3,1.3C235.4,150.9,234.8,151.1,234.1,151.1z M234.1,150
			c0.4,0,0.8-0.1,1.2-0.3c0.4-0.2,0.7-0.5,0.9-0.9c0.2-0.4,0.4-0.9,0.4-1.5c0-0.6-0.1-1.1-0.3-1.5c-0.2-0.4-0.5-0.7-0.9-0.9
			c-0.4-0.2-0.8-0.3-1.2-0.3c-0.4,0-0.8,0.1-1.2,0.3c-0.4,0.2-0.6,0.5-0.9,0.9c-0.2,0.4-0.3,0.9-0.3,1.5c0,0.6,0.1,1.1,0.3,1.5
			c0.2,0.4,0.5,0.7,0.9,0.9C233.3,150,233.7,150,234.1,150z M247.9,143.7c0.6,0,1,0.1,1.5,0.4c0.4,0.2,0.8,0.6,1,1
			c0.3,0.5,0.4,1,0.4,1.7v4.2h-1.2v-4c0-0.7-0.2-1.3-0.5-1.6c-0.3-0.4-0.8-0.6-1.4-0.6c-0.6,0-1.1,0.2-1.5,0.6
			c-0.4,0.4-0.5,1-0.5,1.7v3.9h-1.2v-4c0-0.7-0.2-1.3-0.5-1.6c-0.3-0.4-0.8-0.6-1.4-0.6c-0.6,0-1.1,0.2-1.5,0.6
			c-0.4,0.4-0.5,1-0.5,1.7v3.9h-1.2v-7.1h1.2v1c0.2-0.4,0.5-0.7,0.9-0.9c0.4-0.2,0.8-0.3,1.3-0.3c0.6,0,1.1,0.1,1.6,0.4
			c0.5,0.3,0.8,0.7,1,1.2c0.2-0.5,0.5-0.9,1-1.2C246.8,143.9,247.3,143.7,247.9,143.7z M252.3,147.4c0-0.7,0.1-1.4,0.4-1.9
			c0.3-0.6,0.7-1,1.2-1.3c0.5-0.3,1.1-0.5,1.7-0.5c0.6,0,1.2,0.1,1.6,0.4c0.5,0.3,0.8,0.6,1,1v-1.3h1.2v7.1h-1.2v-1.3
			c-0.2,0.4-0.6,0.8-1.1,1c-0.5,0.3-1,0.4-1.6,0.4c-0.6,0-1.2-0.2-1.7-0.5c-0.5-0.3-0.9-0.8-1.2-1.3
			C252.4,148.7,252.3,148.1,252.3,147.4z M258.3,147.4c0-0.5-0.1-1-0.3-1.4c-0.2-0.4-0.5-0.7-0.9-0.9c-0.4-0.2-0.8-0.3-1.2-0.3
			s-0.8,0.1-1.2,0.3c-0.4,0.2-0.7,0.5-0.9,0.9c-0.2,0.4-0.3,0.9-0.3,1.4c0,0.5,0.1,1,0.3,1.4c0.2,0.4,0.5,0.7,0.9,0.9
			c0.4,0.2,0.8,0.3,1.2,0.3s0.8-0.1,1.2-0.3c0.4-0.2,0.7-0.5,0.9-0.9C258.2,148.4,258.3,147.9,258.3,147.4z M265,143.7
			c0.9,0,1.6,0.3,2.1,0.8c0.5,0.5,0.8,1.3,0.8,2.3v4.2h-1.2v-4c0-0.7-0.2-1.3-0.5-1.6c-0.4-0.4-0.8-0.6-1.5-0.6
			c-0.6,0-1.1,0.2-1.5,0.6c-0.4,0.4-0.5,1-0.5,1.7v3.9h-1.2v-7.1h1.2v1c0.2-0.4,0.5-0.6,0.9-0.8C264.1,143.8,264.5,143.7,265,143.7z
			 M269.4,147.4c0-0.7,0.1-1.4,0.4-1.9c0.3-0.6,0.7-1,1.2-1.3c0.5-0.3,1.1-0.5,1.7-0.5c0.6,0,1.1,0.1,1.5,0.4c0.5,0.3,0.8,0.6,1.1,1
			v-3.8h1.2v9.6h-1.2v-1.3c-0.2,0.4-0.6,0.8-1,1.1c-0.5,0.3-1,0.4-1.6,0.4c-0.6,0-1.2-0.2-1.7-0.5c-0.5-0.3-0.9-0.8-1.2-1.3
			C269.5,148.7,269.4,148.1,269.4,147.4z M275.4,147.4c0-0.5-0.1-1-0.3-1.4c-0.2-0.4-0.5-0.7-0.9-0.9c-0.4-0.2-0.8-0.3-1.2-0.3
			c-0.4,0-0.8,0.1-1.2,0.3c-0.4,0.2-0.7,0.5-0.9,0.9c-0.2,0.4-0.3,0.9-0.3,1.4c0,0.5,0.1,1,0.3,1.4c0.2,0.4,0.5,0.7,0.9,0.9
			c0.4,0.2,0.8,0.3,1.2,0.3c0.4,0,0.8-0.1,1.2-0.3c0.4-0.2,0.7-0.5,0.9-0.9C275.3,148.4,275.4,147.9,275.4,147.4z M278.2,147.4
			c0-0.7,0.1-1.4,0.4-1.9c0.3-0.6,0.7-1,1.2-1.3c0.5-0.3,1.1-0.5,1.7-0.5c0.6,0,1.2,0.1,1.6,0.4c0.5,0.3,0.8,0.6,1,1v-1.3h1.2v7.1
			h-1.2v-1.3c-0.2,0.4-0.6,0.8-1.1,1c-0.5,0.3-1,0.4-1.6,0.4c-0.6,0-1.2-0.2-1.7-0.5c-0.5-0.3-0.9-0.8-1.2-1.3
			C278.3,148.7,278.2,148.1,278.2,147.4z M284.2,147.4c0-0.5-0.1-1-0.3-1.4c-0.2-0.4-0.5-0.7-0.9-0.9c-0.4-0.2-0.8-0.3-1.2-0.3
			c-0.4,0-0.8,0.1-1.2,0.3c-0.4,0.2-0.7,0.5-0.9,0.9c-0.2,0.4-0.3,0.9-0.3,1.4c0,0.5,0.1,1,0.3,1.4c0.2,0.4,0.5,0.7,0.9,0.9
			c0.4,0.2,0.8,0.3,1.2,0.3c0.4,0,0.8-0.1,1.2-0.3c0.4-0.2,0.7-0.5,0.9-0.9C284.1,148.4,284.2,147.9,284.2,147.4z M292,145.2
			c0.2-0.4,0.6-0.7,1-1c0.5-0.3,1-0.4,1.6-0.4c0.6,0,1.2,0.2,1.7,0.5c0.5,0.3,0.9,0.7,1.2,1.3c0.3,0.5,0.4,1.2,0.4,1.9
			c0,0.7-0.1,1.4-0.4,1.9c-0.3,0.6-0.7,1-1.2,1.3c-0.5,0.3-1.1,0.5-1.7,0.5c-0.6,0-1.1-0.1-1.6-0.4c-0.5-0.3-0.8-0.6-1.1-1v4.7h-1.2
			v-10.5h1.2V145.2z M296.9,147.4c0-0.5-0.1-1-0.3-1.4c-0.2-0.4-0.5-0.7-0.9-0.9c-0.4-0.2-0.8-0.3-1.2-0.3c-0.4,0-0.8,0.1-1.2,0.3
			c-0.4,0.2-0.7,0.5-0.9,0.9c-0.2,0.4-0.3,0.9-0.3,1.4c0,0.5,0.1,1,0.3,1.4c0.2,0.4,0.5,0.7,0.9,0.9c0.4,0.2,0.8,0.3,1.2,0.3
			c0.4,0,0.8-0.1,1.2-0.3c0.4-0.2,0.7-0.5,0.9-0.9C296.8,148.4,296.9,147.9,296.9,147.4z M306,143.8v7.1h-1.2v-1.1
			c-0.2,0.4-0.5,0.6-0.9,0.9c-0.4,0.2-0.8,0.3-1.3,0.3c-0.6,0-1.1-0.1-1.5-0.3c-0.4-0.2-0.8-0.6-1.1-1c-0.3-0.5-0.4-1-0.4-1.7v-4.2
			h1.2v4c0,0.7,0.2,1.2,0.5,1.6c0.4,0.4,0.8,0.6,1.5,0.6c0.6,0,1.1-0.2,1.5-0.6c0.4-0.4,0.5-1,0.5-1.7v-3.9H306z M311.1,151.1
			c-0.7,0-1.3-0.2-1.8-0.5c-0.5-0.3-1-0.7-1.3-1.3c-0.3-0.6-0.5-1.2-0.5-2c0-0.7,0.2-1.4,0.5-1.9c0.3-0.6,0.8-1,1.3-1.3
			c0.5-0.3,1.2-0.5,1.8-0.5c0.7,0,1.3,0.2,1.8,0.5c0.5,0.3,1,0.7,1.3,1.3c0.3,0.6,0.5,1.2,0.5,1.9s-0.2,1.4-0.5,2
			c-0.3,0.6-0.8,1-1.3,1.3C312.4,150.9,311.7,151.1,311.1,151.1z M311.1,150c0.4,0,0.8-0.1,1.2-0.3c0.4-0.2,0.7-0.5,0.9-0.9
			c0.2-0.4,0.4-0.9,0.4-1.5c0-0.6-0.1-1.1-0.3-1.5c-0.2-0.4-0.5-0.7-0.9-0.9c-0.4-0.2-0.8-0.3-1.2-0.3c-0.4,0-0.8,0.1-1.2,0.3
			c-0.4,0.2-0.6,0.5-0.9,0.9c-0.2,0.4-0.3,0.9-0.3,1.5c0,0.6,0.1,1.1,0.3,1.5c0.2,0.4,0.5,0.7,0.9,0.9
			C310.3,150,310.6,150,311.1,150z M316.9,142.7c-0.2,0-0.4-0.1-0.6-0.2c-0.2-0.2-0.2-0.3-0.2-0.6s0.1-0.4,0.2-0.6s0.3-0.2,0.6-0.2
			c0.2,0,0.4,0.1,0.5,0.2c0.2,0.2,0.2,0.3,0.2,0.6s-0.1,0.4-0.2,0.6C317.3,142.6,317.1,142.7,316.9,142.7z M317.5,143.8v7.1h-1.2
			v-7.1H317.5z M38.6,167.4c0-0.7,0.1-1.4,0.4-1.9c0.3-0.6,0.7-1,1.2-1.3c0.5-0.3,1.1-0.5,1.8-0.5c0.9,0,1.6,0.2,2.2,0.6
			c0.6,0.4,0.9,1,1.1,1.8H44c-0.1-0.4-0.4-0.8-0.7-1c-0.3-0.3-0.8-0.4-1.3-0.4c-0.7,0-1.2,0.2-1.6,0.7c-0.4,0.5-0.6,1.1-0.6,2
			c0,0.9,0.2,1.5,0.6,2c0.4,0.5,1,0.7,1.6,0.7c0.5,0,1-0.1,1.3-0.4c0.3-0.2,0.6-0.6,0.7-1h1.3c-0.2,0.7-0.6,1.3-1.1,1.8
			c-0.6,0.4-1.3,0.6-2.1,0.6c-0.7,0-1.3-0.2-1.8-0.5c-0.5-0.3-0.9-0.7-1.2-1.3S38.6,168.1,38.6,167.4z M50.4,163.7
			c0.5,0,1,0.1,1.5,0.4c0.4,0.2,0.8,0.6,1,1c0.3,0.5,0.4,1,0.4,1.7v4.2h-1.2v-4c0-0.7-0.2-1.3-0.5-1.6c-0.4-0.4-0.8-0.6-1.5-0.6
			c-0.6,0-1.1,0.2-1.5,0.6c-0.4,0.4-0.5,1-0.5,1.7v3.9h-1.2v-9.6h1.2v3.5c0.2-0.4,0.6-0.6,1-0.8C49.5,163.8,49.9,163.7,50.4,163.7z
			 M55.8,162.7c-0.2,0-0.4-0.1-0.6-0.2c-0.2-0.2-0.2-0.3-0.2-0.6s0.1-0.4,0.2-0.6c0.2-0.2,0.3-0.2,0.6-0.2c0.2,0,0.4,0.1,0.5,0.2
			c0.2,0.2,0.2,0.3,0.2,0.6s-0.1,0.4-0.2,0.6C56.2,162.6,56,162.7,55.8,162.7z M56.4,163.8v7.1h-1.2v-7.1H56.4z M64.7,163.8v7.1
			h-1.2v-1.1c-0.2,0.4-0.5,0.6-0.9,0.9c-0.4,0.2-0.8,0.3-1.3,0.3c-0.6,0-1.1-0.1-1.5-0.3c-0.4-0.2-0.8-0.6-1.1-1
			c-0.3-0.5-0.4-1-0.4-1.7v-4.2h1.2v4c0,0.7,0.2,1.2,0.5,1.6c0.4,0.4,0.8,0.6,1.5,0.6c0.6,0,1.1-0.2,1.5-0.6c0.4-0.4,0.5-1,0.5-1.7
			v-3.9H64.7z M66.3,167.4c0-0.7,0.1-1.4,0.4-1.9c0.3-0.6,0.7-1,1.2-1.3c0.5-0.3,1.1-0.5,1.7-0.5c0.6,0,1.1,0.1,1.5,0.4
			c0.5,0.3,0.8,0.6,1.1,1v-3.8h1.2v9.6h-1.2v-1.3c-0.2,0.4-0.6,0.8-1,1.1c-0.5,0.3-1,0.4-1.6,0.4c-0.6,0-1.2-0.2-1.7-0.5
			c-0.5-0.3-0.9-0.8-1.2-1.3C66.4,168.7,66.3,168.1,66.3,167.4z M72.3,167.4c0-0.5-0.1-1-0.3-1.4c-0.2-0.4-0.5-0.7-0.9-0.9
			c-0.4-0.2-0.8-0.3-1.2-0.3c-0.4,0-0.8,0.1-1.2,0.3c-0.4,0.2-0.7,0.5-0.9,0.9c-0.2,0.4-0.3,0.9-0.3,1.4c0,0.5,0.1,1,0.3,1.4
			c0.2,0.4,0.5,0.7,0.9,0.9c0.4,0.2,0.8,0.3,1.2,0.3c0.4,0,0.8-0.1,1.2-0.3c0.4-0.2,0.7-0.5,0.9-0.9
			C72.2,168.4,72.3,167.9,72.3,167.4z M82,167.1c0,0.2,0,0.5,0,0.7h-5.7c0,0.7,0.3,1.3,0.7,1.7c0.4,0.4,1,0.6,1.6,0.6
			c0.5,0,0.9-0.1,1.3-0.4c0.3-0.2,0.6-0.6,0.7-1h1.3c-0.2,0.7-0.6,1.2-1.1,1.7c-0.6,0.4-1.3,0.6-2.1,0.6c-0.7,0-1.3-0.2-1.8-0.5
			c-0.5-0.3-0.9-0.7-1.2-1.3c-0.3-0.6-0.5-1.2-0.5-2s0.1-1.4,0.4-1.9c0.3-0.6,0.7-1,1.2-1.3c0.5-0.3,1.2-0.5,1.8-0.5
			c0.7,0,1.3,0.1,1.8,0.4c0.5,0.3,0.9,0.7,1.2,1.2C81.9,165.9,82,166.5,82,167.1z M80.8,166.9c0-0.5-0.1-0.8-0.3-1.2
			c-0.2-0.3-0.5-0.6-0.8-0.7c-0.3-0.2-0.7-0.3-1.1-0.3c-0.6,0-1.1,0.2-1.5,0.6c-0.4,0.4-0.7,0.9-0.7,1.6H80.8z M84.8,165
			c0.2-0.4,0.5-0.7,0.9-0.9c0.4-0.2,0.9-0.3,1.4-0.3v1.2h-0.3c-1.3,0-2,0.7-2,2.2v3.9h-1.2v-7.1h1.2V165z M89.6,161.4v9.6h-1.2v-9.6
			H89.6z M91.2,167.4c0-0.7,0.1-1.4,0.4-1.9c0.3-0.6,0.7-1,1.2-1.3c0.5-0.3,1.1-0.5,1.7-0.5c0.6,0,1.2,0.1,1.6,0.4
			c0.5,0.3,0.8,0.6,1,1v-1.3h1.2v7.1h-1.2v-1.3c-0.2,0.4-0.6,0.8-1.1,1c-0.5,0.3-1,0.4-1.6,0.4c-0.6,0-1.2-0.2-1.7-0.5
			c-0.5-0.3-0.9-0.8-1.2-1.3C91.3,168.7,91.2,168.1,91.2,167.4z M97.2,167.4c0-0.5-0.1-1-0.3-1.4c-0.2-0.4-0.5-0.7-0.9-0.9
			c-0.4-0.2-0.8-0.3-1.2-0.3c-0.4,0-0.8,0.1-1.2,0.3c-0.4,0.2-0.7,0.5-0.9,0.9c-0.2,0.4-0.3,0.9-0.3,1.4c0,0.5,0.1,1,0.3,1.4
			c0.2,0.4,0.5,0.7,0.9,0.9c0.4,0.2,0.8,0.3,1.2,0.3c0.4,0,0.8-0.1,1.2-0.3c0.4-0.2,0.7-0.5,0.9-0.9
			C97.1,168.4,97.2,167.9,97.2,167.4z M110.4,167.1c0,0.2,0,0.5,0,0.7h-5.7c0,0.7,0.3,1.3,0.7,1.7c0.4,0.4,1,0.6,1.6,0.6
			c0.5,0,0.9-0.1,1.3-0.4c0.3-0.2,0.6-0.6,0.7-1h1.3c-0.2,0.7-0.6,1.2-1.1,1.7c-0.6,0.4-1.3,0.6-2.1,0.6c-0.7,0-1.3-0.2-1.8-0.5
			c-0.5-0.3-0.9-0.7-1.2-1.3c-0.3-0.6-0.5-1.2-0.5-2s0.1-1.4,0.4-1.9s0.7-1,1.2-1.3c0.5-0.3,1.2-0.5,1.8-0.5c0.7,0,1.3,0.1,1.8,0.4
			c0.5,0.3,0.9,0.7,1.2,1.2C110.2,165.9,110.4,166.5,110.4,167.1z M109.2,166.9c0-0.5-0.1-0.8-0.3-1.2c-0.2-0.3-0.5-0.6-0.8-0.7
			c-0.3-0.2-0.7-0.3-1.1-0.3c-0.6,0-1.1,0.2-1.5,0.6c-0.4,0.4-0.7,0.9-0.7,1.6H109.2z M118.9,163.7c0.9,0,1.6,0.3,2.1,0.8
			c0.5,0.5,0.8,1.3,0.8,2.3v4.2h-1.2v-4c0-0.7-0.2-1.3-0.5-1.6c-0.4-0.4-0.8-0.6-1.5-0.6c-0.6,0-1.1,0.2-1.5,0.6
			c-0.4,0.4-0.5,1-0.5,1.7v3.9h-1.2v-7.1h1.2v1c0.2-0.4,0.6-0.6,0.9-0.8C117.9,163.8,118.4,163.7,118.9,163.7z M126.8,171.1
			c-0.7,0-1.3-0.2-1.8-0.5c-0.5-0.3-1-0.7-1.3-1.3c-0.3-0.6-0.5-1.2-0.5-2c0-0.7,0.2-1.4,0.5-1.9c0.3-0.6,0.8-1,1.3-1.3
			c0.5-0.3,1.2-0.5,1.8-0.5s1.3,0.2,1.8,0.5c0.5,0.3,1,0.7,1.3,1.3c0.3,0.6,0.5,1.2,0.5,1.9s-0.2,1.4-0.5,2c-0.3,0.6-0.8,1-1.3,1.3
			C128.1,170.9,127.5,171.1,126.8,171.1z M126.8,170c0.4,0,0.8-0.1,1.2-0.3c0.4-0.2,0.7-0.5,0.9-0.9c0.2-0.4,0.4-0.9,0.4-1.5
			c0-0.6-0.1-1.1-0.3-1.5c-0.2-0.4-0.5-0.7-0.9-0.9c-0.4-0.2-0.8-0.3-1.2-0.3c-0.4,0-0.8,0.1-1.2,0.3c-0.4,0.2-0.6,0.5-0.9,0.9
			c-0.2,0.4-0.3,0.9-0.3,1.5c0,0.6,0.1,1.1,0.3,1.5c0.2,0.4,0.5,0.7,0.9,0.9C126,170,126.4,170,126.8,170z M135.5,163.7
			c0.9,0,1.6,0.3,2.1,0.8c0.5,0.5,0.8,1.3,0.8,2.3v4.2h-1.2v-4c0-0.7-0.2-1.3-0.5-1.6c-0.4-0.4-0.8-0.6-1.5-0.6
			c-0.6,0-1.1,0.2-1.5,0.6c-0.4,0.4-0.5,1-0.5,1.7v3.9H132v-7.1h1.2v1c0.2-0.4,0.6-0.6,0.9-0.8C134.6,163.8,135,163.7,135.5,163.7z
			 M145.3,164.8v4.2c0,0.3,0.1,0.6,0.2,0.7c0.1,0.1,0.4,0.2,0.8,0.2h0.9v1h-1.1c-0.7,0-1.2-0.2-1.5-0.5c-0.3-0.3-0.5-0.8-0.5-1.5
			v-4.2h-0.9v-1h0.9v-1.8h1.2v1.8h1.9v1H145.3z M149.2,162.7c-0.2,0-0.4-0.1-0.6-0.2c-0.2-0.2-0.2-0.3-0.2-0.6s0.1-0.4,0.2-0.6
			c0.2-0.2,0.3-0.2,0.6-0.2c0.2,0,0.4,0.1,0.5,0.2c0.2,0.2,0.2,0.3,0.2,0.6s-0.1,0.4-0.2,0.6C149.6,162.6,149.4,162.7,149.2,162.7z
			 M149.7,163.8v7.1h-1.2v-7.1H149.7z M157.9,169.9l2.2-6h1.3l-2.8,7.1h-1.4l-2.8-7.1h1.3L157.9,169.9z M169,167.1
			c0,0.2,0,0.5,0,0.7h-5.7c0,0.7,0.3,1.3,0.7,1.7c0.4,0.4,1,0.6,1.6,0.6c0.5,0,0.9-0.1,1.3-0.4c0.3-0.2,0.6-0.6,0.7-1h1.3
			c-0.2,0.7-0.6,1.2-1.1,1.7c-0.6,0.4-1.3,0.6-2.1,0.6c-0.7,0-1.3-0.2-1.8-0.5c-0.5-0.3-0.9-0.7-1.2-1.3c-0.3-0.6-0.5-1.2-0.5-2
			s0.1-1.4,0.4-1.9c0.3-0.6,0.7-1,1.2-1.3c0.5-0.3,1.2-0.5,1.8-0.5c0.7,0,1.3,0.1,1.8,0.4c0.5,0.3,0.9,0.7,1.2,1.2
			C168.9,165.9,169,166.5,169,167.1z M167.8,166.9c0-0.5-0.1-0.8-0.3-1.2c-0.2-0.3-0.5-0.6-0.8-0.7c-0.3-0.2-0.7-0.3-1.1-0.3
			c-0.6,0-1.1,0.2-1.5,0.6c-0.4,0.4-0.7,0.9-0.7,1.6H167.8z M171.7,165c0.2-0.4,0.5-0.7,0.9-0.9c0.4-0.2,0.9-0.3,1.4-0.3v1.2h-0.3
			c-1.3,0-2,0.7-2,2.2v3.9h-1.2v-7.1h1.2V165z M176.6,165c0.2-0.4,0.5-0.7,0.9-0.9c0.4-0.2,0.9-0.3,1.4-0.3v1.2h-0.3
			c-1.3,0-2,0.7-2,2.2v3.9h-1.2v-7.1h1.2V165z M179.8,167.4c0-0.7,0.1-1.4,0.4-1.9c0.3-0.6,0.7-1,1.2-1.3c0.5-0.3,1.1-0.5,1.7-0.5
			c0.6,0,1.2,0.1,1.6,0.4c0.5,0.3,0.8,0.6,1,1v-1.3h1.2v7.1h-1.2v-1.3c-0.2,0.4-0.6,0.8-1.1,1c-0.5,0.3-1,0.4-1.6,0.4
			c-0.6,0-1.2-0.2-1.7-0.5c-0.5-0.3-0.9-0.8-1.2-1.3C180,168.7,179.8,168.1,179.8,167.4z M185.9,167.4c0-0.5-0.1-1-0.3-1.4
			c-0.2-0.4-0.5-0.7-0.9-0.9c-0.4-0.2-0.8-0.3-1.2-0.3s-0.8,0.1-1.2,0.3c-0.4,0.2-0.7,0.5-0.9,0.9c-0.2,0.4-0.3,0.9-0.3,1.4
			c0,0.5,0.1,1,0.3,1.4c0.2,0.4,0.5,0.7,0.9,0.9c0.4,0.2,0.8,0.3,1.2,0.3s0.8-0.1,1.2-0.3c0.4-0.2,0.7-0.5,0.9-0.9
			C185.7,168.4,185.9,167.9,185.9,167.4z M193.7,165.2c0.2-0.4,0.6-0.7,1-1c0.5-0.3,1-0.4,1.6-0.4c0.6,0,1.2,0.2,1.7,0.5
			c0.5,0.3,0.9,0.7,1.2,1.3c0.3,0.5,0.4,1.2,0.4,1.9c0,0.7-0.1,1.4-0.4,1.9c-0.3,0.6-0.7,1-1.2,1.3c-0.5,0.3-1.1,0.5-1.7,0.5
			c-0.6,0-1.1-0.1-1.6-0.4c-0.5-0.3-0.8-0.6-1.1-1v4.7h-1.2v-10.5h1.2V165.2z M198.5,167.4c0-0.5-0.1-1-0.3-1.4
			c-0.2-0.4-0.5-0.7-0.9-0.9c-0.4-0.2-0.8-0.3-1.2-0.3c-0.4,0-0.8,0.1-1.2,0.3c-0.4,0.2-0.7,0.5-0.9,0.9c-0.2,0.4-0.3,0.9-0.3,1.4
			c0,0.5,0.1,1,0.3,1.4c0.2,0.4,0.5,0.7,0.9,0.9c0.4,0.2,0.8,0.3,1.2,0.3c0.4,0,0.8-0.1,1.2-0.3c0.4-0.2,0.7-0.5,0.9-0.9
			C198.4,168.4,198.5,167.9,198.5,167.4z M201.9,162.7c-0.2,0-0.4-0.1-0.6-0.2c-0.2-0.2-0.2-0.3-0.2-0.6s0.1-0.4,0.2-0.6
			c0.2-0.2,0.3-0.2,0.6-0.2c0.2,0,0.4,0.1,0.5,0.2c0.2,0.2,0.2,0.3,0.2,0.6s-0.1,0.4-0.2,0.6C202.3,162.6,202.1,162.7,201.9,162.7z
			 M202.5,163.8v7.1h-1.2v-7.1H202.5z M210.8,163.8v7.1h-1.2v-1.1c-0.2,0.4-0.5,0.6-0.9,0.9c-0.4,0.2-0.8,0.3-1.3,0.3
			c-0.6,0-1.1-0.1-1.5-0.3c-0.4-0.2-0.8-0.6-1.1-1c-0.3-0.5-0.4-1-0.4-1.7v-4.2h1.2v4c0,0.7,0.2,1.2,0.5,1.6
			c0.4,0.4,0.8,0.6,1.5,0.6c0.6,0,1.1-0.2,1.5-0.6c0.4-0.4,0.5-1,0.5-1.7v-3.9H210.8z M208.9,162.4v0.9l-2.8-1.5v-1L208.9,162.4z
			 M215.8,167.4c0-0.7,0.1-1.4,0.4-1.9c0.3-0.6,0.7-1,1.2-1.3c0.5-0.3,1.1-0.5,1.8-0.5c0.9,0,1.6,0.2,2.2,0.6c0.6,0.4,0.9,1,1.1,1.8
			h-1.3c-0.1-0.4-0.4-0.8-0.7-1c-0.3-0.3-0.8-0.4-1.3-0.4c-0.7,0-1.2,0.2-1.6,0.7c-0.4,0.5-0.6,1.1-0.6,2c0,0.9,0.2,1.5,0.6,2
			s1,0.7,1.6,0.7c0.5,0,1-0.1,1.3-0.4c0.3-0.2,0.6-0.6,0.7-1h1.3c-0.2,0.7-0.6,1.3-1.1,1.8c-0.6,0.4-1.3,0.6-2.1,0.6
			c-0.7,0-1.3-0.2-1.8-0.5c-0.5-0.3-0.9-0.7-1.2-1.3C216,168.8,215.8,168.1,215.8,167.4z M227.7,163.7c0.5,0,1,0.1,1.5,0.4
			c0.4,0.2,0.8,0.6,1,1c0.3,0.5,0.4,1,0.4,1.7v4.2h-1.2v-4c0-0.7-0.2-1.3-0.5-1.6c-0.4-0.4-0.8-0.6-1.5-0.6c-0.6,0-1.1,0.2-1.5,0.6
			c-0.4,0.4-0.5,1-0.5,1.7v3.9h-1.2v-9.6h1.2v3.5c0.2-0.4,0.6-0.6,1-0.8C226.7,163.8,227.2,163.7,227.7,163.7z M233.1,162.7
			c-0.2,0-0.4-0.1-0.6-0.2c-0.2-0.2-0.2-0.3-0.2-0.6s0.1-0.4,0.2-0.6c0.2-0.2,0.3-0.2,0.6-0.2c0.2,0,0.4,0.1,0.5,0.2
			c0.2,0.2,0.2,0.3,0.2,0.6s-0.1,0.4-0.2,0.6C233.5,162.6,233.3,162.7,233.1,162.7z M233.7,163.8v7.1h-1.2v-7.1H233.7z M242.2,167.1
			c0,0.2,0,0.5,0,0.7h-5.7c0,0.7,0.3,1.3,0.7,1.7c0.4,0.4,1,0.6,1.6,0.6c0.5,0,0.9-0.1,1.3-0.4c0.3-0.2,0.6-0.6,0.7-1h1.3
			c-0.2,0.7-0.6,1.2-1.1,1.7c-0.6,0.4-1.3,0.6-2.1,0.6c-0.7,0-1.3-0.2-1.8-0.5c-0.5-0.3-0.9-0.7-1.2-1.3c-0.3-0.6-0.5-1.2-0.5-2
			s0.1-1.4,0.4-1.9c0.3-0.6,0.7-1,1.2-1.3c0.5-0.3,1.2-0.5,1.8-0.5c0.7,0,1.3,0.1,1.8,0.4c0.5,0.3,0.9,0.7,1.2,1.2
			C242,165.9,242.2,166.5,242.2,167.1z M241,166.9c0-0.5-0.1-0.8-0.3-1.2c-0.2-0.3-0.5-0.6-0.8-0.7c-0.3-0.2-0.7-0.3-1.1-0.3
			c-0.6,0-1.1,0.2-1.5,0.6c-0.4,0.4-0.7,0.9-0.7,1.6H241z M246.3,171.1c-0.5,0-1-0.1-1.5-0.3c-0.4-0.2-0.8-0.5-1-0.8
			c-0.3-0.3-0.4-0.7-0.4-1.2h1.2c0,0.4,0.2,0.6,0.5,0.9c0.3,0.2,0.7,0.3,1.2,0.3c0.5,0,0.8-0.1,1.1-0.3c0.3-0.2,0.4-0.5,0.4-0.8
			c0-0.3-0.1-0.5-0.4-0.7c-0.3-0.2-0.7-0.3-1.3-0.5c-0.5-0.1-1-0.3-1.3-0.4c-0.3-0.1-0.6-0.4-0.9-0.6c-0.2-0.3-0.4-0.7-0.4-1.1
			c0-0.4,0.1-0.7,0.3-1c0.2-0.3,0.5-0.5,0.9-0.7c0.4-0.2,0.9-0.3,1.4-0.3c0.8,0,1.4,0.2,1.9,0.6c0.5,0.4,0.7,0.9,0.8,1.6h-1.2
			c0-0.4-0.2-0.7-0.5-0.9c-0.3-0.2-0.6-0.3-1.1-0.3c-0.4,0-0.8,0.1-1,0.3c-0.3,0.2-0.4,0.4-0.4,0.7c0,0.2,0.1,0.4,0.2,0.6
			c0.2,0.1,0.3,0.3,0.6,0.4c0.2,0.1,0.6,0.2,1,0.3c0.5,0.1,0.9,0.3,1.2,0.4c0.3,0.1,0.6,0.3,0.8,0.6c0.2,0.3,0.4,0.6,0.4,1.1
			c0,0.4-0.1,0.7-0.3,1.1c-0.2,0.3-0.5,0.6-0.9,0.7C247.2,171,246.8,171.1,246.3,171.1z M252,164.8v4.2c0,0.3,0.1,0.6,0.2,0.7
			c0.1,0.1,0.4,0.2,0.8,0.2h0.9v1h-1.1c-0.7,0-1.2-0.2-1.5-0.5c-0.3-0.3-0.5-0.8-0.5-1.5v-4.2h-0.9v-1h0.9v-1.8h1.2v1.8h1.9v1H252z
			 M254.8,167.4c0-0.7,0.1-1.4,0.4-1.9c0.3-0.6,0.7-1,1.2-1.3c0.5-0.3,1.1-0.5,1.7-0.5c0.6,0,1.2,0.1,1.6,0.4c0.5,0.3,0.8,0.6,1,1
			v-1.3h1.2v7.1h-1.2v-1.3c-0.2,0.4-0.6,0.8-1.1,1c-0.5,0.3-1,0.4-1.6,0.4c-0.6,0-1.2-0.2-1.7-0.5c-0.5-0.3-0.9-0.8-1.2-1.3
			C255,168.7,254.8,168.1,254.8,167.4z M260.9,167.4c0-0.5-0.1-1-0.3-1.4c-0.2-0.4-0.5-0.7-0.9-0.9c-0.4-0.2-0.8-0.3-1.2-0.3
			c-0.4,0-0.8,0.1-1.2,0.3c-0.4,0.2-0.7,0.5-0.9,0.9c-0.2,0.4-0.3,0.9-0.3,1.4c0,0.5,0.1,1,0.3,1.4c0.2,0.4,0.5,0.7,0.9,0.9
			c0.4,0.2,0.8,0.3,1.2,0.3c0.4,0,0.8-0.1,1.2-0.3c0.4-0.2,0.7-0.5,0.9-0.9C260.8,168.4,260.9,167.9,260.9,167.4z M264.4,171
			c-0.2,0-0.4-0.1-0.6-0.2c-0.2-0.2-0.2-0.3-0.2-0.6s0.1-0.4,0.2-0.6c0.2-0.2,0.3-0.2,0.6-0.2c0.2,0,0.4,0.1,0.5,0.2
			c0.2,0.2,0.2,0.3,0.2,0.6s-0.1,0.4-0.2,0.6C264.8,171,264.7,171,264.4,171z"/>
		<path class="st4" d="M46.5,61.9l-2.2-2.9c-0.6,0.1-1.3,0.2-1.9,0.2c-1.6,0-3-0.4-4.4-1.1c-1.3-0.7-2.4-1.8-3.1-3.1
			c-0.8-1.3-1.2-2.8-1.2-4.5s0.4-3.1,1.2-4.4c0.8-1.3,1.8-2.3,3.1-3.1c1.3-0.7,2.8-1.1,4.4-1.1s3,0.4,4.3,1.1
			c1.3,0.7,2.4,1.8,3.1,3.1c0.8,1.3,1.2,2.8,1.2,4.4c0,1.4-0.3,2.8-0.9,4c-0.6,1.2-1.4,2.2-2.4,3l3.7,4.4H46.5z M38,50.5
			c0,1.5,0.4,2.7,1.2,3.6c0.8,0.9,1.9,1.3,3.3,1.3c1.3,0,2.4-0.4,3.2-1.3c0.8-0.9,1.2-2.1,1.2-3.6c0-1.5-0.4-2.7-1.2-3.6
			c-0.8-0.9-1.9-1.3-3.2-1.3c-1.4,0-2.4,0.4-3.3,1.3C38.4,47.8,38,49,38,50.5z M66.6,45.6V59h-4.1v-1.8c-0.4,0.6-1,1.1-1.7,1.4
			c-0.7,0.4-1.5,0.5-2.4,0.5c-1,0-1.9-0.2-2.7-0.7c-0.8-0.5-1.4-1.1-1.8-2s-0.6-1.9-0.6-3v-7.8h4.1v7.3c0,0.9,0.2,1.6,0.7,2.1
			c0.5,0.5,1.1,0.7,1.9,0.7c0.8,0,1.4-0.2,1.9-0.7s0.7-1.2,0.7-2.1v-7.3H66.6z M71.6,44.2c-0.7,0-1.3-0.2-1.8-0.6
			c-0.4-0.4-0.7-1-0.7-1.6c0-0.6,0.2-1.2,0.7-1.6c0.5-0.4,1.1-0.6,1.8-0.6c0.7,0,1.3,0.2,1.7,0.6c0.5,0.4,0.7,0.9,0.7,1.6
			c0,0.6-0.2,1.2-0.7,1.6C72.9,44,72.3,44.2,71.6,44.2z M73.7,45.6V59h-4.1V45.6H73.7z M80.5,55.6h5.8V59H75.9v-3.3l5.6-6.7H76v-3.4
			h10.2v3.3L80.5,55.6z"/>
	</g>
</g>
</svg>
