<svg width="95" height="73" viewBox="0 0 95 73" fill="none" xmlns="http://www.w3.org/2000/svg">
<g filter="url(#filter0_i_245_1679)">
<path d="M1.669 47.7947C-0.0385535 46.5655 -0.426297 44.1847 0.802949 42.4772L1.05099 42.1326C2.14325 40.6154 4.25868 40.2708 5.77594 41.3631L12.2655 46.0348C12.5439 46.2353 12.9222 45.9839 12.8453 45.6495V45.6495C11.3724 39.6722 11.0321 34.2679 11.8245 29.4366C12.617 24.6052 14.6322 19.9406 17.8701 15.4428C22.7077 8.72287 29.063 4.1997 36.9361 1.87327C42.8884 0.114372 48.825 -0.121491 54.7456 1.16568C57.7016 1.80832 58.7424 5.2892 56.9751 7.74423V7.74423C55.8191 9.35006 53.7737 9.99904 51.8271 9.64412C47.3567 8.829 42.9218 9.19044 38.5226 10.7284C33.0712 12.6343 28.6327 15.9663 25.2072 20.7247C22.6698 24.2494 21.0955 27.7607 20.4841 31.2585C19.8728 34.7563 20.0206 38.2587 20.9276 41.7658V41.7658C21.4383 43.0802 23.2029 43.3049 24.0268 42.1605L26.9638 38.0807C28.186 36.3829 30.5533 35.9973 32.2511 37.2196V37.2196C33.949 38.4419 34.3345 40.8091 33.1123 42.507L24.5461 54.4063C21.9647 57.9921 16.9653 58.8063 13.3795 56.225L1.669 47.7947ZM39.7543 71.3917C36.7776 70.7671 35.7147 67.2685 37.4917 64.8001V64.8001C38.6634 63.1724 40.7459 62.5309 42.715 62.9118C47.1828 63.7761 51.6074 63.4209 55.9887 61.8464C61.4321 59.8902 65.8876 56.5035 69.3554 51.6864C71.2162 49.1016 72.4782 45.9452 73.1414 42.2172C73.8048 38.4893 73.8882 34.8411 73.3916 31.2728V31.2728C73.088 29.9399 71.3538 29.5883 70.5551 30.6978L67.7436 34.6033C66.5305 36.2885 64.1573 36.654 62.4722 35.4409V35.4409C60.7606 34.2088 60.3479 31.8052 61.58 30.0936L70.1284 18.2191C72.7097 14.6333 77.7092 13.8191 81.295 16.4004L93.055 24.8663C94.7625 26.0956 95.1503 28.4763 93.921 30.1838V30.1838C92.6918 31.8914 90.311 32.2791 88.6035 31.0499L82.4801 26.6417C82.1139 26.3781 81.6092 26.6768 81.6642 27.1246V27.1246C82.9082 33.104 83.0309 38.6833 82.0323 43.8625C81.0338 49.0418 79.2538 53.4104 76.6925 56.9683C71.8126 63.747 65.4362 68.2995 57.5632 70.6259C51.6231 72.3812 45.6868 72.6364 39.7543 71.3917Z" fill="#FBBC05"/>
</g>
<defs>
<filter id="filter0_i_245_1679" x="0.0848389" y="0.349854" width="94.5543" height="75.8165" filterUnits="userSpaceOnUse" color-interpolation-filters="sRGB">
<feFlood flood-opacity="0" result="BackgroundImageFix"/>
<feBlend mode="normal" in="SourceGraphic" in2="BackgroundImageFix" result="shape"/>
<feColorMatrix in="SourceAlpha" type="matrix" values="0 0 0 0 0 0 0 0 0 0 0 0 0 0 0 0 0 0 127 0" result="hardAlpha"/>
<feOffset dy="4"/>
<feGaussianBlur stdDeviation="2"/>
<feComposite in2="hardAlpha" operator="arithmetic" k2="-1" k3="1"/>
<feColorMatrix type="matrix" values="0 0 0 0 0 0 0 0 0 0 0 0 0 0 0 0 0 0 0.1 0"/>
<feBlend mode="normal" in2="shape" result="effect1_innerShadow_245_1679"/>
</filter>
</defs>
</svg>
