<svg width="61" height="74" viewBox="0 0 61 74" fill="none" xmlns="http://www.w3.org/2000/svg">
<g filter="url(#filter0_i_294_571)">
<path d="M59.3548 73.1299C57.588 74.3933 55.1315 73.9846 53.8688 72.2174L38.0331 50.0538C36.8448 48.3906 34.6032 47.9285 32.6689 48.5895C31.4984 48.9894 30.2672 49.2936 28.9753 49.5019C26.4132 49.9151 23.7604 49.8934 21.0171 49.4367C14.0386 48.275 8.5704 44.9188 4.61245 39.368C0.654497 33.8173 -0.756212 27.6282 0.380328 20.8006C1.51686 13.973 4.85934 8.57866 10.4078 4.61751C15.9563 0.656429 22.1423 -0.756174 28.9659 0.379702C35.7895 1.51558 41.1805 4.85787 45.1388 10.4066C49.0971 15.9553 50.5074 22.1466 49.3699 28.9804C48.9153 31.7114 48.0908 34.1882 46.8965 36.4107C46.2317 37.6481 45.4499 38.8279 44.5511 39.9503C43.2981 41.5151 43.0552 43.7344 44.2263 45.3613L60.259 67.6347C61.5304 69.401 61.1251 71.8641 59.3548 73.1299ZM22.0987 41.8317C26.8616 42.6246 31.1382 41.6572 34.9286 38.9296C38.719 36.202 41.0088 32.468 41.7979 27.7276C42.587 22.9872 41.6317 18.7057 38.9319 14.8832C36.2323 11.0607 32.5033 8.75346 27.745 7.96139C22.9362 7.1609 18.6314 8.13086 14.8306 10.8712C11.0298 13.6116 8.73482 17.3521 7.94571 22.0925C7.15661 26.8329 8.11477 31.1076 10.8202 34.9165C13.5256 38.7254 17.2851 41.0304 22.0987 41.8317Z" fill="#FBBC05"/>
</g>
<defs>
<filter id="filter0_i_294_571" x="0" y="0" width="61" height="77.8737" filterUnits="userSpaceOnUse" color-interpolation-filters="sRGB">
<feFlood flood-opacity="0" result="BackgroundImageFix"/>
<feBlend mode="normal" in="SourceGraphic" in2="BackgroundImageFix" result="shape"/>
<feColorMatrix in="SourceAlpha" type="matrix" values="0 0 0 0 0 0 0 0 0 0 0 0 0 0 0 0 0 0 127 0" result="hardAlpha"/>
<feOffset dy="4"/>
<feGaussianBlur stdDeviation="2"/>
<feComposite in2="hardAlpha" operator="arithmetic" k2="-1" k3="1"/>
<feColorMatrix type="matrix" values="0 0 0 0 0 0 0 0 0 0 0 0 0 0 0 0 0 0 0.1 0"/>
<feBlend mode="normal" in2="shape" result="effect1_innerShadow_294_571"/>
</filter>
</defs>
</svg>
